<svg xmlns="http://www.w3.org/2000/svg" xmlns:xlink="http://www.w3.org/1999/xlink" width="1024" zoomAndPan="magnify" viewBox="0 0 768 767.999994" height="1024" preserveAspectRatio="xMidYMid meet" version="1.0"><path fill="#5e94ff" d="M 488.648438 609.660156 C 482.527344 612.550781 476.050781 615.246094 469.453125 617.652344 C 442.039062 627.628906 413.285156 632.679688 383.992188 632.679688 C 354.519531 632.679688 325.679688 627.59375 298.445312 617.632812 C 291.273438 614.957031 284.933594 612.316406 278.957031 609.503906 C 225.6875 584.742188 182.699219 541.726562 157.929688 488.421875 C 154.996094 482.089844 152.296875 475.554688 149.90625 469.03125 C 139.914062 441.664062 134.847656 412.898438 134.847656 383.542969 C 134.847656 354.0625 139.929688 325.222656 149.890625 297.976562 C 152.464844 291.074219 155.199219 284.535156 158.066406 278.4375 C 182.832031 225.1875 225.851562 182.226562 279.335938 157.421875 C 285.320312 154.601562 291.601562 151.996094 298.519531 149.457031 C 325.878906 139.464844 354.632812 134.398438 383.992188 134.398438 C 413.472656 134.398438 442.296875 139.476562 469.652344 149.503906 C 476.304688 151.9375 482.78125 154.632812 489.011719 157.566406 C 542.3125 182.390625 585.289062 225.414062 610.074219 278.859375 C 613.0625 285.203125 615.71875 291.613281 618.027344 298.046875 C 628.019531 325.414062 633.089844 354.175781 633.089844 383.542969 C 633.089844 413.007812 628.007812 441.859375 617.988281 469.257812 C 615.601562 475.777344 612.90625 482.238281 609.914062 488.597656 C 585.148438 541.898438 542.128906 584.871094 488.648438 609.660156 Z M 671.007812 488.667969 C 671.15625 488.25 671.28125 487.835938 671.429688 487.417969 L 744.609375 471.441406 C 758.144531 468.484375 767.796875 456.5 767.796875 442.636719 L 767.796875 328.871094 C 767.796875 315.570312 758.902344 303.917969 746.074219 300.425781 L 671.546875 280.085938 C 671.390625 279.671875 671.269531 279.242188 671.113281 278.828125 C 668.257812 270.855469 664.90625 262.777344 661.222656 254.960938 C 661.035156 254.554688 660.824219 254.160156 660.636719 253.757812 L 701.125 190.632812 C 708.601562 178.964844 706.953125 163.664062 697.164062 153.867188 L 616.773438 73.421875 C 607.375 64.015625 592.839844 62.066406 581.296875 68.664062 L 514.167969 107.03125 C 513.761719 106.835938 513.359375 106.617188 512.949219 106.429688 C 505.316406 102.832031 497.277344 99.488281 489.070312 96.480469 C 488.648438 96.324219 488.222656 96.203125 487.800781 96.042969 L 471.820312 22.808594 C 468.871094 9.265625 456.878906 -0.390625 443.023438 -0.390625 L 329.335938 -0.390625 C 316.039062 -0.390625 304.390625 8.511719 300.894531 21.34375 L 280.566406 95.933594 C 280.085938 96.109375 279.597656 96.253906 279.121094 96.425781 C 270.597656 99.550781 262.804688 102.785156 255.4375 106.257812 C 255.03125 106.449219 254.640625 106.652344 254.234375 106.84375 L 191.066406 66.347656 C 179.40625 58.867188 164.109375 60.523438 154.3125 70.320312 L 73.929688 150.710938 C 64.527344 160.121094 62.582031 174.652344 69.183594 186.195312 L 107.535156 253.277344 C 107.339844 253.695312 107.125 254.09375 106.929688 254.503906 C 103.453125 261.894531 100.113281 269.875 96.929688 278.414062 C 96.777344 278.820312 96.652344 279.242188 96.5 279.660156 L 23.328125 295.636719 C 9.789062 298.59375 0.136719 310.578125 0.136719 324.441406 L 0.136719 438.214844 C 0.136719 451.507812 9.03125 463.160156 21.859375 466.660156 L 96.394531 486.992188 C 96.566406 487.464844 96.710938 487.945312 96.882812 488.421875 C 99.8125 496.433594 103.117188 504.414062 106.71875 512.183594 C 106.902344 512.585938 107.113281 512.972656 107.300781 513.375 L 66.824219 576.441406 C 59.335938 588.109375 60.984375 603.414062 70.785156 613.21875 L 151.21875 693.667969 C 160.621094 703.070312 175.148438 705.011719 186.6875 698.417969 L 253.8125 660.054688 C 254.226562 660.25 254.625 660.460938 255.035156 660.65625 C 262.316406 664.078125 270.058594 667.320312 278.882812 670.613281 C 279.296875 670.761719 279.722656 670.890625 280.136719 671.039062 L 296.109375 744.21875 C 299.066406 757.761719 311.050781 767.417969 324.910156 767.417969 L 438.605469 767.417969 C 451.898438 767.417969 463.542969 758.515625 467.042969 745.691406 L 487.371094 671.195312 C 487.847656 671.019531 488.324219 670.882812 488.792969 670.707031 C 497.011719 667.703125 505.054688 664.359375 512.542969 660.828125 C 512.949219 660.640625 513.34375 660.421875 513.753906 660.234375 L 576.863281 700.726562 C 588.53125 708.207031 603.832031 706.558594 613.628906 696.761719 L 694.015625 616.355469 C 703.410156 606.953125 705.355469 592.429688 698.777344 580.890625 L 660.453125 513.746094 C 660.648438 513.332031 660.871094 512.933594 661.058594 512.515625 C 664.699219 504.777344 668.039062 496.761719 671.007812 488.667969 " fill-opacity="1" fill-rule="nonzero"/><path fill="#5e94ff" d="M 450.269531 309.523438 C 450.003906 309.917969 449.613281 310.15625 449.203125 310.300781 C 448.789062 310.441406 448.347656 310.480469 447.980469 310.480469 C 447.34375 310.480469 446.648438 310.363281 445.898438 310.128906 C 445.003906 309.859375 444.082031 309.574219 443.136719 309.28125 C 442.097656 308.96875 441.019531 308.636719 439.914062 308.3125 L 439.910156 308.3125 C 438.859375 307.996094 437.78125 307.671875 436.667969 307.339844 C 413.042969 300.359375 378.046875 291.273438 355.796875 291.273438 C 342.777344 291.273438 335.308594 294.371094 332.976562 300.742188 C 330.96875 306.230469 333.300781 313.332031 340.105469 322.449219 C 346.582031 331.128906 357.410156 341.980469 372.324219 354.734375 C 372.316406 354.738281 372.308594 354.746094 372.300781 354.757812 L 370.351562 357.195312 L 388.941406 374.171875 L 356.914062 407.839844 L 338.449219 389.875 L 336.125 392.160156 C 336.058594 392.222656 335.996094 392.289062 335.933594 392.347656 L 297.84375 356.382812 L 296.4375 356.449219 C 295.480469 356.484375 272.914062 357.609375 261.859375 371.925781 C 256.632812 378.691406 254.890625 387.164062 256.660156 397.125 L 242.746094 410.996094 L 227.90625 405.40625 L 183.332031 363.316406 L 202.835938 342.65625 C 204.304688 342.933594 206.449219 343.234375 208.953125 343.234375 C 214.265625 343.234375 221.867188 341.882812 227.90625 335.453125 C 234.859375 328.058594 237.960938 315.800781 237.128906 299.019531 C 243.265625 292.65625 277.738281 258.414062 307.023438 258.414062 C 307.1875 258.414062 307.359375 258.414062 307.523438 258.414062 C 334.542969 258.785156 398.5625 268.082031 437.628906 293.976562 C 438.726562 294.703125 439.796875 295.4375 440.855469 296.191406 C 441.945312 296.96875 443.023438 297.769531 444.070312 298.582031 C 444.914062 299.230469 445.730469 299.886719 446.542969 300.554688 C 448.171875 301.898438 449.457031 303.613281 450.160156 305.378906 C 450.835938 307.078125 450.878906 308.632812 450.269531 309.523438 " fill-opacity="1" fill-rule="nonzero"/><path fill="#5e94ff" d="M 549.074219 544.703125 L 536.710938 557.804688 C 533.761719 560.929688 529.660156 561.578125 526.738281 561.578125 C 519.363281 561.578125 510.910156 557.644531 504.121094 551.039062 L 398.425781 448.222656 L 431.707031 413.234375 L 540.398438 512.503906 C 547.570312 519.046875 552.019531 527.4375 552.292969 534.929688 C 552.394531 537.726562 551.921875 541.691406 549.074219 544.703125 " fill-opacity="1" fill-rule="nonzero"/><path fill="#5e94ff" d="M 515.878906 331.695312 L 512.191406 335.570312 C 509.742188 338.136719 506.445312 339.558594 502.894531 339.558594 C 499.515625 339.558594 496.328125 338.253906 493.921875 335.890625 L 464.039062 306.613281 C 459.0625 301.734375 458.917969 293.652344 463.722656 288.605469 L 467.402344 284.730469 C 469.847656 282.160156 473.152344 280.746094 476.699219 280.746094 C 480.082031 280.746094 483.261719 282.042969 485.679688 284.402344 L 515.558594 313.683594 C 520.539062 318.566406 520.679688 326.644531 515.878906 331.695312 Z M 507.71875 247.707031 L 509.527344 243.660156 C 511.867188 238.425781 515.707031 234.160156 520.628906 231.316406 L 551.375 213.546875 C 545.128906 210.332031 533.300781 205.441406 519.214844 205.441406 C 500.355469 205.441406 483.351562 213.988281 468.679688 230.851562 C 447.621094 255.050781 445.398438 273.277344 444.472656 290.589844 C 446.652344 292.132812 448.761719 293.742188 450.789062 295.414062 C 453.269531 297.464844 455.242188 300.125 456.351562 302.917969 C 457.863281 306.734375 457.660156 310.5 455.789062 313.269531 C 454.113281 315.734375 451.261719 317.152344 447.980469 317.152344 C 446.671875 317.152344 445.308594 316.929688 443.925781 316.503906 C 443.304688 316.308594 442.667969 316.113281 442.019531 315.910156 C 440.738281 321.910156 438.664062 328.078125 435.136719 334.5 L 467.226562 365.9375 C 478.75 357.726562 500.542969 347.992188 541.027344 344 L 507.75 270.132812 C 504.535156 263.011719 504.53125 254.835938 507.71875 247.707031 " fill-opacity="1" fill-rule="nonzero"/><path fill="#5e94ff" d="M 571.089844 317.851562 C 563.921875 326.011719 555.691406 331.9375 551.402344 334.753906 L 534.683594 302.171875 L 545.164062 302.066406 L 583.050781 276.433594 C 587.144531 290.210938 583.132812 304.121094 571.089844 317.851562 " fill-opacity="1" fill-rule="nonzero"/><path fill="#5e94ff" d="M 290.785156 542.464844 C 284.726562 548.832031 274.722656 549.015625 268.449219 542.863281 C 262.171875 536.714844 261.996094 526.566406 268.054688 520.191406 C 274.117188 513.820312 284.117188 513.644531 290.390625 519.796875 C 296.667969 525.945312 296.84375 536.09375 290.785156 542.464844 Z M 428.339844 342.417969 L 398.449219 373.835938 L 396.160156 376.25 L 393.859375 378.667969 L 361.695312 412.488281 L 359.394531 414.902344 L 357.097656 417.320312 L 257.039062 522.515625 C 251.546875 528.289062 251.707031 537.519531 257.394531 543.09375 L 268.679688 554.152344 C 271.351562 556.765625 274.863281 558.210938 278.574219 558.210938 C 282.46875 558.210938 286.109375 556.636719 288.820312 553.792969 L 389.058594 448.402344 L 391.355469 445.988281 L 393.65625 443.578125 L 426.789062 408.742188 L 429.078125 406.320312 L 431.382812 403.910156 L 460.191406 373.621094 L 428.339844 342.417969 " fill-opacity="1" fill-rule="nonzero"/></svg>