<svg xmlns="http://www.w3.org/2000/svg" xmlns:xlink="http://www.w3.org/1999/xlink" width="1024" zoomAndPan="magnify" viewBox="0 0 768 767.999994" height="1024" preserveAspectRatio="xMidYMid meet" version="1.0"><defs><clipPath id="48ece7d024"><path d="M 44 0 L 724.234375 0 L 724.234375 764 L 44 764 Z M 44 0 " clip-rule="nonzero"/></clipPath></defs><path fill="#636c77" d="M 691.660156 394.257812 C 626.851562 394.257812 594.308594 472.753906 640.148438 518.574219 C 648.582031 527.003906 648.582031 540.722656 640.148438 549.15625 L 593.609375 595.671875 C 585.171875 604.105469 571.449219 604.105469 563.011719 595.671875 C 517.171875 549.855469 438.636719 582.378906 438.636719 647.160156 C 438.636719 659.128906 428.957031 668.765625 417.023438 668.765625 L 351.199219 668.765625 C 339.265625 668.765625 329.582031 659.128906 329.582031 647.160156 C 329.582031 582.304688 251.085938 549.816406 205.207031 595.671875 C 196.773438 604.105469 183.085938 604.105469 174.648438 595.671875 L 128.074219 549.15625 C 119.636719 540.722656 119.636719 527.003906 128.074219 518.574219 C 173.914062 472.753906 141.410156 394.257812 76.558594 394.257812 C 64.625 394.257812 54.941406 384.582031 54.941406 372.652344 L 54.941406 306.863281 C 54.941406 294.933594 64.625 285.253906 76.558594 285.253906 C 141.410156 285.253906 173.914062 206.757812 128.074219 160.941406 C 119.636719 152.511719 119.636719 138.832031 128.074219 130.398438 L 174.648438 83.84375 C 183.085938 75.410156 196.773438 75.410156 205.207031 83.84375 C 251.046875 129.660156 329.582031 97.171875 329.582031 32.355469 C 329.582031 20.421875 339.265625 10.746094 351.199219 10.746094 L 417.023438 10.746094 C 428.957031 10.746094 438.636719 20.421875 438.636719 32.355469 C 438.636719 97.171875 517.171875 129.660156 563.011719 83.84375 C 571.449219 75.410156 585.171875 75.410156 593.609375 83.84375 L 640.148438 130.398438 C 648.582031 138.832031 648.582031 152.511719 640.148438 160.941406 C 594.308594 206.757812 626.851562 285.253906 691.660156 285.253906 C 703.636719 285.253906 713.277344 294.933594 713.277344 306.863281 L 713.277344 372.652344 C 713.277344 384.582031 703.636719 394.257812 691.660156 394.257812 Z M 691.660156 394.257812 " fill-opacity="1" fill-rule="evenodd"/><path fill="#f4f6f8" d="M 384.148438 497.839844 C 471.25 497.839844 542.285156 426.835938 542.285156 339.777344 C 542.285156 252.71875 471.25 181.714844 384.148438 181.714844 C 297.046875 181.714844 225.976562 252.71875 225.976562 339.777344 C 225.976562 426.835938 297.046875 497.839844 384.148438 497.839844 Z M 384.148438 497.839844 " fill-opacity="1" fill-rule="evenodd"/><path fill="#fdcd56" d="M 384.628906 311.242188 C 384.296875 312.75 384.667969 314.328125 385.636719 315.535156 C 386.605469 316.738281 388.066406 317.4375 389.613281 317.4375 C 413.828125 317.4375 426.363281 317.4375 449.601562 317.4375 C 451.484375 317.4375 453.210938 318.472656 454.101562 320.128906 C 454.988281 321.789062 454.890625 323.800781 453.847656 325.363281 C 439.617188 346.726562 400.058594 406.09375 378.152344 438.96875 C 376.789062 441.011719 374.167969 441.796875 371.90625 440.835938 C 369.648438 439.875 368.394531 437.441406 368.921875 435.046875 C 373.921875 412.351562 380.753906 381.363281 383.628906 368.3125 C 383.960938 366.800781 383.59375 365.226562 382.625 364.019531 C 381.65625 362.816406 380.191406 362.117188 378.648438 362.117188 C 354.433594 362.117188 341.902344 362.117188 318.691406 362.117188 C 316.808594 362.117188 315.082031 361.082031 314.195312 359.425781 C 313.304688 357.765625 313.402344 355.753906 314.445312 354.191406 C 328.671875 332.832031 368.203125 273.476562 390.105469 240.597656 C 391.464844 238.554688 394.089844 237.769531 396.347656 238.730469 C 398.609375 239.691406 399.863281 242.121094 399.335938 244.519531 C 394.335938 267.214844 387.507812 298.191406 384.628906 311.242188 Z M 384.628906 311.242188 " fill-opacity="1" fill-rule="evenodd"/><path fill="#e4e8eb" d="M 277.257812 467.347656 C 281.054688 467.050781 284.066406 464.039062 284.363281 460.246094 C 285.113281 450.652344 286.480469 433.167969 287.066406 425.6875 C 287.242188 423.4375 286.425781 421.222656 284.824219 419.621094 C 279.855469 414.65625 268.535156 403.339844 260.019531 394.828125 C 257.847656 392.65625 257.164062 389.410156 258.285156 386.550781 C 259.402344 383.691406 262.109375 381.765625 265.179688 381.644531 C 284.148438 380.816406 303.398438 387.601562 317.867188 402.066406 C 337.292969 421.480469 342.871094 449.511719 334.636719 473.867188 C 333.664062 476.65625 334.375 479.753906 336.464844 481.84375 C 380.71875 526.117188 425.035156 570.410156 469.308594 614.664062 C 471.40625 616.757812 474.515625 617.472656 477.316406 616.5 C 501.707031 608.242188 529.71875 613.816406 549.1875 633.273438 C 563.660156 647.738281 570.449219 666.980469 569.554688 685.925781 C 569.429688 688.972656 567.511719 691.660156 564.667969 692.769531 C 561.828125 693.878906 558.597656 693.199219 556.4375 691.042969 C 547.890625 682.5625 536.554688 671.234375 531.582031 666.261719 C 529.980469 664.660156 527.761719 663.84375 525.503906 664.023438 C 518.023438 664.613281 500.546875 665.996094 490.964844 666.753906 C 487.175781 667.054688 484.167969 670.0625 483.867188 673.847656 C 483.109375 683.425781 481.726562 700.894531 481.132812 708.371094 C 480.953125 710.628906 481.773438 712.847656 483.375 714.445312 C 488.347656 719.417969 499.683594 730.75 508.199219 739.257812 C 510.371094 741.429688 511.050781 744.675781 509.933594 747.535156 C 508.816406 750.394531 506.117188 752.320312 503.046875 752.445312 C 484.09375 753.292969 464.839844 746.507812 450.371094 732.042969 C 430.902344 712.585938 425.324219 684.585938 433.5625 660.195312 C 434.53125 657.40625 433.820312 654.3125 431.734375 652.222656 C 387.476562 607.949219 343.164062 563.65625 298.886719 519.402344 C 296.792969 517.308594 293.679688 516.59375 290.878906 517.570312 C 266.519531 525.824219 238.476562 520.25 219.050781 500.835938 C 204.582031 486.371094 197.792969 467.132812 198.664062 448.171875 C 198.785156 445.125 200.699219 442.433594 203.542969 441.320312 C 206.386719 440.210938 209.621094 440.886719 211.78125 443.042969 C 220.324219 451.523438 231.648438 462.84375 236.617188 467.808594 C 238.214844 469.40625 240.433594 470.222656 242.6875 470.046875 C 250.171875 469.464844 267.664062 468.097656 277.257812 467.347656 Z M 277.257812 467.347656 " fill-opacity="1" fill-rule="evenodd"/><path fill="#cad0d7" d="M 492.632812 476.308594 C 493.890625 475.050781 495.542969 474.265625 497.3125 474.085938 C 502.113281 473.597656 512.042969 472.585938 517.386719 472.039062 C 519.660156 471.808594 521.71875 470.578125 523 468.683594 C 528.484375 460.597656 543.683594 438.175781 550.65625 427.886719 C 552.734375 424.820312 552.34375 420.710938 549.722656 418.089844 C 545.058594 413.429688 537.820312 406.191406 533.152344 401.53125 C 530.535156 398.910156 526.421875 398.519531 523.351562 400.597656 C 513.058594 407.566406 490.628906 422.757812 482.535156 428.238281 C 480.640625 429.523438 479.414062 431.574219 479.179688 433.851562 C 478.632812 439.183594 477.621094 449.082031 477.132812 453.871094 C 476.949219 455.640625 476.164062 457.292969 474.90625 458.550781 C 455.792969 477.65625 302.164062 631.210938 302.164062 631.210938 L 319.890625 648.96875 C 319.890625 648.96875 473.515625 495.417969 492.632812 476.308594 Z M 492.632812 476.308594 " fill-opacity="1" fill-rule="evenodd"/><path fill="#a9b0bb" d="M 395.429688 592.628906 C 396.878906 594.078125 397.695312 596.042969 397.695312 598.089844 C 397.695312 600.140625 396.878906 602.105469 395.429688 603.554688 C 370.847656 628.125 271.722656 727.203125 271.722656 727.203125 C 258.542969 740.375 237.03125 740.375 223.851562 727.203125 C 210.675781 714.074219 210.675781 692.527344 223.851562 679.394531 C 223.851562 679.394531 322.976562 580.285156 347.558594 555.707031 C 349.007812 554.257812 350.976562 553.445312 353.027344 553.445312 C 355.078125 553.445312 357.042969 554.257812 358.492188 555.707031 C 367.707031 564.914062 386.21875 583.417969 395.429688 592.628906 Z M 395.429688 592.628906 " fill-opacity="1" fill-rule="evenodd"/><g clip-path="url(#48ece7d024)"><path fill="#000000" d="M 291.90625 596.054688 C 268.925781 580.492188 236.019531 580.183594 212.863281 603.328125 C 200.199219 615.980469 179.660156 615.980469 167.003906 603.328125 L 120.421875 556.8125 C 107.765625 544.160156 107.765625 523.582031 120.421875 510.929688 C 159.453125 471.917969 131.777344 405.082031 76.558594 405.082031 C 58.648438 405.082031 44.121094 390.5625 44.121094 372.660156 L 44.121094 306.871094 C 44.121094 288.96875 58.648438 274.445312 76.558594 274.445312 C 131.777344 274.445312 159.453125 207.609375 120.421875 168.597656 C 107.757812 155.941406 107.757812 135.410156 120.421875 122.757812 L 167 76.203125 C 179.660156 63.546875 200.199219 63.546875 212.863281 76.203125 C 251.890625 115.210938 318.761719 87.550781 318.761719 32.359375 C 318.761719 14.460938 333.289062 -0.0625 351.199219 -0.0625 L 417.023438 -0.0625 C 434.933594 -0.0625 449.460938 14.460938 449.460938 32.359375 C 449.460938 87.550781 516.332031 115.210938 555.359375 76.203125 C 568.015625 63.550781 588.605469 63.550781 601.261719 76.203125 L 647.796875 122.757812 C 660.460938 135.410156 660.460938 155.941406 647.796875 168.597656 C 608.769531 207.609375 636.476562 274.445312 691.660156 274.445312 C 709.632812 274.445312 724.101562 288.96875 724.101562 306.871094 L 724.101562 372.660156 C 724.101562 390.5625 709.632812 405.082031 691.660156 405.082031 C 636.476562 405.082031 608.769531 471.917969 647.796875 510.929688 C 660.457031 523.582031 660.457031 544.160156 647.796875 556.8125 L 601.261719 603.328125 C 588.605469 615.976562 568.015625 615.976562 555.359375 603.328125 C 530.183594 578.164062 493.4375 580.765625 470.492188 600.558594 C 473.65625 603.71875 475.597656 605.660156 475.597656 605.660156 C 503.351562 597 534.828125 603.632812 556.839844 625.632812 C 578.234375 647.015625 585.09375 677.4375 577.410156 704.605469 C 576.363281 708.300781 573.441406 711.164062 569.726562 712.132812 C 566.007812 713.097656 562.058594 712.027344 559.34375 709.3125 L 524.9375 674.925781 C 524.9375 674.925781 494.449219 677.335938 494.449219 677.335938 L 492.035156 707.8125 L 526.441406 742.203125 C 529.152344 744.914062 530.226562 748.863281 529.257812 752.578125 C 528.289062 756.292969 525.425781 759.214844 521.730469 760.257812 C 494.550781 767.9375 464.113281 761.082031 442.714844 739.699219 C 426.140625 723.128906 418.285156 701.195312 419.117188 679.523438 C 418.425781 679.570312 417.726562 679.589844 417.023438 679.589844 L 351.199219 679.589844 C 346.355469 679.589844 341.757812 678.53125 337.628906 676.632812 L 279.375 734.859375 C 261.984375 752.238281 233.597656 752.242188 216.207031 734.863281 C 198.808594 717.523438 198.8125 689.078125 216.199219 671.753906 Z M 455.164062 585.234375 C 485.980469 557.652344 536.320312 553.699219 570.664062 588.03125 C 574.878906 592.242188 581.742188 592.242188 585.957031 588.03125 L 632.496094 541.515625 C 636.710938 537.296875 636.710938 530.441406 632.496094 526.226562 C 579.847656 473.605469 617.222656 383.449219 691.660156 383.449219 C 697.640625 383.449219 702.457031 378.617188 702.457031 372.660156 L 702.457031 306.871094 C 702.457031 300.914062 697.640625 296.082031 691.660156 296.082031 C 617.222656 296.082031 579.847656 205.921875 632.496094 153.300781 C 636.707031 149.089844 636.707031 142.265625 632.496094 138.054688 L 585.957031 91.5 C 581.738281 87.285156 574.878906 87.285156 570.664062 91.5 C 518.015625 144.121094 427.816406 106.808594 427.816406 32.359375 C 427.816406 26.402344 422.980469 21.570312 417.023438 21.570312 L 351.199219 21.570312 C 345.238281 21.570312 340.40625 26.402344 340.40625 32.359375 C 340.40625 106.808594 250.203125 144.121094 197.558594 91.5 C 193.347656 87.289062 186.515625 87.289062 182.304688 91.5 L 135.726562 138.054688 C 131.515625 142.265625 131.515625 149.089844 135.726562 153.300781 C 188.371094 205.921875 151.042969 296.082031 76.558594 296.082031 C 70.597656 296.082031 65.765625 300.914062 65.765625 306.871094 L 65.765625 372.660156 C 65.765625 378.617188 70.597656 383.449219 76.558594 383.449219 C 151.042969 383.449219 188.371094 473.605469 135.726562 526.226562 C 131.511719 530.441406 131.511719 537.296875 135.726562 541.515625 L 182.304688 588.03125 C 186.515625 592.238281 193.347656 592.238281 197.558594 588.03125 C 229.902344 555.699219 276.375 557.261719 307.414062 580.550781 L 326.082031 561.886719 C 314.183594 549.996094 292.597656 528.421875 292.597656 528.421875 C 264.875 537.078125 233.363281 530.445312 211.398438 508.492188 C 190.011719 487.113281 183.148438 456.703125 190.78125 429.496094 C 191.816406 425.796875 194.742188 422.921875 198.457031 421.953125 C 202.179688 420.976562 206.136719 422.050781 208.851562 424.765625 L 243.261719 459.160156 L 263.25 457.601562 C 233.511719 427.132812 215.152344 385.53125 215.152344 339.785156 C 215.152344 246.765625 291.085938 170.90625 384.148438 170.90625 C 477.210938 170.90625 553.105469 246.765625 553.105469 339.785156 C 553.105469 359.625 549.652344 378.6875 543.316406 396.398438 L 561.890625 414.960938 C 565.558594 418.628906 566.109375 424.382812 563.199219 428.675781 L 529.933594 477.746094 C 528.140625 480.398438 525.261719 482.117188 522.074219 482.441406 L 499.507812 484.742188 L 427.066406 557.152344 C 434.269531 564.351562 445.386719 575.460938 455.164062 585.234375 Z M 443.417969 664.882812 C 437.042969 685.207031 441.886719 708.273438 458.019531 724.398438 C 468.363281 734.738281 481.59375 740.433594 495.117188 741.488281 L 473.199219 719.582031 C 470.960938 717.34375 469.8125 714.234375 470.0625 711.078125 L 473.601562 666.429688 C 474.019531 661.128906 478.230469 656.917969 483.535156 656.5 L 528.207031 652.964844 C 531.363281 652.714844 534.472656 653.859375 536.710938 656.097656 C 536.710938 656.097656 558.628906 678.007812 558.628906 678.007812 C 557.574219 664.488281 551.875 651.265625 541.535156 640.925781 C 524.058594 623.460938 498.429688 619.230469 476.96875 628.15625 C 472.921875 629.839844 468.257812 628.917969 465.15625 625.820312 L 447.679688 608.351562 C 447.628906 608.300781 447.574219 608.25 447.523438 608.195312 L 411.757812 572.449219 L 401.152344 583.050781 L 408.550781 590.449219 C 412.773438 594.671875 412.773438 601.523438 408.550781 605.746094 L 404.558594 609.734375 L 442.90625 648.058594 C 446.007812 651.160156 446.929688 655.820312 445.246094 659.867188 C 444.5625 661.511719 443.953125 663.179688 443.425781 664.863281 C 443.421875 664.871094 443.421875 664.875 443.417969 664.882812 Z M 356.3125 657.957031 L 417.023438 657.957031 C 418.546875 657.957031 420 657.644531 421.3125 657.074219 L 389.253906 625.03125 Z M 353.027344 565.546875 L 231.503906 687.050781 L 231.492188 687.0625 C 222.535156 695.984375 222.535156 710.628906 231.492188 719.546875 L 231.503906 719.558594 C 240.46875 728.519531 255.105469 728.519531 264.070312 719.558594 C 264.070312 719.558594 328.570312 655.089844 328.585938 655.078125 L 385.59375 598.097656 Z M 341.386719 546.589844 L 345.371094 542.601562 C 347.402344 540.574219 350.152344 539.433594 353.023438 539.433594 C 355.894531 539.433594 358.648438 540.570312 360.675781 542.601562 L 368.097656 550.019531 L 378.707031 539.414062 L 325.289062 486.019531 C 322.1875 482.917969 321.265625 478.253906 322.953125 474.207031 C 331.882812 452.796875 327.652344 427.148438 310.21875 409.722656 C 299.875 399.382812 286.640625 393.6875 273.109375 392.621094 L 294.996094 414.5 C 297.234375 416.734375 298.378906 419.835938 298.132812 422.988281 L 294.636719 467.683594 C 294.222656 472.992188 290.003906 477.210938 284.691406 477.625 L 239.980469 481.117188 C 236.824219 481.363281 233.71875 480.21875 231.484375 477.980469 C 231.484375 477.980469 209.597656 456.105469 209.597656 456.101562 C 210.664062 469.632812 216.363281 482.855469 226.703125 493.195312 C 244.140625 510.621094 269.796875 514.851562 291.222656 505.925781 C 295.269531 504.238281 299.9375 505.160156 303.039062 508.261719 Z M 383.402344 565.3125 L 385.84375 567.753906 L 486.925781 466.722656 C 488.6875 464.964844 491 463.863281 493.476562 463.613281 C 493.476562 463.613281 514.851562 461.433594 514.851562 461.433594 L 540.265625 423.941406 L 527.308594 410.992188 L 489.800781 436.390625 L 487.617188 457.714844 C 487.363281 460.191406 486.265625 462.503906 484.503906 464.261719 Z M 275.191406 438.722656 L 276.167969 426.273438 L 249.597656 399.71875 C 256.042969 414.074219 264.722656 427.226562 275.191406 438.722656 Z M 241.53125 376.8125 C 242.859375 375.40625 244.5625 374.355469 246.488281 373.816406 C 273.707031 366.1875 304.132812 373.046875 325.519531 394.425781 C 347.488281 416.378906 354.121094 447.875 345.460938 475.585938 L 353.746094 483.867188 C 363.5625 485.941406 373.730469 487.03125 384.148438 487.03125 C 405.339844 487.03125 425.511719 482.515625 443.75 474.402344 L 466.476562 451.6875 L 468.78125 429.167969 C 469.105469 425.984375 470.828125 423.109375 473.476562 421.3125 L 522.566406 388.070312 C 522.871094 387.863281 523.183594 387.671875 523.503906 387.5 C 528.660156 372.527344 531.460938 356.472656 531.460938 339.785156 C 531.460938 258.683594 465.289062 192.539062 384.148438 192.539062 C 303.007812 192.539062 236.796875 258.679688 236.796875 339.785156 C 236.796875 352.566406 238.441406 364.972656 241.53125 376.8125 Z M 378.457031 508.566406 L 394.011719 524.117188 L 411.730469 506.40625 C 402.75 507.890625 393.535156 508.664062 384.148438 508.664062 C 382.246094 508.664062 380.347656 508.628906 378.457031 508.566406 Z M 396.730469 306.628906 L 459.128906 306.628906 C 463.121094 306.628906 466.785156 308.824219 468.671875 312.339844 C 470.554688 315.855469 470.351562 320.121094 468.136719 323.441406 L 372.078125 467.605469 C 369.191406 471.941406 363.625 473.601562 358.832031 471.566406 C 354.042969 469.527344 351.382812 464.367188 352.5 459.285156 L 371.527344 372.9375 L 309.164062 372.9375 C 305.175781 372.9375 301.507812 370.746094 299.625 367.230469 C 297.742188 363.714844 297.945312 359.445312 300.15625 356.128906 L 396.183594 211.960938 C 399.066406 207.628906 404.632812 205.964844 409.425781 208.003906 C 414.21875 210.039062 416.878906 215.199219 415.757812 220.28125 Z M 372.695312 315.121094 L 382.199219 271.988281 L 329.371094 351.304688 L 384.996094 351.304688 C 388.273438 351.304688 391.375 352.792969 393.429688 355.347656 C 395.484375 357.898438 396.269531 361.25 395.5625 364.449219 L 386.054688 407.605469 L 438.917969 328.261719 L 383.265625 328.261719 C 379.984375 328.261719 376.882812 326.777344 374.828125 324.222656 C 372.773438 321.667969 371.992188 318.320312 372.695312 315.121094 Z M 372.695312 315.121094 " fill-opacity="1" fill-rule="evenodd"/></g></svg>