<svg xmlns="http://www.w3.org/2000/svg" xmlns:xlink="http://www.w3.org/1999/xlink" width="1024" zoomAndPan="magnify" viewBox="0 0 768 767.999994" height="1024" preserveAspectRatio="xMidYMid meet" version="1.0"><path fill="#43b3ff" d="M 382.796875 142.042969 C 378.855469 142.042969 374.917969 142.140625 370.984375 142.332031 C 367.046875 142.527344 363.121094 142.816406 359.199219 143.203125 C 355.277344 143.589844 351.367188 144.070312 347.46875 144.648438 C 343.574219 145.226562 339.691406 145.902344 335.828125 146.667969 C 331.964844 147.4375 328.121094 148.300781 324.296875 149.257812 C 320.476562 150.214844 316.679688 151.265625 312.910156 152.410156 C 309.140625 153.554688 305.398438 154.789062 301.6875 156.117188 C 297.980469 157.445312 294.304688 158.863281 290.664062 160.371094 C 287.023438 161.878906 283.421875 163.472656 279.863281 165.160156 C 276.300781 166.84375 272.78125 168.613281 269.304688 170.472656 C 265.832031 172.328125 262.40625 174.269531 259.023438 176.296875 C 255.644531 178.320312 252.316406 180.429688 249.042969 182.617188 C 245.765625 184.808594 242.546875 187.074219 239.378906 189.421875 C 236.214844 191.769531 233.109375 194.191406 230.066406 196.691406 C 227.019531 199.191406 224.035156 201.765625 221.117188 204.410156 C 218.199219 207.054688 215.34375 209.773438 212.558594 212.558594 C 209.773438 215.34375 207.054688 218.199219 204.410156 221.117188 C 201.765625 224.035156 199.191406 227.019531 196.691406 230.066406 C 194.191406 233.109375 191.769531 236.214844 189.421875 239.378906 C 187.074219 242.546875 184.808594 245.765625 182.617188 249.042969 C 180.429688 252.316406 178.320312 255.644531 176.296875 259.023438 C 174.269531 262.40625 172.328125 265.832031 170.472656 269.304688 C 168.613281 272.78125 166.84375 276.300781 165.160156 279.863281 C 163.472656 283.421875 161.878906 287.023438 160.371094 290.664062 C 158.863281 294.304688 157.445312 297.980469 156.117188 301.6875 C 154.789062 305.398438 153.554688 309.140625 152.410156 312.910156 C 151.265625 316.679688 150.214844 320.476562 149.257812 324.296875 C 148.300781 328.121094 147.4375 331.964844 146.667969 335.828125 C 145.902344 339.691406 145.226562 343.574219 144.648438 347.46875 C 144.070312 351.367188 143.589844 355.277344 143.203125 359.199219 C 142.816406 363.121094 142.527344 367.046875 142.332031 370.984375 C 142.140625 374.917969 142.042969 378.855469 142.042969 382.796875 C 142.042969 386.734375 142.140625 390.675781 142.332031 394.609375 C 142.527344 398.542969 142.816406 402.472656 143.203125 406.394531 C 143.589844 410.316406 144.070312 414.222656 144.648438 418.121094 C 145.226562 422.019531 145.902344 425.898438 146.667969 429.765625 C 147.4375 433.628906 148.300781 437.472656 149.257812 441.292969 C 150.214844 445.117188 151.265625 448.914062 152.410156 452.683594 C 153.554688 456.453125 154.789062 460.195312 156.117188 463.902344 C 157.445312 467.613281 158.863281 471.289062 160.371094 474.929688 C 161.878906 478.566406 163.472656 482.167969 165.160156 485.730469 C 166.84375 489.292969 168.613281 492.8125 170.472656 496.285156 C 172.328125 499.761719 174.269531 503.1875 176.296875 506.566406 C 178.320312 509.945312 180.429688 513.273438 182.617188 516.550781 C 184.808594 519.828125 187.074219 523.046875 189.421875 526.210938 C 191.769531 529.375 194.191406 532.480469 196.691406 535.527344 C 199.191406 538.574219 201.765625 541.554688 204.410156 544.476562 C 207.054688 547.394531 209.773438 550.246094 212.558594 553.035156 C 215.34375 555.820312 218.199219 558.535156 221.117188 561.183594 C 224.035156 563.828125 227.019531 566.402344 230.066406 568.898438 C 233.109375 571.398438 236.214844 573.824219 239.378906 576.171875 C 242.546875 578.515625 245.765625 580.785156 249.042969 582.972656 C 252.316406 585.164062 255.644531 587.269531 259.023438 589.296875 C 262.40625 591.320312 265.832031 593.261719 269.304688 595.121094 C 272.78125 596.976562 276.300781 598.75 279.859375 600.433594 C 283.421875 602.117188 287.023438 603.714844 290.664062 605.222656 C 294.304688 606.730469 297.980469 608.148438 301.6875 609.476562 C 305.398438 610.800781 309.140625 612.039062 312.910156 613.183594 C 316.679688 614.324219 320.476562 615.375 324.296875 616.332031 C 328.121094 617.289062 331.964844 618.152344 335.828125 618.921875 C 339.691406 619.691406 343.574219 620.363281 347.46875 620.941406 C 351.367188 621.519531 355.277344 622.003906 359.199219 622.390625 C 363.121094 622.777344 367.046875 623.066406 370.984375 623.257812 C 374.917969 623.453125 378.855469 623.546875 382.796875 623.546875 C 386.734375 623.546875 390.675781 623.453125 394.609375 623.257812 C 398.542969 623.066406 402.472656 622.777344 406.394531 622.390625 C 410.316406 622.003906 414.222656 621.519531 418.121094 620.941406 C 422.019531 620.363281 425.898438 619.691406 429.765625 618.921875 C 433.628906 618.152344 437.472656 617.289062 441.292969 616.332031 C 445.117188 615.375 448.914062 614.324219 452.683594 613.183594 C 456.453125 612.039062 460.195312 610.800781 463.902344 609.476562 C 467.613281 608.148438 471.289062 606.730469 474.929688 605.222656 C 478.566406 603.714844 482.167969 602.117188 485.730469 600.433594 C 489.292969 598.75 492.8125 596.976562 496.285156 595.121094 C 499.761719 593.261719 503.1875 591.320312 506.566406 589.296875 C 509.945312 587.269531 513.273438 585.164062 516.550781 582.972656 C 519.828125 580.785156 523.046875 578.515625 526.210938 576.171875 C 529.375 573.824219 532.480469 571.398438 535.527344 568.898438 C 538.574219 566.402344 541.554688 563.828125 544.476562 561.183594 C 547.394531 558.535156 550.246094 555.820312 553.035156 553.035156 C 555.820312 550.246094 558.535156 547.394531 561.183594 544.476562 C 563.828125 541.554688 566.402344 538.574219 568.898438 535.527344 C 571.398438 532.480469 573.824219 529.375 576.171875 526.210938 C 578.515625 523.046875 580.785156 519.828125 582.972656 516.550781 C 585.164062 513.273438 587.269531 509.945312 589.296875 506.566406 C 591.320312 503.1875 593.261719 499.761719 595.121094 496.285156 C 596.976562 492.8125 598.75 489.292969 600.433594 485.730469 C 602.117188 482.167969 603.714844 478.566406 605.222656 474.929688 C 606.730469 471.289062 608.148438 467.613281 609.476562 463.902344 C 610.800781 460.195312 612.039062 456.453125 613.183594 452.683594 C 614.324219 448.914062 615.375 445.117188 616.332031 441.292969 C 617.289062 437.472656 618.152344 433.628906 618.921875 429.765625 C 619.691406 425.898438 620.363281 422.019531 620.941406 418.121094 C 621.519531 414.222656 622.003906 410.316406 622.390625 406.394531 C 622.777344 402.472656 623.066406 398.542969 623.257812 394.609375 C 623.453125 390.675781 623.546875 386.734375 623.546875 382.796875 C 623.546875 378.855469 623.449219 374.917969 623.253906 370.984375 C 623.058594 367.050781 622.769531 363.121094 622.382812 359.199219 C 621.992188 355.28125 621.511719 351.371094 620.929688 347.476562 C 620.351562 343.578125 619.679688 339.699219 618.910156 335.832031 C 618.136719 331.96875 617.273438 328.128906 616.316406 324.304688 C 615.359375 320.484375 614.308594 316.6875 613.164062 312.917969 C 612.019531 309.148438 610.78125 305.410156 609.453125 301.699219 C 608.125 297.992188 606.707031 294.316406 605.199219 290.679688 C 603.691406 287.039062 602.09375 283.4375 600.410156 279.875 C 598.722656 276.316406 596.953125 272.796875 595.09375 269.324219 C 593.238281 265.847656 591.296875 262.421875 589.269531 259.042969 C 587.246094 255.664062 585.136719 252.335938 582.949219 249.0625 C 580.757812 245.785156 578.492188 242.566406 576.144531 239.402344 C 573.796875 236.238281 571.375 233.132812 568.875 230.089844 C 566.375 227.042969 563.800781 224.058594 561.15625 221.140625 C 558.511719 218.222656 555.792969 215.371094 553.007812 212.585938 C 550.222656 209.796875 547.371094 207.082031 544.449219 204.4375 C 541.53125 201.789062 538.550781 199.21875 535.503906 196.71875 C 532.460938 194.21875 529.355469 191.796875 526.191406 189.449219 C 523.027344 187.101562 519.804688 184.832031 516.53125 182.644531 C 513.253906 180.457031 509.925781 178.347656 506.546875 176.324219 C 503.167969 174.296875 499.742188 172.355469 496.269531 170.496094 C 492.792969 168.640625 489.277344 166.867188 485.714844 165.183594 C 482.15625 163.5 478.554688 161.902344 474.914062 160.394531 C 471.273438 158.886719 467.601562 157.46875 463.890625 156.140625 C 460.183594 154.8125 456.441406 153.574219 452.671875 152.429688 C 448.902344 151.285156 445.109375 150.234375 441.285156 149.277344 C 437.464844 148.316406 433.621094 147.453125 429.757812 146.683594 C 425.894531 145.914062 422.015625 145.242188 418.117188 144.660156 C 414.222656 144.082031 410.3125 143.597656 406.390625 143.210938 C 402.472656 142.824219 398.542969 142.53125 394.609375 142.339844 C 390.671875 142.144531 386.734375 142.046875 382.796875 142.042969 Z M 382.796875 527.246094 C 380.433594 527.246094 378.070312 527.191406 375.707031 527.074219 C 373.347656 526.957031 370.988281 526.785156 368.636719 526.550781 C 366.285156 526.320312 363.9375 526.03125 361.601562 525.683594 C 359.261719 525.335938 356.933594 524.933594 354.613281 524.472656 C 352.296875 524.011719 349.992188 523.492188 347.699219 522.917969 C 345.402344 522.34375 343.125 521.714844 340.863281 521.027344 C 338.601562 520.339844 336.359375 519.601562 334.132812 518.804688 C 331.90625 518.007812 329.699219 517.15625 327.515625 516.25 C 325.332031 515.347656 323.171875 514.390625 321.035156 513.378906 C 318.898438 512.367188 316.789062 511.304688 314.703125 510.191406 C 312.617188 509.078125 310.5625 507.910156 308.535156 506.695312 C 306.503906 505.480469 304.507812 504.214844 302.542969 502.902344 C 300.578125 501.589844 298.644531 500.230469 296.746094 498.820312 C 294.847656 497.414062 292.984375 495.957031 291.15625 494.457031 C 289.328125 492.957031 287.539062 491.414062 285.789062 489.828125 C 284.035156 488.238281 282.324219 486.609375 280.652344 484.9375 C 278.980469 483.265625 277.351562 481.554688 275.765625 479.804688 C 274.175781 478.050781 272.632812 476.261719 271.132812 474.433594 C 269.632812 472.609375 268.179688 470.746094 266.773438 468.847656 C 265.363281 466.945312 264.003906 465.015625 262.6875 463.050781 C 261.375 461.082031 260.113281 459.085938 258.894531 457.058594 C 257.679688 455.03125 256.515625 452.976562 255.402344 450.890625 C 254.285156 448.804688 253.222656 446.695312 252.214844 444.558594 C 251.203125 442.421875 250.246094 440.257812 249.339844 438.074219 C 248.4375 435.890625 247.585938 433.6875 246.789062 431.460938 C 245.992188 429.234375 245.25 426.992188 244.566406 424.726562 C 243.878906 422.464844 243.25 420.1875 242.675781 417.894531 C 242.097656 415.601562 241.582031 413.296875 241.121094 410.976562 C 240.660156 408.660156 240.253906 406.332031 239.910156 403.992188 C 239.5625 401.652344 239.273438 399.308594 239.039062 396.953125 C 238.808594 394.601562 238.636719 392.246094 238.519531 389.882812 C 238.402344 387.523438 238.34375 385.160156 238.34375 382.796875 C 238.34375 380.433594 238.402344 378.070312 238.519531 375.707031 C 238.636719 373.347656 238.808594 370.988281 239.039062 368.636719 C 239.273438 366.285156 239.5625 363.9375 239.910156 361.601562 C 240.253906 359.261719 240.660156 356.933594 241.121094 354.613281 C 241.582031 352.296875 242.097656 349.992188 242.675781 347.699219 C 243.25 345.402344 243.878906 343.125 244.566406 340.863281 C 245.25 338.601562 245.992188 336.359375 246.789062 334.132812 C 247.585938 331.90625 248.4375 329.699219 249.339844 327.515625 C 250.246094 325.332031 251.203125 323.171875 252.214844 321.035156 C 253.222656 318.898438 254.285156 316.789062 255.402344 314.703125 C 256.515625 312.617188 257.679688 310.5625 258.894531 308.535156 C 260.113281 306.503906 261.375 304.507812 262.6875 302.542969 C 264.003906 300.578125 265.363281 298.644531 266.773438 296.746094 C 268.179688 294.847656 269.632812 292.984375 271.132812 291.15625 C 272.632812 289.328125 274.175781 287.539062 275.765625 285.789062 C 277.351562 284.035156 278.980469 282.324219 280.652344 280.652344 C 282.324219 278.980469 284.035156 277.351562 285.789062 275.765625 C 287.539062 274.175781 289.328125 272.632812 291.15625 271.132812 C 292.984375 269.632812 294.847656 268.179688 296.746094 266.773438 C 298.644531 265.363281 300.578125 264.003906 302.542969 262.6875 C 304.507812 261.375 306.503906 260.113281 308.535156 258.894531 C 310.5625 257.679688 312.617188 256.515625 314.703125 255.402344 C 316.789062 254.285156 318.898438 253.222656 321.035156 252.214844 C 323.171875 251.203125 325.332031 250.246094 327.515625 249.339844 C 329.699219 248.4375 331.90625 247.585938 334.132812 246.789062 C 336.359375 245.992188 338.601562 245.25 340.863281 244.566406 C 343.125 243.878906 345.402344 243.25 347.699219 242.675781 C 349.992188 242.097656 352.296875 241.582031 354.613281 241.121094 C 356.933594 240.660156 359.261719 240.253906 361.601562 239.910156 C 363.9375 239.5625 366.285156 239.273438 368.636719 239.039062 C 370.988281 238.808594 373.347656 238.636719 375.707031 238.519531 C 378.070312 238.402344 380.433594 238.34375 382.796875 238.34375 C 385.160156 238.34375 387.523438 238.402344 389.882812 238.519531 C 392.246094 238.636719 394.601562 238.808594 396.953125 239.039062 C 399.308594 239.273438 401.652344 239.5625 403.992188 239.910156 C 406.332031 240.253906 408.660156 240.660156 410.976562 241.121094 C 413.296875 241.582031 415.601562 242.097656 417.894531 242.675781 C 420.1875 243.25 422.464844 243.878906 424.726562 244.566406 C 426.992188 245.25 429.234375 245.992188 431.460938 246.789062 C 433.6875 247.585938 435.890625 248.4375 438.074219 249.339844 C 440.257812 250.246094 442.421875 251.203125 444.558594 252.214844 C 446.695312 253.222656 448.804688 254.285156 450.890625 255.402344 C 452.976562 256.515625 455.03125 257.679688 457.058594 258.894531 C 459.085938 260.113281 461.082031 261.375 463.050781 262.6875 C 465.015625 264.003906 466.945312 265.363281 468.847656 266.773438 C 470.746094 268.179688 472.609375 269.632812 474.433594 271.132812 C 476.261719 272.632812 478.050781 274.175781 479.804688 275.765625 C 481.554688 277.351562 483.265625 278.980469 484.9375 280.652344 C 486.609375 282.324219 488.238281 284.035156 489.828125 285.789062 C 491.414062 287.539062 492.957031 289.328125 494.457031 291.15625 C 495.957031 292.984375 497.414062 294.847656 498.820312 296.746094 C 500.230469 298.644531 501.589844 300.578125 502.902344 302.542969 C 504.214844 304.507812 505.480469 306.503906 506.695312 308.535156 C 507.910156 310.5625 509.078125 312.617188 510.191406 314.703125 C 511.304688 316.789062 512.367188 318.898438 513.378906 321.035156 C 514.390625 323.171875 515.347656 325.332031 516.25 327.515625 C 517.15625 329.699219 518.007812 331.90625 518.804688 334.132812 C 519.601562 336.359375 520.339844 338.601562 521.027344 340.863281 C 521.714844 343.125 522.34375 345.402344 522.917969 347.699219 C 523.492188 349.992188 524.011719 352.296875 524.472656 354.613281 C 524.933594 356.933594 525.335938 359.261719 525.683594 361.601562 C 526.03125 363.9375 526.320312 366.285156 526.550781 368.636719 C 526.785156 370.988281 526.957031 373.347656 527.074219 375.707031 C 527.191406 378.070312 527.246094 380.433594 527.246094 382.796875 C 527.246094 385.160156 527.1875 387.523438 527.066406 389.882812 C 526.949219 392.242188 526.773438 394.597656 526.542969 396.953125 C 526.308594 399.304688 526.019531 401.648438 525.667969 403.984375 C 525.320312 406.324219 524.914062 408.652344 524.453125 410.96875 C 523.992188 413.289062 523.472656 415.59375 522.894531 417.886719 C 522.320312 420.175781 521.6875 422.453125 521.003906 424.714844 C 520.316406 426.976562 519.574219 429.21875 518.773438 431.445312 C 517.976562 433.671875 517.125 435.875 516.222656 438.058594 C 515.316406 440.242188 514.359375 442.402344 513.347656 444.535156 C 512.335938 446.671875 511.273438 448.785156 510.15625 450.867188 C 509.042969 452.953125 507.878906 455.007812 506.660156 457.035156 C 505.445312 459.0625 504.179688 461.058594 502.867188 463.023438 C 501.554688 464.988281 500.195312 466.917969 498.785156 468.816406 C 497.378906 470.714844 495.921875 472.578125 494.421875 474.40625 C 492.925781 476.230469 491.378906 478.019531 489.792969 479.773438 C 488.207031 481.523438 486.578125 483.234375 484.90625 484.90625 C 483.234375 486.578125 481.523438 488.207031 479.773438 489.792969 C 478.019531 491.378906 476.230469 492.925781 474.40625 494.421875 C 472.578125 495.921875 470.714844 497.378906 468.816406 498.785156 C 466.917969 500.195312 464.988281 501.554688 463.023438 502.867188 C 461.058594 504.179688 459.0625 505.445312 457.035156 506.660156 C 455.007812 507.878906 452.953125 509.042969 450.867188 510.15625 C 448.785156 511.273438 446.671875 512.335938 444.535156 513.347656 C 442.402344 514.359375 440.242188 515.316406 438.058594 516.222656 C 435.875 517.125 433.671875 517.976562 431.445312 518.773438 C 429.21875 519.574219 426.976562 520.316406 424.714844 521.003906 C 422.453125 521.6875 420.175781 522.320312 417.882812 522.894531 C 415.59375 523.472656 413.289062 523.992188 410.96875 524.453125 C 408.652344 524.914062 406.324219 525.320312 403.984375 525.667969 C 401.648438 526.019531 399.304688 526.308594 396.953125 526.542969 C 394.597656 526.773438 392.242188 526.949219 389.882812 527.066406 C 387.523438 527.1875 385.160156 527.246094 382.796875 527.246094 Z M 382.796875 527.246094 " fill-opacity="1" fill-rule="nonzero"/><path fill="#f45151" d="M 527.246094 382.796875 C 527.246094 385.160156 527.191406 387.523438 527.074219 389.882812 C 526.957031 392.246094 526.785156 394.601562 526.550781 396.953125 C 526.320312 399.308594 526.03125 401.652344 525.683594 403.992188 C 525.335938 406.332031 524.933594 408.660156 524.472656 410.976562 C 524.011719 413.296875 523.492188 415.601562 522.917969 417.894531 C 522.34375 420.1875 521.714844 422.464844 521.027344 424.726562 C 520.339844 426.992188 519.601562 429.234375 518.804688 431.460938 C 518.007812 433.6875 517.15625 435.890625 516.25 438.074219 C 515.347656 440.257812 514.390625 442.421875 513.378906 444.558594 C 512.367188 446.695312 511.304688 448.804688 510.191406 450.890625 C 509.078125 452.976562 507.910156 455.03125 506.695312 457.058594 C 505.480469 459.085938 504.214844 461.082031 502.902344 463.050781 C 501.589844 465.015625 500.230469 466.945312 498.820312 468.847656 C 497.414062 470.746094 495.957031 472.609375 494.457031 474.433594 C 492.957031 476.261719 491.414062 478.050781 489.828125 479.804688 C 488.238281 481.554688 486.609375 483.265625 484.9375 484.9375 C 483.265625 486.609375 481.554688 488.238281 479.804688 489.828125 C 478.050781 491.414062 476.261719 492.957031 474.433594 494.457031 C 472.609375 495.957031 470.746094 497.414062 468.847656 498.820312 C 466.945312 500.230469 465.015625 501.589844 463.050781 502.902344 C 461.082031 504.214844 459.085938 505.480469 457.058594 506.695312 C 455.03125 507.910156 452.976562 509.078125 450.890625 510.191406 C 448.804688 511.304688 446.695312 512.367188 444.558594 513.378906 C 442.421875 514.390625 440.257812 515.347656 438.074219 516.25 C 435.890625 517.15625 433.6875 518.007812 431.460938 518.804688 C 429.234375 519.601562 426.992188 520.339844 424.726562 521.027344 C 422.464844 521.714844 420.1875 522.34375 417.894531 522.917969 C 415.601562 523.492188 413.296875 524.011719 410.976562 524.472656 C 408.660156 524.933594 406.332031 525.335938 403.992188 525.683594 C 401.652344 526.03125 399.308594 526.320312 396.953125 526.550781 C 394.601562 526.785156 392.246094 526.957031 389.882812 527.074219 C 387.523438 527.191406 385.160156 527.246094 382.796875 527.246094 C 380.433594 527.246094 378.070312 527.191406 375.707031 527.074219 C 373.347656 526.957031 370.988281 526.785156 368.636719 526.550781 C 366.285156 526.320312 363.9375 526.03125 361.601562 525.683594 C 359.261719 525.335938 356.933594 524.933594 354.613281 524.472656 C 352.296875 524.011719 349.992188 523.492188 347.699219 522.917969 C 345.402344 522.34375 343.125 521.714844 340.863281 521.027344 C 338.601562 520.339844 336.359375 519.601562 334.132812 518.804688 C 331.90625 518.007812 329.699219 517.15625 327.515625 516.25 C 325.332031 515.347656 323.171875 514.390625 321.035156 513.378906 C 318.898438 512.367188 316.789062 511.304688 314.703125 510.191406 C 312.617188 509.078125 310.5625 507.910156 308.535156 506.695312 C 306.503906 505.480469 304.507812 504.214844 302.542969 502.902344 C 300.578125 501.589844 298.644531 500.230469 296.746094 498.820312 C 294.847656 497.414062 292.984375 495.957031 291.15625 494.457031 C 289.328125 492.957031 287.539062 491.414062 285.789062 489.828125 C 284.035156 488.238281 282.324219 486.609375 280.652344 484.9375 C 278.980469 483.265625 277.351562 481.554688 275.765625 479.804688 C 274.175781 478.050781 272.632812 476.261719 271.132812 474.433594 C 269.632812 472.609375 268.179688 470.746094 266.773438 468.847656 C 265.363281 466.945312 264.003906 465.015625 262.6875 463.050781 C 261.375 461.082031 260.113281 459.085938 258.894531 457.058594 C 257.679688 455.03125 256.515625 452.976562 255.402344 450.890625 C 254.285156 448.804688 253.222656 446.695312 252.214844 444.558594 C 251.203125 442.421875 250.246094 440.257812 249.339844 438.074219 C 248.4375 435.890625 247.585938 433.6875 246.789062 431.460938 C 245.992188 429.234375 245.25 426.992188 244.566406 424.726562 C 243.878906 422.464844 243.25 420.1875 242.675781 417.894531 C 242.097656 415.601562 241.582031 413.296875 241.121094 410.976562 C 240.660156 408.660156 240.253906 406.332031 239.910156 403.992188 C 239.5625 401.652344 239.273438 399.308594 239.039062 396.953125 C 238.808594 394.601562 238.636719 392.246094 238.519531 389.882812 C 238.402344 387.523438 238.34375 385.160156 238.34375 382.796875 C 238.34375 380.433594 238.402344 378.070312 238.519531 375.707031 C 238.636719 373.347656 238.808594 370.988281 239.039062 368.636719 C 239.273438 366.285156 239.5625 363.9375 239.910156 361.601562 C 240.253906 359.261719 240.660156 356.933594 241.121094 354.613281 C 241.582031 352.296875 242.097656 349.992188 242.675781 347.699219 C 243.25 345.402344 243.878906 343.125 244.566406 340.863281 C 245.25 338.601562 245.992188 336.359375 246.789062 334.132812 C 247.585938 331.90625 248.4375 329.699219 249.339844 327.515625 C 250.246094 325.332031 251.203125 323.171875 252.214844 321.035156 C 253.222656 318.898438 254.285156 316.789062 255.402344 314.703125 C 256.515625 312.617188 257.679688 310.5625 258.894531 308.535156 C 260.113281 306.503906 261.375 304.507812 262.6875 302.542969 C 264.003906 300.578125 265.363281 298.644531 266.773438 296.746094 C 268.179688 294.847656 269.632812 292.984375 271.132812 291.15625 C 272.632812 289.328125 274.175781 287.539062 275.765625 285.789062 C 277.351562 284.035156 278.980469 282.324219 280.652344 280.652344 C 282.324219 278.980469 284.035156 277.351562 285.789062 275.765625 C 287.539062 274.175781 289.328125 272.632812 291.15625 271.132812 C 292.984375 269.632812 294.847656 268.179688 296.746094 266.773438 C 298.644531 265.363281 300.578125 264.003906 302.542969 262.6875 C 304.507812 261.375 306.503906 260.113281 308.535156 258.894531 C 310.5625 257.679688 312.617188 256.515625 314.703125 255.402344 C 316.789062 254.285156 318.898438 253.222656 321.035156 252.214844 C 323.171875 251.203125 325.332031 250.246094 327.515625 249.339844 C 329.699219 248.4375 331.90625 247.585938 334.132812 246.789062 C 336.359375 245.992188 338.601562 245.25 340.863281 244.566406 C 343.125 243.878906 345.402344 243.25 347.699219 242.675781 C 349.992188 242.097656 352.296875 241.582031 354.613281 241.121094 C 356.933594 240.660156 359.261719 240.253906 361.601562 239.910156 C 363.9375 239.5625 366.285156 239.273438 368.636719 239.039062 C 370.988281 238.808594 373.347656 238.636719 375.707031 238.519531 C 378.070312 238.402344 380.433594 238.34375 382.796875 238.34375 C 385.160156 238.34375 387.523438 238.402344 389.882812 238.519531 C 392.246094 238.636719 394.601562 238.808594 396.953125 239.039062 C 399.308594 239.273438 401.652344 239.5625 403.992188 239.910156 C 406.332031 240.253906 408.660156 240.660156 410.976562 241.121094 C 413.296875 241.582031 415.601562 242.097656 417.894531 242.675781 C 420.1875 243.25 422.464844 243.878906 424.726562 244.566406 C 426.992188 245.25 429.234375 245.992188 431.460938 246.789062 C 433.6875 247.585938 435.890625 248.4375 438.074219 249.339844 C 440.257812 250.246094 442.421875 251.203125 444.558594 252.214844 C 446.695312 253.222656 448.804688 254.285156 450.890625 255.402344 C 452.976562 256.515625 455.03125 257.679688 457.058594 258.894531 C 459.085938 260.113281 461.082031 261.375 463.050781 262.6875 C 465.015625 264.003906 466.945312 265.363281 468.847656 266.773438 C 470.746094 268.179688 472.609375 269.632812 474.433594 271.132812 C 476.261719 272.632812 478.050781 274.175781 479.804688 275.765625 C 481.554688 277.351562 483.265625 278.980469 484.9375 280.652344 C 486.609375 282.324219 488.238281 284.035156 489.828125 285.789062 C 491.414062 287.539062 492.957031 289.328125 494.457031 291.15625 C 495.957031 292.984375 497.414062 294.847656 498.820312 296.746094 C 500.230469 298.644531 501.589844 300.578125 502.902344 302.542969 C 504.214844 304.507812 505.480469 306.503906 506.695312 308.535156 C 507.910156 310.5625 509.078125 312.617188 510.191406 314.703125 C 511.304688 316.789062 512.367188 318.898438 513.378906 321.035156 C 514.390625 323.171875 515.347656 325.332031 516.25 327.515625 C 517.15625 329.699219 518.007812 331.90625 518.804688 334.132812 C 519.601562 336.359375 520.339844 338.601562 521.027344 340.863281 C 521.714844 343.125 522.34375 345.402344 522.917969 347.699219 C 523.492188 349.992188 524.011719 352.296875 524.472656 354.613281 C 524.933594 356.933594 525.335938 359.261719 525.683594 361.601562 C 526.03125 363.9375 526.320312 366.285156 526.550781 368.636719 C 526.785156 370.988281 526.957031 373.347656 527.074219 375.707031 C 527.191406 378.070312 527.246094 380.433594 527.246094 382.796875 Z M 527.246094 382.796875 " fill-opacity="1" fill-rule="nonzero"/><path fill="#000000" d="M 662.082031 173.359375 C 661.609375 172.722656 661.082031 172.140625 660.496094 171.609375 C 659.90625 171.078125 659.273438 170.605469 658.59375 170.199219 C 657.914062 169.792969 657.199219 169.457031 656.453125 169.191406 C 655.707031 168.925781 654.945312 168.734375 654.160156 168.621094 C 653.375 168.507812 652.589844 168.46875 651.796875 168.507812 C 651.003906 168.550781 650.226562 168.667969 649.457031 168.863281 C 648.691406 169.058594 647.949219 169.324219 647.234375 169.667969 C 646.519531 170.007812 645.84375 170.414062 645.210938 170.890625 C 644.574219 171.363281 643.992188 171.894531 643.464844 172.484375 C 642.933594 173.074219 642.46875 173.710938 642.0625 174.390625 C 641.660156 175.074219 641.324219 175.785156 641.0625 176.535156 C 640.800781 177.28125 640.613281 178.046875 640.5 178.832031 C 640.390625 179.617188 640.355469 180.402344 640.398438 181.195312 C 640.441406 181.984375 640.5625 182.765625 640.761719 183.53125 C 640.957031 184.300781 641.230469 185.039062 641.574219 185.753906 C 641.917969 186.464844 642.328125 187.140625 642.804688 187.773438 C 645.707031 191.644531 648.523438 195.578125 651.25 199.574219 C 653.976562 203.570312 656.613281 207.625 659.160156 211.738281 C 661.707031 215.855469 664.160156 220.023438 666.519531 224.246094 C 668.882812 228.472656 671.144531 232.746094 673.316406 237.070312 C 675.484375 241.394531 677.554688 245.765625 679.53125 250.183594 C 681.503906 254.601562 683.378906 259.0625 685.152344 263.5625 C 686.929688 268.066406 688.601562 272.601562 690.175781 277.179688 C 691.746094 281.753906 693.214844 286.363281 694.582031 291.003906 C 695.949219 295.648438 697.210938 300.316406 698.371094 305.015625 C 699.527344 309.714844 700.578125 314.433594 701.527344 319.179688 C 702.472656 323.925781 703.3125 328.6875 704.046875 333.472656 C 704.78125 338.253906 705.410156 343.050781 705.929688 347.859375 C 706.449219 352.671875 706.863281 357.492188 707.167969 362.320312 C 707.472656 367.148438 707.667969 371.984375 707.757812 376.820312 C 707.847656 381.660156 707.828125 386.496094 707.699219 391.332031 C 707.574219 396.167969 707.335938 401 706.996094 405.828125 C 706.652344 410.65625 706.203125 415.472656 705.644531 420.277344 C 705.085938 425.082031 704.421875 429.875 703.648438 434.652344 C 702.875 439.429688 701.996094 444.183594 701.011719 448.921875 C 700.027344 453.660156 698.9375 458.371094 697.742188 463.0625 C 696.550781 467.75 695.25 472.410156 693.847656 477.039062 C 692.445312 481.671875 690.9375 486.269531 689.328125 490.832031 C 687.722656 495.394531 686.011719 499.921875 684.199219 504.40625 C 682.390625 508.894531 680.480469 513.339844 678.472656 517.742188 C 676.460938 522.144531 674.355469 526.496094 672.152344 530.804688 C 669.949219 535.113281 667.652344 539.371094 665.257812 543.574219 C 662.863281 547.78125 660.378906 551.929688 657.796875 556.023438 C 655.21875 560.117188 652.550781 564.152344 649.792969 568.128906 C 647.03125 572.101562 644.1875 576.011719 641.253906 579.859375 C 638.316406 583.707031 635.300781 587.488281 632.199219 591.203125 C 629.09375 594.914062 625.910156 598.554688 622.644531 602.128906 C 619.378906 605.699219 616.035156 609.195312 612.617188 612.617188 C 609.195312 616.035156 605.699219 619.378906 602.128906 622.644531 C 598.554688 625.910156 594.914062 629.09375 591.203125 632.199219 C 587.488281 635.300781 583.707031 638.316406 579.859375 641.253906 C 576.011719 644.1875 572.101562 647.03125 568.128906 649.792969 C 564.152344 652.550781 560.117188 655.21875 556.023438 657.796875 C 551.929688 660.378906 547.78125 662.863281 543.574219 665.257812 C 539.371094 667.652344 535.113281 669.949219 530.804688 672.152344 C 526.496094 674.355469 522.144531 676.460938 517.742188 678.472656 C 513.339844 680.480469 508.894531 682.390625 504.40625 684.199219 C 499.921875 686.011719 495.394531 687.722656 490.832031 689.328125 C 486.269531 690.9375 481.671875 692.445312 477.039062 693.847656 C 472.410156 695.25 467.75 696.550781 463.0625 697.742188 C 458.371094 698.9375 453.660156 700.027344 448.921875 701.011719 C 444.183594 701.996094 439.429688 702.875 434.652344 703.648438 C 429.875 704.421875 425.082031 705.085938 420.277344 705.644531 C 415.472656 706.203125 410.65625 706.652344 405.828125 706.996094 C 401 707.335938 396.167969 707.574219 391.332031 707.699219 C 386.496094 707.828125 381.660156 707.847656 376.820312 707.757812 C 371.984375 707.667969 367.148438 707.472656 362.320312 707.167969 C 357.492188 706.863281 352.671875 706.449219 347.859375 705.929688 C 343.050781 705.410156 338.253906 704.78125 333.472656 704.046875 C 328.6875 703.3125 323.925781 702.472656 319.179688 701.527344 C 314.433594 700.578125 309.714844 699.527344 305.015625 698.371094 C 300.316406 697.210938 295.648438 695.949219 291.003906 694.582031 C 286.363281 693.214844 281.753906 691.746094 277.179688 690.175781 C 272.601562 688.601562 268.066406 686.929688 263.5625 685.152344 C 259.0625 683.378906 254.601562 681.503906 250.183594 679.53125 C 245.765625 677.554688 241.394531 675.484375 237.070312 673.316406 C 232.746094 671.144531 228.472656 668.882812 224.246094 666.519531 C 220.023438 664.160156 215.855469 661.707031 211.738281 659.160156 C 207.625 656.613281 203.570312 653.976562 199.574219 651.25 C 195.578125 648.523438 191.644531 645.707031 187.773438 642.804688 C 187.140625 642.332031 186.464844 641.925781 185.753906 641.585938 C 185.039062 641.246094 184.300781 640.976562 183.535156 640.785156 C 182.769531 640.589844 181.992188 640.472656 181.203125 640.429688 C 180.414062 640.386719 179.628906 640.425781 178.847656 640.539062 C 178.066406 640.648438 177.304688 640.839844 176.558594 641.101562 C 175.8125 641.363281 175.101562 641.699219 174.421875 642.101562 C 173.742188 642.503906 173.109375 642.96875 172.523438 643.496094 C 171.933594 644.027344 171.40625 644.605469 170.929688 645.238281 C 170.457031 645.871094 170.050781 646.542969 169.710938 647.253906 C 169.367188 647.96875 169.101562 648.707031 168.90625 649.472656 C 168.707031 650.238281 168.589844 651.011719 168.546875 651.800781 C 168.503906 652.589844 168.539062 653.375 168.648438 654.15625 C 168.761719 654.941406 168.949219 655.703125 169.210938 656.449219 C 169.472656 657.195312 169.804688 657.90625 170.207031 658.585938 C 170.609375 659.265625 171.074219 659.898438 171.597656 660.488281 C 172.125 661.078125 172.707031 661.609375 173.335938 662.082031 C 177.496094 665.203125 181.71875 668.226562 186.011719 671.152344 C 190.304688 674.082031 194.660156 676.914062 199.078125 679.648438 C 203.5 682.386719 207.976562 685.019531 212.511719 687.554688 C 217.050781 690.089844 221.640625 692.523438 226.285156 694.851562 C 230.929688 697.179688 235.625 699.40625 240.371094 701.527344 C 245.117188 703.644531 249.90625 705.660156 254.738281 707.566406 C 259.574219 709.472656 264.449219 711.269531 269.363281 712.957031 C 274.277344 714.644531 279.230469 716.222656 284.214844 717.691406 C 289.199219 719.160156 294.214844 720.515625 299.261719 721.757812 C 304.308594 723 309.378906 724.132812 314.472656 725.148438 C 319.570312 726.164062 324.6875 727.066406 329.824219 727.855469 C 334.960938 728.644531 340.113281 729.316406 345.277344 729.875 C 350.445312 730.433594 355.621094 730.878906 360.808594 731.203125 C 365.996094 731.53125 371.1875 731.742188 376.382812 731.839844 C 381.578125 731.933594 386.773438 731.914062 391.96875 731.777344 C 397.164062 731.640625 402.351562 731.386719 407.535156 731.019531 C 412.71875 730.652344 417.894531 730.167969 423.054688 729.566406 C 428.21875 728.96875 433.363281 728.253906 438.492188 727.425781 C 443.625 726.59375 448.734375 725.652344 453.820312 724.59375 C 458.910156 723.535156 463.972656 722.367188 469.007812 721.082031 C 474.042969 719.800781 479.046875 718.402344 484.019531 716.898438 C 488.996094 715.390625 493.929688 713.773438 498.832031 712.046875 C 503.734375 710.316406 508.59375 708.480469 513.414062 706.539062 C 518.234375 704.59375 523.007812 702.542969 527.734375 700.382812 C 532.460938 698.226562 537.140625 695.964844 541.765625 693.597656 C 546.390625 691.230469 550.964844 688.761719 555.480469 686.191406 C 559.996094 683.621094 564.453125 680.949219 568.851562 678.179688 C 573.246094 675.410156 577.582031 672.542969 581.851562 669.582031 C 586.117188 666.617188 590.320312 663.5625 594.453125 660.410156 C 598.585938 657.257812 602.644531 654.019531 606.632812 650.683594 C 610.621094 647.351562 614.53125 643.933594 618.367188 640.425781 C 622.203125 636.917969 625.957031 633.328125 629.632812 629.65625 C 633.308594 625.980469 636.898438 622.226562 640.40625 618.390625 C 643.914062 614.554688 647.332031 610.644531 650.664062 606.65625 C 653.996094 602.667969 657.238281 598.609375 660.390625 594.476562 C 663.539062 590.34375 666.597656 586.144531 669.5625 581.875 C 672.523438 577.605469 675.390625 573.273438 678.160156 568.875 C 680.933594 564.476562 683.601562 560.019531 686.171875 555.503906 C 688.746094 550.988281 691.214844 546.417969 693.578125 541.789062 C 695.945312 537.164062 698.210938 532.488281 700.367188 527.757812 C 702.523438 523.03125 704.578125 518.257812 706.519531 513.4375 C 708.464844 508.621094 710.300781 503.761719 712.03125 498.859375 C 713.757812 493.957031 715.375 489.019531 716.882812 484.046875 C 718.390625 479.074219 719.785156 474.070312 721.070312 469.03125 C 722.351562 463.996094 723.523438 458.9375 724.582031 453.847656 C 725.636719 448.757812 726.582031 443.652344 727.410156 438.519531 C 728.242188 433.390625 728.957031 428.242188 729.554688 423.082031 C 730.15625 417.917969 730.640625 412.746094 731.007812 407.5625 C 731.375 402.378906 731.628906 397.191406 731.765625 391.996094 C 731.902344 386.800781 731.921875 381.605469 731.828125 376.410156 C 731.734375 371.214844 731.523438 366.023438 731.195312 360.835938 C 730.867188 355.648438 730.425781 350.472656 729.867188 345.304688 C 729.308594 340.140625 728.636719 334.988281 727.847656 329.851562 C 727.058594 324.714844 726.15625 319.597656 725.140625 314.5 C 724.125 309.40625 722.996094 304.332031 721.75 299.289062 C 720.507812 294.242188 719.152344 289.226562 717.6875 284.242188 C 716.21875 279.253906 714.640625 274.304688 712.953125 269.390625 C 711.265625 264.476562 709.46875 259.601562 707.5625 254.765625 C 705.65625 249.929688 703.640625 245.140625 701.523438 240.394531 C 699.402344 235.652344 697.179688 230.957031 694.847656 226.3125 C 692.519531 221.664062 690.085938 217.074219 687.550781 212.539062 C 685.019531 208 682.382812 203.523438 679.648438 199.105469 C 676.914062 194.683594 674.082031 190.328125 671.152344 186.035156 C 668.222656 181.742188 665.199219 177.519531 662.082031 173.359375 Z M 662.082031 173.359375 " fill-opacity="1" fill-rule="nonzero"/><path fill="#000000" d="M 113.148438 597.0625 C 114.265625 597.0625 115.363281 596.914062 116.4375 596.609375 C 117.511719 596.304688 118.523438 595.859375 119.476562 595.273438 C 120.425781 594.683594 121.28125 593.980469 122.035156 593.15625 C 122.789062 592.332031 123.414062 591.417969 123.914062 590.421875 C 124.417969 589.421875 124.769531 588.375 124.980469 587.277344 C 125.1875 586.179688 125.242188 585.074219 125.140625 583.960938 C 125.042969 582.847656 124.792969 581.769531 124.394531 580.726562 C 123.992188 579.683594 123.457031 578.714844 122.789062 577.820312 C 119.886719 573.949219 117.070312 570.015625 114.34375 566.019531 C 111.613281 562.023438 108.976562 557.964844 106.429688 553.851562 C 103.886719 549.738281 101.429688 545.570312 99.070312 541.34375 C 96.710938 537.121094 94.445312 532.847656 92.277344 528.523438 C 90.109375 524.195312 88.035156 519.824219 86.0625 515.40625 C 84.085938 510.988281 82.214844 506.53125 80.4375 502.027344 C 78.664062 497.527344 76.988281 492.988281 75.417969 488.414062 C 73.84375 483.835938 72.375 479.226562 71.007812 474.585938 C 69.644531 469.945312 68.382812 465.273438 67.222656 460.578125 C 66.066406 455.878906 65.011719 451.15625 64.066406 446.414062 C 63.117188 441.667969 62.277344 436.902344 61.542969 432.121094 C 60.808594 427.339844 60.183594 422.542969 59.664062 417.730469 C 59.144531 412.921875 58.730469 408.101562 58.425781 403.273438 C 58.121094 398.441406 57.925781 393.609375 57.835938 388.773438 C 57.746094 383.933594 57.765625 379.097656 57.894531 374.257812 C 58.019531 369.421875 58.253906 364.589844 58.597656 359.765625 C 58.941406 354.9375 59.390625 350.121094 59.949219 345.316406 C 60.507812 340.507812 61.171875 335.71875 61.945312 330.941406 C 62.714844 326.164062 63.59375 321.40625 64.578125 316.671875 C 65.5625 311.933594 66.652344 307.21875 67.847656 302.53125 C 69.042969 297.84375 70.34375 293.183594 71.746094 288.550781 C 73.148438 283.921875 74.65625 279.324219 76.261719 274.761719 C 77.871094 270.195312 79.582031 265.671875 81.390625 261.183594 C 83.203125 256.699219 85.113281 252.253906 87.121094 247.851562 C 89.128906 243.449219 91.234375 239.09375 93.441406 234.785156 C 95.644531 230.480469 97.941406 226.222656 100.335938 222.015625 C 102.730469 217.8125 105.214844 213.664062 107.792969 209.570312 C 110.371094 205.476562 113.042969 201.441406 115.800781 197.464844 C 118.558594 193.492188 121.40625 189.578125 124.339844 185.730469 C 127.273438 181.882812 130.292969 178.101562 133.394531 174.390625 C 136.496094 170.675781 139.679688 167.035156 142.945312 163.464844 C 146.210938 159.894531 149.554688 156.398438 152.976562 152.976562 C 156.398438 149.554688 159.894531 146.210938 163.464844 142.945312 C 167.035156 139.679688 170.675781 136.496094 174.390625 133.394531 C 178.105469 130.292969 181.882812 127.273438 185.730469 124.339844 C 189.578125 121.40625 193.492188 118.558594 197.464844 115.800781 C 201.441406 113.042969 205.476562 110.371094 209.570312 107.792969 C 213.664062 105.214844 217.8125 102.730469 222.019531 100.335938 C 226.222656 97.941406 230.480469 95.644531 234.785156 93.441406 C 239.09375 91.234375 243.449219 89.128906 247.851562 87.121094 C 252.253906 85.113281 256.699219 83.203125 261.183594 81.390625 C 265.671875 79.582031 270.195312 77.871094 274.761719 76.261719 C 279.324219 74.65625 283.921875 73.148438 288.550781 71.746094 C 293.183594 70.34375 297.84375 69.042969 302.53125 67.847656 C 307.21875 66.652344 311.933594 65.5625 316.671875 64.578125 C 321.40625 63.59375 326.164062 62.714844 330.941406 61.945312 C 335.71875 61.171875 340.507812 60.507812 345.316406 59.949219 C 350.121094 59.390625 354.9375 58.941406 359.765625 58.597656 C 364.589844 58.253906 369.421875 58.019531 374.257812 57.894531 C 379.097656 57.765625 383.933594 57.746094 388.773438 57.835938 C 393.609375 57.925781 398.441406 58.121094 403.273438 58.425781 C 408.101562 58.730469 412.921875 59.144531 417.730469 59.664062 C 422.542969 60.183594 427.339844 60.808594 432.121094 61.542969 C 436.902344 62.277344 441.667969 63.117188 446.414062 64.066406 C 451.15625 65.011719 455.878906 66.066406 460.578125 67.222656 C 465.273438 68.382812 469.945312 69.644531 474.585938 71.007812 C 479.226562 72.375 483.835938 73.84375 488.414062 75.417969 C 492.988281 76.988281 497.527344 78.664062 502.027344 80.4375 C 506.53125 82.214844 510.988281 84.085938 515.40625 86.0625 C 519.824219 88.035156 524.195312 90.109375 528.523438 92.277344 C 532.847656 94.445312 537.121094 96.710938 541.34375 99.070312 C 545.570312 101.429688 549.738281 103.886719 553.851562 106.429688 C 557.964844 108.976562 562.023438 111.613281 566.019531 114.34375 C 570.015625 117.070312 573.949219 119.886719 577.820312 122.789062 C 578.453125 123.261719 579.125 123.664062 579.839844 124.003906 C 580.550781 124.34375 581.289062 124.609375 582.054688 124.804688 C 582.820312 125 583.597656 125.117188 584.386719 125.15625 C 585.175781 125.199219 585.960938 125.164062 586.742188 125.050781 C 587.523438 124.9375 588.285156 124.75 589.03125 124.484375 C 589.773438 124.222656 590.484375 123.890625 591.164062 123.484375 C 591.84375 123.082031 592.476562 122.617188 593.0625 122.089844 C 593.652344 121.5625 594.179688 120.980469 594.65625 120.351562 C 595.128906 119.71875 595.535156 119.046875 595.875 118.332031 C 596.21875 117.621094 596.484375 116.882812 596.679688 116.117188 C 596.878906 115.351562 596.996094 114.578125 597.039062 113.789062 C 597.082031 113 597.046875 112.214844 596.9375 111.433594 C 596.824219 110.652344 596.640625 109.886719 596.378906 109.144531 C 596.117188 108.398438 595.785156 107.6875 595.382812 107.007812 C 594.980469 106.328125 594.519531 105.691406 593.992188 105.105469 C 593.464844 104.515625 592.886719 103.984375 592.253906 103.507812 C 588.097656 100.390625 583.871094 97.367188 579.582031 94.4375 C 575.289062 91.507812 570.933594 88.675781 566.511719 85.941406 C 562.09375 83.207031 557.617188 80.574219 553.078125 78.039062 C 548.542969 75.503906 543.953125 73.070312 539.308594 70.742188 C 534.660156 68.410156 529.964844 66.1875 525.222656 64.066406 C 520.476562 61.945312 515.6875 59.933594 510.851562 58.027344 C 506.019531 56.121094 501.144531 54.324219 496.230469 52.636719 C 491.3125 50.945312 486.363281 49.367188 481.378906 47.902344 C 476.394531 46.433594 471.378906 45.078125 466.332031 43.835938 C 461.285156 42.59375 456.214844 41.460938 451.117188 40.445312 C 446.023438 39.429688 440.90625 38.523438 435.769531 37.738281 C 430.632812 36.949219 425.480469 36.273438 420.3125 35.714844 C 415.148438 35.15625 409.972656 34.714844 404.785156 34.386719 C 399.597656 34.0625 394.40625 33.847656 389.210938 33.753906 C 384.015625 33.660156 378.820312 33.679688 373.625 33.816406 C 368.429688 33.953125 363.238281 34.207031 358.054688 34.574219 C 352.871094 34.941406 347.699219 35.425781 342.539062 36.023438 C 337.375 36.625 332.230469 37.339844 327.097656 38.167969 C 321.96875 38.996094 316.859375 39.941406 311.773438 41 C 306.683594 42.054688 301.621094 43.226562 296.585938 44.507812 C 291.550781 45.792969 286.546875 47.1875 281.570312 48.695312 C 276.597656 50.203125 271.660156 51.820312 266.757812 53.546875 C 261.859375 55.273438 257 57.109375 252.179688 59.054688 C 247.359375 61 242.585938 63.050781 237.859375 65.207031 C 233.128906 67.367188 228.453125 69.628906 223.828125 71.996094 C 219.199219 74.363281 214.628906 76.828125 210.113281 79.402344 C 205.597656 81.972656 201.140625 84.640625 196.742188 87.410156 C 192.34375 90.179688 188.011719 93.046875 183.742188 96.011719 C 179.472656 98.972656 175.273438 102.03125 171.140625 105.183594 C 167.007812 108.332031 162.945312 111.574219 158.960938 114.90625 C 154.972656 118.238281 151.058594 121.660156 147.226562 125.164062 C 143.390625 128.671875 139.632812 132.261719 135.960938 135.9375 C 132.285156 139.613281 128.695312 143.367188 125.1875 147.203125 C 121.679688 151.039062 118.261719 154.949219 114.929688 158.9375 C 111.59375 162.925781 108.355469 166.984375 105.203125 171.117188 C 102.050781 175.25 98.996094 179.449219 96.03125 183.71875 C 93.066406 187.988281 90.199219 192.320312 87.429688 196.71875 C 84.660156 201.113281 81.988281 205.570312 79.417969 210.085938 C 76.847656 214.605469 74.378906 219.175781 72.011719 223.800781 C 69.644531 228.429688 67.382812 233.105469 65.226562 237.832031 C 63.066406 242.5625 61.015625 247.335938 59.070312 252.152344 C 57.125 256.972656 55.289062 261.832031 53.5625 266.734375 C 51.835938 271.636719 50.21875 276.574219 48.710938 281.546875 C 47.203125 286.519531 45.808594 291.523438 44.523438 296.558594 C 43.238281 301.59375 42.070312 306.65625 41.011719 311.746094 C 39.953125 316.832031 39.011719 321.941406 38.179688 327.074219 C 37.351562 332.203125 36.636719 337.347656 36.039062 342.511719 C 35.4375 347.671875 34.953125 352.84375 34.585938 358.03125 C 34.214844 363.214844 33.964844 368.402344 33.828125 373.597656 C 33.691406 378.792969 33.667969 383.988281 33.765625 389.183594 C 33.859375 394.378906 34.070312 399.570312 34.398438 404.757812 C 34.722656 409.945312 35.167969 415.121094 35.726562 420.289062 C 36.28125 425.453125 36.957031 430.605469 37.746094 435.742188 C 38.53125 440.878906 39.433594 445.996094 40.453125 451.09375 C 41.46875 456.1875 42.597656 461.257812 43.839844 466.304688 C 45.085938 471.351562 46.441406 476.367188 47.90625 481.351562 C 49.375 486.335938 50.953125 491.289062 52.640625 496.203125 C 54.328125 501.117188 56.125 505.992188 58.03125 510.828125 C 59.9375 515.660156 61.949219 520.453125 64.070312 525.195312 C 66.191406 529.941406 68.414062 534.636719 70.742188 539.28125 C 73.074219 543.925781 75.503906 548.519531 78.039062 553.054688 C 80.574219 557.589844 83.210938 562.070312 85.945312 566.488281 C 88.679688 570.90625 91.511719 575.265625 94.4375 579.554688 C 97.367188 583.847656 100.390625 588.074219 103.507812 592.230469 C 104.070312 592.984375 104.707031 593.65625 105.425781 594.257812 C 106.140625 594.859375 106.917969 595.371094 107.757812 595.789062 C 108.59375 596.210938 109.46875 596.527344 110.378906 596.742188 C 111.289062 596.957031 112.210938 597.0625 113.148438 597.0625 Z M 113.148438 597.0625 " fill-opacity="1" fill-rule="nonzero"/><path fill="#000000" d="M 188.949219 239.660156 C 188.292969 239.222656 187.597656 238.851562 186.871094 238.550781 C 186.140625 238.25 185.386719 238.019531 184.613281 237.867188 C 183.839844 237.710938 183.058594 237.632812 182.269531 237.632812 C 181.480469 237.632812 180.695312 237.707031 179.921875 237.863281 C 179.148438 238.015625 178.394531 238.242188 177.664062 238.542969 C 176.9375 238.84375 176.242188 239.210938 175.585938 239.648438 C 174.925781 240.082031 174.316406 240.582031 173.757812 241.136719 C 173.199219 241.691406 172.695312 242.296875 172.253906 242.953125 C 168.816406 248.089844 165.574219 253.34375 162.527344 258.71875 C 159.476562 264.097656 156.632812 269.578125 153.992188 275.164062 C 151.351562 280.75 148.917969 286.429688 146.699219 292.195312 C 144.480469 297.960938 142.476562 303.804688 140.6875 309.71875 C 138.898438 315.636719 137.335938 321.609375 135.992188 327.640625 C 134.644531 333.671875 133.527344 339.746094 132.632812 345.859375 C 131.738281 351.976562 131.074219 358.117188 130.636719 364.28125 C 130.195312 370.445312 129.988281 376.617188 130.007812 382.796875 C 130.007812 386.933594 130.109375 391.066406 130.3125 395.199219 C 130.515625 399.332031 130.816406 403.457031 131.222656 407.574219 C 131.628906 411.691406 132.136719 415.796875 132.742188 419.886719 C 133.347656 423.980469 134.054688 428.054688 134.863281 432.113281 C 135.671875 436.171875 136.578125 440.207031 137.582031 444.21875 C 138.585938 448.230469 139.691406 452.21875 140.890625 456.175781 C 142.09375 460.136719 143.390625 464.0625 144.785156 467.957031 C 146.175781 471.855469 147.664062 475.710938 149.25 479.535156 C 150.832031 483.355469 152.507812 487.136719 154.277344 490.878906 C 156.046875 494.617188 157.90625 498.3125 159.855469 501.960938 C 161.804688 505.609375 163.84375 509.207031 165.972656 512.757812 C 168.097656 516.304688 170.3125 519.800781 172.609375 523.238281 C 174.90625 526.679688 177.289062 530.058594 179.753906 533.382812 C 182.21875 536.707031 184.761719 539.964844 187.386719 543.164062 C 190.011719 546.363281 192.714844 549.496094 195.492188 552.558594 C 198.269531 555.625 201.121094 558.621094 204.046875 561.546875 C 206.972656 564.472656 209.96875 567.324219 213.03125 570.101562 C 216.097656 572.878906 219.230469 575.582031 222.429688 578.207031 C 225.625 580.828125 228.886719 583.375 232.210938 585.839844 C 235.53125 588.304688 238.914062 590.683594 242.355469 592.984375 C 245.792969 595.28125 249.289062 597.496094 252.835938 599.621094 C 256.382812 601.75 259.984375 603.785156 263.632812 605.738281 C 267.28125 607.6875 270.976562 609.546875 274.714844 611.316406 C 278.453125 613.085938 282.234375 614.761719 286.058594 616.34375 C 289.878906 617.925781 293.738281 619.414062 297.632812 620.808594 C 301.527344 622.203125 305.457031 623.5 309.414062 624.699219 C 313.375 625.902344 317.359375 627.003906 321.375 628.011719 C 325.386719 629.015625 329.421875 629.921875 333.480469 630.730469 C 337.535156 631.535156 341.613281 632.242188 345.703125 632.851562 C 349.796875 633.457031 353.902344 633.964844 358.019531 634.367188 C 362.136719 634.773438 366.261719 635.078125 370.390625 635.28125 C 374.523438 635.484375 378.660156 635.585938 382.796875 635.585938 C 386.933594 635.585938 391.066406 635.484375 395.199219 635.28125 C 399.332031 635.078125 403.457031 634.773438 407.574219 634.367188 C 411.691406 633.964844 415.796875 633.457031 419.886719 632.851562 C 423.980469 632.242188 428.054688 631.535156 432.113281 630.730469 C 436.171875 629.921875 440.207031 629.015625 444.21875 628.011719 C 448.230469 627.003906 452.21875 625.902344 456.175781 624.699219 C 460.136719 623.5 464.0625 622.203125 467.957031 620.808594 C 471.855469 619.414062 475.710938 617.925781 479.535156 616.34375 C 483.355469 614.761719 487.136719 613.085938 490.878906 611.316406 C 494.617188 609.546875 498.3125 607.6875 501.960938 605.738281 C 505.609375 603.785156 509.207031 601.75 512.757812 599.621094 C 516.304688 597.496094 519.800781 595.28125 523.238281 592.984375 C 526.679688 590.683594 530.058594 588.304688 533.382812 585.839844 C 536.707031 583.375 539.964844 580.828125 543.164062 578.207031 C 546.363281 575.582031 549.492188 572.878906 552.558594 570.101562 C 555.625 567.324219 558.621094 564.472656 561.546875 561.546875 C 564.472656 558.621094 567.324219 555.625 570.101562 552.558594 C 572.878906 549.496094 575.582031 546.363281 578.207031 543.164062 C 580.828125 539.964844 583.375 536.707031 585.839844 533.382812 C 588.304688 530.058594 590.683594 526.679688 592.984375 523.238281 C 595.28125 519.800781 597.496094 516.304688 599.621094 512.757812 C 601.75 509.207031 603.785156 505.609375 605.738281 501.960938 C 607.6875 498.3125 609.546875 494.617188 611.316406 490.878906 C 613.085938 487.136719 614.761719 483.355469 616.34375 479.535156 C 617.925781 475.710938 619.414062 471.855469 620.808594 467.957031 C 622.203125 464.0625 623.5 460.136719 624.699219 456.175781 C 625.902344 452.21875 627.003906 448.230469 628.011719 444.21875 C 629.015625 440.207031 629.921875 436.171875 630.730469 432.113281 C 631.535156 428.054688 632.242188 423.980469 632.851562 419.886719 C 633.457031 415.796875 633.964844 411.691406 634.367188 407.574219 C 634.773438 403.457031 635.078125 399.332031 635.28125 395.199219 C 635.484375 391.066406 635.585938 386.933594 635.585938 382.796875 C 635.585938 378.660156 635.484375 374.523438 635.28125 370.390625 C 635.078125 366.261719 634.773438 362.136719 634.367188 358.019531 C 633.964844 353.902344 633.457031 349.796875 632.851562 345.703125 C 632.242188 341.613281 631.535156 337.535156 630.730469 333.480469 C 629.921875 329.421875 629.015625 325.386719 628.011719 321.375 C 627.003906 317.359375 625.902344 313.375 624.699219 309.414062 C 623.5 305.457031 622.203125 301.527344 620.808594 297.632812 C 619.414062 293.738281 617.925781 289.878906 616.34375 286.058594 C 614.761719 282.234375 613.085938 278.453125 611.316406 274.714844 C 609.546875 270.976562 607.6875 267.28125 605.738281 263.632812 C 603.785156 259.984375 601.75 256.382812 599.621094 252.835938 C 597.496094 249.289062 595.28125 245.792969 592.984375 242.355469 C 590.683594 238.914062 588.304688 235.53125 585.839844 232.210938 C 583.375 228.886719 580.828125 225.625 578.207031 222.429688 C 575.582031 219.230469 572.878906 216.097656 570.101562 213.03125 C 567.324219 209.96875 564.472656 206.972656 561.546875 204.046875 C 558.621094 201.121094 555.625 198.269531 552.558594 195.492188 C 549.492188 192.714844 546.363281 190.011719 543.164062 187.386719 C 539.964844 184.761719 536.707031 182.21875 533.382812 179.753906 C 530.058594 177.289062 526.679688 174.90625 523.238281 172.609375 C 519.800781 170.3125 516.304688 168.097656 512.757812 165.972656 C 509.207031 163.84375 505.609375 161.804688 501.960938 159.855469 C 498.3125 157.90625 494.617188 156.046875 490.878906 154.277344 C 487.136719 152.507812 483.355469 150.832031 479.535156 149.25 C 475.710938 147.664062 471.855469 146.175781 467.957031 144.785156 C 464.0625 143.390625 460.136719 142.09375 456.175781 140.890625 C 452.21875 139.691406 448.230469 138.585938 444.21875 137.582031 C 440.207031 136.578125 436.171875 135.671875 432.113281 134.863281 C 428.054688 134.054688 423.980469 133.347656 419.886719 132.742188 C 415.796875 132.136719 411.691406 131.628906 407.574219 131.222656 C 403.457031 130.816406 399.332031 130.515625 395.199219 130.3125 C 391.066406 130.109375 386.933594 130.007812 382.796875 130.007812 C 376.617188 129.988281 370.445312 130.195312 364.28125 130.636719 C 358.117188 131.074219 351.976562 131.742188 345.863281 132.632812 C 339.746094 133.527344 333.671875 134.648438 327.640625 135.992188 C 321.609375 137.335938 315.636719 138.902344 309.71875 140.6875 C 303.804688 142.476562 297.960938 144.480469 292.195312 146.699219 C 286.429688 148.921875 280.75 151.351562 275.164062 153.992188 C 269.578125 156.632812 264.097656 159.480469 258.71875 162.527344 C 253.34375 165.574219 248.089844 168.816406 242.953125 172.253906 C 242.296875 172.695312 241.691406 173.195312 241.132812 173.753906 C 240.574219 174.3125 240.078125 174.921875 239.640625 175.578125 C 239.203125 176.238281 238.832031 176.929688 238.53125 177.660156 C 238.230469 178.390625 238.003906 179.144531 237.847656 179.917969 C 237.695312 180.695312 237.621094 181.476562 237.621094 182.265625 C 237.625 183.058594 237.703125 183.839844 237.855469 184.613281 C 238.011719 185.386719 238.242188 186.140625 238.546875 186.871094 C 238.847656 187.597656 239.21875 188.292969 239.660156 188.949219 C 240.101562 189.605469 240.601562 190.210938 241.160156 190.769531 C 241.71875 191.328125 242.328125 191.824219 242.984375 192.261719 C 243.640625 192.699219 244.335938 193.070312 245.066406 193.371094 C 245.796875 193.671875 246.550781 193.898438 247.324219 194.050781 C 248.101562 194.203125 248.882812 194.28125 249.671875 194.277344 C 250.460938 194.277344 251.246094 194.199219 252.019531 194.042969 C 252.792969 193.890625 253.546875 193.660156 254.273438 193.355469 C 255.003906 193.050781 255.695312 192.679688 256.351562 192.242188 C 265.65625 186.019531 275.363281 180.519531 285.480469 175.742188 C 295.597656 170.964844 306.015625 166.957031 316.726562 163.726562 C 327.4375 160.492188 338.332031 158.066406 349.402344 156.453125 C 360.476562 154.835938 371.605469 154.046875 382.796875 154.082031 C 386.539062 154.082031 390.28125 154.171875 394.019531 154.355469 C 397.757812 154.539062 401.488281 154.816406 405.214844 155.183594 C 408.9375 155.550781 412.652344 156.007812 416.355469 156.558594 C 420.058594 157.105469 423.746094 157.746094 427.417969 158.476562 C 431.085938 159.207031 434.738281 160.027344 438.371094 160.9375 C 442 161.84375 445.605469 162.84375 449.1875 163.929688 C 452.769531 165.015625 456.324219 166.191406 459.847656 167.453125 C 463.371094 168.710938 466.863281 170.058594 470.320312 171.492188 C 473.78125 172.921875 477.199219 174.441406 480.585938 176.039062 C 483.96875 177.640625 487.308594 179.324219 490.613281 181.085938 C 493.914062 182.851562 497.167969 184.695312 500.378906 186.621094 C 503.589844 188.546875 506.75 190.546875 509.863281 192.625 C 512.976562 194.707031 516.035156 196.859375 519.042969 199.089844 C 522.046875 201.320312 524.996094 203.621094 527.890625 205.996094 C 530.785156 208.371094 533.617188 210.816406 536.390625 213.328125 C 539.164062 215.84375 541.875 218.421875 544.523438 221.070312 C 547.167969 223.71875 549.75 226.425781 552.261719 229.199219 C 554.777344 231.972656 557.21875 234.808594 559.59375 237.699219 C 561.96875 240.59375 564.273438 243.542969 566.5 246.550781 C 568.730469 249.558594 570.886719 252.617188 572.964844 255.730469 C 575.046875 258.839844 577.046875 262.003906 578.972656 265.214844 C 580.894531 268.425781 582.738281 271.679688 584.503906 274.980469 C 586.269531 278.28125 587.953125 281.625 589.550781 285.007812 C 591.152344 288.390625 592.667969 291.8125 594.101562 295.269531 C 595.535156 298.730469 596.878906 302.21875 598.140625 305.746094 C 599.402344 309.269531 600.574219 312.820312 601.664062 316.402344 C 602.75 319.984375 603.746094 323.59375 604.65625 327.222656 C 605.566406 330.855469 606.386719 334.503906 607.117188 338.175781 C 607.847656 341.847656 608.484375 345.535156 609.035156 349.238281 C 609.585938 352.9375 610.042969 356.652344 610.410156 360.378906 C 610.777344 364.101562 611.050781 367.835938 611.234375 371.574219 C 611.417969 375.3125 611.511719 379.054688 611.511719 382.796875 C 611.511719 386.539062 611.417969 390.28125 611.234375 394.019531 C 611.050781 397.757812 610.777344 401.488281 610.410156 405.214844 C 610.042969 408.9375 609.585938 412.652344 609.035156 416.355469 C 608.484375 420.058594 607.847656 423.746094 607.117188 427.417969 C 606.386719 431.085938 605.566406 434.738281 604.65625 438.371094 C 603.746094 442 602.75 445.605469 601.664062 449.1875 C 600.574219 452.769531 599.402344 456.324219 598.140625 459.847656 C 596.878906 463.371094 595.535156 466.863281 594.101562 470.320312 C 592.667969 473.78125 591.152344 477.199219 589.550781 480.585938 C 587.953125 483.96875 586.269531 487.308594 584.503906 490.613281 C 582.738281 493.914062 580.894531 497.167969 578.972656 500.378906 C 577.046875 503.589844 575.046875 506.75 572.964844 509.863281 C 570.886719 512.976562 568.730469 516.035156 566.5 519.042969 C 564.273438 522.046875 561.96875 524.996094 559.59375 527.890625 C 557.21875 530.785156 554.777344 533.617188 552.261719 536.390625 C 549.75 539.164062 547.167969 541.875 544.523438 544.523438 C 541.875 547.167969 539.164062 549.75 536.390625 552.261719 C 533.617188 554.777344 530.785156 557.21875 527.890625 559.59375 C 524.996094 561.96875 522.046875 564.273438 519.042969 566.5 C 516.035156 568.730469 512.976562 570.886719 509.863281 572.964844 C 506.75 575.046875 503.589844 577.046875 500.378906 578.972656 C 497.167969 580.894531 493.914062 582.738281 490.613281 584.503906 C 487.308594 586.269531 483.96875 587.953125 480.585938 589.550781 C 477.199219 591.152344 473.78125 592.667969 470.320312 594.101562 C 466.863281 595.535156 463.371094 596.878906 459.847656 598.140625 C 456.324219 599.402344 452.769531 600.574219 449.1875 601.664062 C 445.605469 602.75 442 603.746094 438.371094 604.65625 C 434.738281 605.566406 431.085938 606.386719 427.417969 607.117188 C 423.746094 607.847656 420.058594 608.484375 416.355469 609.035156 C 412.652344 609.585938 408.9375 610.042969 405.214844 610.410156 C 401.488281 610.777344 397.757812 611.050781 394.019531 611.234375 C 390.28125 611.417969 386.539062 611.511719 382.796875 611.511719 C 379.054688 611.511719 375.3125 611.417969 371.574219 611.234375 C 367.835938 611.050781 364.101562 610.777344 360.378906 610.410156 C 356.652344 610.042969 352.9375 609.585938 349.238281 609.035156 C 345.535156 608.484375 341.847656 607.847656 338.175781 607.117188 C 334.503906 606.386719 330.855469 605.566406 327.222656 604.65625 C 323.59375 603.746094 319.984375 602.75 316.402344 601.664062 C 312.820312 600.574219 309.269531 599.402344 305.746094 598.140625 C 302.21875 596.878906 298.730469 595.535156 295.269531 594.101562 C 291.8125 592.667969 288.390625 591.152344 285.007812 589.550781 C 281.625 587.953125 278.28125 586.269531 274.980469 584.503906 C 271.679688 582.738281 268.425781 580.894531 265.214844 578.972656 C 262.003906 577.046875 258.839844 575.046875 255.730469 572.964844 C 252.617188 570.886719 249.558594 568.730469 246.550781 566.5 C 243.542969 564.273438 240.59375 561.96875 237.699219 559.59375 C 234.808594 557.21875 231.972656 554.777344 229.199219 552.261719 C 226.425781 549.75 223.71875 547.167969 221.070312 544.523438 C 218.421875 541.875 215.84375 539.164062 213.328125 536.390625 C 210.816406 533.617188 208.371094 530.785156 205.996094 527.890625 C 203.621094 524.996094 201.320312 522.046875 199.089844 519.042969 C 196.859375 516.035156 194.707031 512.976562 192.625 509.863281 C 190.546875 506.75 188.546875 503.589844 186.621094 500.378906 C 184.695312 497.167969 182.851562 493.914062 181.085938 490.613281 C 179.324219 487.308594 177.640625 483.96875 176.039062 480.585938 C 174.441406 477.199219 172.921875 473.78125 171.492188 470.320312 C 170.058594 466.863281 168.710938 463.371094 167.453125 459.847656 C 166.191406 456.324219 165.015625 452.769531 163.929688 449.1875 C 162.84375 445.605469 161.84375 442 160.9375 438.371094 C 160.027344 434.738281 159.207031 431.085938 158.476562 427.417969 C 157.746094 423.746094 157.105469 420.058594 156.558594 416.355469 C 156.007812 412.652344 155.550781 408.9375 155.183594 405.214844 C 154.816406 401.488281 154.539062 397.757812 154.355469 394.019531 C 154.171875 390.28125 154.082031 386.539062 154.082031 382.796875 C 154.046875 371.605469 154.835938 360.476562 156.449219 349.402344 C 158.066406 338.332031 160.492188 327.4375 163.722656 316.726562 C 166.957031 306.015625 170.964844 295.597656 175.742188 285.480469 C 180.519531 275.363281 186.019531 265.65625 192.242188 256.351562 C 192.683594 255.699219 193.054688 255.003906 193.359375 254.277344 C 193.664062 253.546875 193.894531 252.792969 194.050781 252.019531 C 194.207031 251.246094 194.285156 250.460938 194.285156 249.671875 C 194.289062 248.882812 194.210938 248.097656 194.058594 247.324219 C 193.90625 246.546875 193.679688 245.796875 193.378906 245.066406 C 193.074219 244.335938 192.707031 243.640625 192.265625 242.984375 C 191.828125 242.324219 191.332031 241.71875 190.773438 241.160156 C 190.214844 240.601562 189.605469 240.101562 188.949219 239.660156 Z M 188.949219 239.660156 " fill-opacity="1" fill-rule="nonzero"/><path fill="#000000" d="M 539.285156 382.796875 C 539.285156 380.234375 539.222656 377.675781 539.097656 375.117188 C 538.972656 372.558594 538.78125 370.007812 538.53125 367.457031 C 538.28125 364.910156 537.96875 362.367188 537.589844 359.835938 C 537.214844 357.300781 536.777344 354.777344 536.277344 352.265625 C 535.777344 349.753906 535.21875 347.257812 534.59375 344.773438 C 533.972656 342.289062 533.289062 339.820312 532.546875 337.371094 C 531.804688 334.917969 531 332.488281 530.136719 330.078125 C 529.273438 327.664062 528.351562 325.277344 527.375 322.910156 C 526.394531 320.542969 525.355469 318.203125 524.261719 315.886719 C 523.164062 313.574219 522.015625 311.285156 520.808594 309.027344 C 519.601562 306.769531 518.339844 304.542969 517.019531 302.34375 C 515.703125 300.148438 514.335938 297.984375 512.910156 295.855469 C 511.488281 293.726562 510.015625 291.632812 508.488281 289.574219 C 506.964844 287.519531 505.386719 285.5 503.765625 283.519531 C 502.140625 281.539062 500.464844 279.601562 498.746094 277.703125 C 497.027344 275.808594 495.261719 273.953125 493.449219 272.140625 C 491.640625 270.332031 489.785156 268.566406 487.886719 266.84375 C 485.988281 265.125 484.050781 263.453125 482.070312 261.828125 C 480.09375 260.203125 478.074219 258.628906 476.015625 257.101562 C 473.960938 255.578125 471.867188 254.101562 469.738281 252.679688 C 467.605469 251.257812 465.445312 249.886719 463.246094 248.570312 C 461.050781 247.253906 458.824219 245.992188 456.566406 244.785156 C 454.304688 243.578125 452.019531 242.425781 449.703125 241.332031 C 447.390625 240.238281 445.046875 239.199219 442.683594 238.21875 C 440.316406 237.238281 437.925781 236.316406 435.515625 235.453125 C 433.105469 234.59375 430.671875 233.789062 428.222656 233.046875 C 425.773438 232.300781 423.304688 231.621094 420.820312 230.996094 C 418.335938 230.375 415.835938 229.8125 413.324219 229.3125 C 410.8125 228.816406 408.292969 228.375 405.757812 228 C 403.222656 227.625 400.683594 227.3125 398.136719 227.0625 C 395.585938 226.808594 393.03125 226.621094 390.476562 226.496094 C 387.917969 226.371094 385.355469 226.308594 382.796875 226.308594 C 380.234375 226.308594 377.675781 226.371094 375.117188 226.496094 C 372.558594 226.621094 370.007812 226.808594 367.457031 227.0625 C 364.910156 227.3125 362.367188 227.625 359.835938 228 C 357.300781 228.375 354.777344 228.816406 352.265625 229.3125 C 349.753906 229.8125 347.257812 230.375 344.773438 230.996094 C 342.289062 231.621094 339.820312 232.300781 337.371094 233.046875 C 334.917969 233.789062 332.488281 234.59375 330.078125 235.453125 C 327.664062 236.316406 325.277344 237.238281 322.910156 238.21875 C 320.542969 239.199219 318.203125 240.238281 315.886719 241.332031 C 313.574219 242.425781 311.285156 243.578125 309.027344 244.785156 C 306.769531 245.992188 304.542969 247.253906 302.34375 248.570312 C 300.148438 249.886719 297.984375 251.257812 295.855469 252.679688 C 293.726562 254.101562 291.632812 255.578125 289.574219 257.101562 C 287.519531 258.628906 285.5 260.203125 283.519531 261.828125 C 281.539062 263.453125 279.601562 265.125 277.703125 266.84375 C 275.808594 268.566406 273.953125 270.332031 272.140625 272.140625 C 270.332031 273.953125 268.566406 275.808594 266.84375 277.703125 C 265.125 279.601562 263.453125 281.539062 261.828125 283.519531 C 260.203125 285.5 258.628906 287.519531 257.101562 289.574219 C 255.578125 291.632812 254.101562 293.726562 252.679688 295.855469 C 251.257812 297.984375 249.886719 300.148438 248.570312 302.34375 C 247.253906 304.542969 245.992188 306.769531 244.785156 309.027344 C 243.578125 311.285156 242.425781 313.574219 241.332031 315.886719 C 240.238281 318.203125 239.199219 320.542969 238.21875 322.910156 C 237.238281 325.277344 236.316406 327.664062 235.453125 330.078125 C 234.59375 332.488281 233.789062 334.917969 233.046875 337.371094 C 232.300781 339.820312 231.621094 342.289062 230.996094 344.773438 C 230.375 347.257812 229.8125 349.753906 229.3125 352.265625 C 228.8125 354.777344 228.375 357.300781 228 359.835938 C 227.625 362.367188 227.3125 364.910156 227.0625 367.457031 C 226.808594 370.007812 226.621094 372.558594 226.496094 375.117188 C 226.371094 377.675781 226.308594 380.234375 226.308594 382.796875 C 226.308594 385.355469 226.371094 387.917969 226.496094 390.476562 C 226.621094 393.03125 226.808594 395.585938 227.0625 398.136719 C 227.3125 400.683594 227.625 403.222656 228 405.757812 C 228.375 408.292969 228.8125 410.8125 229.3125 413.324219 C 229.8125 415.835938 230.375 418.335938 230.996094 420.820312 C 231.621094 423.304688 232.300781 425.773438 233.046875 428.222656 C 233.789062 430.671875 234.59375 433.105469 235.453125 435.515625 C 236.316406 437.925781 237.238281 440.316406 238.21875 442.683594 C 239.199219 445.046875 240.238281 447.390625 241.332031 449.703125 C 242.425781 452.019531 243.578125 454.304688 244.785156 456.566406 C 245.992188 458.824219 247.253906 461.050781 248.570312 463.246094 C 249.886719 465.445312 251.257812 467.605469 252.679688 469.738281 C 254.101562 471.867188 255.578125 473.960938 257.101562 476.015625 C 258.628906 478.074219 260.203125 480.09375 261.828125 482.070312 C 263.453125 484.050781 265.125 485.988281 266.84375 487.886719 C 268.566406 489.785156 270.332031 491.640625 272.140625 493.449219 C 273.953125 495.261719 275.808594 497.027344 277.703125 498.746094 C 279.601562 500.464844 281.539062 502.140625 283.519531 503.765625 C 285.5 505.386719 287.519531 506.964844 289.574219 508.488281 C 291.632812 510.015625 293.726562 511.488281 295.855469 512.910156 C 297.984375 514.335938 300.148438 515.703125 302.34375 517.019531 C 304.542969 518.339844 306.769531 519.601562 309.027344 520.808594 C 311.285156 522.015625 313.574219 523.164062 315.886719 524.261719 C 318.203125 525.355469 320.542969 526.394531 322.910156 527.375 C 325.277344 528.351562 327.664062 529.273438 330.078125 530.136719 C 332.488281 531 334.917969 531.804688 337.371094 532.546875 C 339.820312 533.289062 342.289062 533.972656 344.773438 534.59375 C 347.257812 535.21875 349.753906 535.777344 352.265625 536.277344 C 354.777344 536.777344 357.300781 537.214844 359.835938 537.589844 C 362.367188 537.96875 364.910156 538.28125 367.457031 538.53125 C 370.007812 538.78125 372.558594 538.972656 375.117188 539.097656 C 377.675781 539.222656 380.234375 539.285156 382.796875 539.285156 C 385.355469 539.28125 387.914062 539.214844 390.472656 539.089844 C 393.027344 538.960938 395.582031 538.769531 398.128906 538.515625 C 400.675781 538.261719 403.214844 537.945312 405.75 537.566406 C 408.28125 537.191406 410.800781 536.75 413.3125 536.25 C 415.824219 535.746094 418.320312 535.183594 420.804688 534.558594 C 423.285156 533.9375 425.753906 533.25 428.203125 532.507812 C 430.652344 531.761719 433.082031 530.957031 435.492188 530.09375 C 437.902344 529.230469 440.289062 528.304688 442.652344 527.324219 C 445.019531 526.34375 447.359375 525.304688 449.671875 524.210938 C 451.984375 523.113281 454.269531 521.960938 456.527344 520.753906 C 458.785156 519.546875 461.011719 518.285156 463.207031 516.964844 C 465.402344 515.648438 467.566406 514.28125 469.695312 512.855469 C 471.824219 511.433594 473.914062 509.960938 475.96875 508.433594 C 478.027344 506.90625 480.042969 505.332031 482.023438 503.707031 C 484.003906 502.085938 485.941406 500.410156 487.835938 498.691406 C 489.734375 496.972656 491.585938 495.207031 493.398438 493.398438 C 495.207031 491.585938 496.972656 489.734375 498.691406 487.835938 C 500.410156 485.941406 502.082031 484.003906 503.707031 482.023438 C 505.332031 480.042969 506.90625 478.027344 508.433594 475.96875 C 509.960938 473.914062 511.433594 471.824219 512.855469 469.695312 C 514.28125 467.566406 515.648438 465.402344 516.964844 463.207031 C 518.285156 461.011719 519.546875 458.785156 520.753906 456.527344 C 521.960938 454.273438 523.113281 451.984375 524.210938 449.671875 C 525.304688 447.359375 526.34375 445.019531 527.324219 442.652344 C 528.304688 440.289062 529.230469 437.902344 530.09375 435.492188 C 530.957031 433.082031 531.761719 430.652344 532.507812 428.203125 C 533.25 425.753906 533.9375 423.285156 534.558594 420.804688 C 535.183594 418.320312 535.746094 415.824219 536.25 413.3125 C 536.75 410.800781 537.191406 408.28125 537.566406 405.75 C 537.945312 403.214844 538.261719 400.675781 538.515625 398.128906 C 538.769531 395.582031 538.960938 393.027344 539.089844 390.472656 C 539.214844 387.914062 539.28125 385.355469 539.285156 382.796875 Z M 250.382812 382.796875 C 250.382812 380.628906 250.4375 378.464844 250.542969 376.300781 C 250.648438 374.132812 250.808594 371.972656 251.019531 369.816406 C 251.234375 367.660156 251.496094 365.511719 251.816406 363.367188 C 252.132812 361.222656 252.503906 359.089844 252.925781 356.964844 C 253.347656 354.839844 253.824219 352.722656 254.351562 350.621094 C 254.878906 348.519531 255.453125 346.433594 256.085938 344.359375 C 256.714844 342.285156 257.394531 340.226562 258.121094 338.1875 C 258.851562 336.148438 259.632812 334.125 260.460938 332.125 C 261.292969 330.121094 262.167969 328.140625 263.09375 326.183594 C 264.023438 324.222656 264.996094 322.289062 266.019531 320.375 C 267.039062 318.464844 268.105469 316.582031 269.222656 314.722656 C 270.335938 312.863281 271.496094 311.03125 272.699219 309.230469 C 273.902344 307.429688 275.148438 305.65625 276.441406 303.917969 C 277.730469 302.175781 279.0625 300.46875 280.4375 298.792969 C 281.8125 297.117188 283.230469 295.476562 284.683594 293.871094 C 286.140625 292.265625 287.632812 290.699219 289.164062 289.164062 C 290.699219 287.632812 292.265625 286.140625 293.871094 284.683594 C 295.476562 283.230469 297.117188 281.8125 298.792969 280.4375 C 300.46875 279.0625 302.175781 277.730469 303.917969 276.441406 C 305.65625 275.148438 307.429688 273.902344 309.230469 272.699219 C 311.03125 271.496094 312.863281 270.335938 314.722656 269.222656 C 316.582031 268.105469 318.464844 267.039062 320.375 266.019531 C 322.289062 264.996094 324.222656 264.023438 326.183594 263.09375 C 328.140625 262.167969 330.121094 261.292969 332.125 260.460938 C 334.125 259.632812 336.148438 258.851562 338.1875 258.121094 C 340.226562 257.394531 342.285156 256.714844 344.359375 256.085938 C 346.433594 255.457031 348.519531 254.878906 350.621094 254.351562 C 352.722656 253.824219 354.839844 253.347656 356.964844 252.925781 C 359.089844 252.503906 361.222656 252.132812 363.367188 251.816406 C 365.511719 251.496094 367.660156 251.234375 369.816406 251.019531 C 371.972656 250.808594 374.132812 250.648438 376.300781 250.542969 C 378.464844 250.4375 380.628906 250.382812 382.796875 250.382812 C 384.964844 250.382812 387.128906 250.4375 389.292969 250.542969 C 391.457031 250.648438 393.617188 250.808594 395.773438 251.019531 C 397.933594 251.234375 400.082031 251.496094 402.226562 251.816406 C 404.367188 252.132812 406.503906 252.503906 408.628906 252.925781 C 410.753906 253.347656 412.867188 253.824219 414.96875 254.351562 C 417.070312 254.878906 419.160156 255.457031 421.234375 256.085938 C 423.308594 256.714844 425.363281 257.394531 427.40625 258.121094 C 429.445312 258.851562 431.464844 259.632812 433.46875 260.460938 C 435.472656 261.292969 437.453125 262.167969 439.410156 263.09375 C 441.371094 264.023438 443.304688 264.996094 445.214844 266.019531 C 447.125 267.039062 449.011719 268.105469 450.871094 269.222656 C 452.730469 270.335938 454.558594 271.496094 456.363281 272.699219 C 458.164062 273.902344 459.933594 275.148438 461.675781 276.441406 C 463.414062 277.730469 465.125 279.0625 466.796875 280.4375 C 468.472656 281.8125 470.113281 283.230469 471.71875 284.683594 C 473.324219 286.140625 474.894531 287.632812 476.425781 289.164062 C 477.960938 290.699219 479.453125 292.265625 480.910156 293.871094 C 482.363281 295.476562 483.777344 297.117188 485.152344 298.792969 C 486.527344 300.46875 487.859375 302.175781 489.152344 303.917969 C 490.441406 305.65625 491.691406 307.429688 492.894531 309.230469 C 494.097656 311.03125 495.257812 312.863281 496.371094 314.722656 C 497.484375 316.582031 498.554688 318.464844 499.574219 320.375 C 500.597656 322.289062 501.570312 324.222656 502.496094 326.183594 C 503.421875 328.140625 504.300781 330.121094 505.128906 332.125 C 505.960938 334.125 506.738281 336.148438 507.46875 338.1875 C 508.199219 340.226562 508.878906 342.285156 509.507812 344.359375 C 510.136719 346.433594 510.714844 348.519531 511.242188 350.621094 C 511.769531 352.722656 512.242188 354.839844 512.664062 356.964844 C 513.089844 359.089844 513.457031 361.222656 513.777344 363.367188 C 514.09375 365.511719 514.359375 367.660156 514.574219 369.816406 C 514.785156 371.972656 514.945312 374.132812 515.050781 376.300781 C 515.15625 378.464844 515.210938 380.628906 515.210938 382.796875 C 515.210938 384.964844 515.15625 387.128906 515.050781 389.292969 C 514.945312 391.457031 514.785156 393.617188 514.574219 395.773438 C 514.359375 397.933594 514.09375 400.082031 513.777344 402.226562 C 513.457031 404.367188 513.089844 406.503906 512.664062 408.628906 C 512.242188 410.753906 511.769531 412.867188 511.242188 414.96875 C 510.714844 417.070312 510.136719 419.160156 509.507812 421.234375 C 508.878906 423.308594 508.199219 425.363281 507.46875 427.40625 C 506.738281 429.445312 505.960938 431.464844 505.128906 433.46875 C 504.300781 435.472656 503.421875 437.453125 502.496094 439.410156 C 501.570312 441.371094 500.597656 443.304688 499.574219 445.214844 C 498.554688 447.125 497.484375 449.011719 496.371094 450.871094 C 495.257812 452.730469 494.097656 454.558594 492.894531 456.363281 C 491.691406 458.164062 490.441406 459.933594 489.152344 461.675781 C 487.859375 463.414062 486.527344 465.125 485.152344 466.796875 C 483.777344 468.472656 482.363281 470.113281 480.910156 471.71875 C 479.453125 473.324219 477.960938 474.894531 476.425781 476.425781 C 474.894531 477.960938 473.324219 479.453125 471.71875 480.910156 C 470.113281 482.363281 468.472656 483.777344 466.796875 485.152344 C 465.125 486.527344 463.414062 487.859375 461.675781 489.152344 C 459.933594 490.441406 458.164062 491.691406 456.363281 492.894531 C 454.558594 494.097656 452.730469 495.257812 450.871094 496.371094 C 449.011719 497.484375 447.125 498.554688 445.214844 499.574219 C 443.304688 500.597656 441.371094 501.570312 439.410156 502.496094 C 437.453125 503.421875 435.472656 504.300781 433.46875 505.128906 C 431.464844 505.960938 429.445312 506.738281 427.40625 507.46875 C 425.363281 508.199219 423.308594 508.878906 421.234375 509.507812 C 419.160156 510.136719 417.070312 510.714844 414.96875 511.242188 C 412.867188 511.769531 410.753906 512.242188 408.628906 512.664062 C 406.503906 513.089844 404.367188 513.457031 402.226562 513.777344 C 400.082031 514.09375 397.933594 514.359375 395.773438 514.574219 C 393.617188 514.785156 391.457031 514.945312 389.292969 515.050781 C 387.128906 515.15625 384.964844 515.210938 382.796875 515.210938 C 380.628906 515.207031 378.464844 515.152344 376.300781 515.042969 C 374.136719 514.933594 371.976562 514.773438 369.824219 514.558594 C 367.667969 514.34375 365.515625 514.078125 363.375 513.757812 C 361.230469 513.4375 359.097656 513.0625 356.972656 512.640625 C 354.851562 512.214844 352.738281 511.738281 350.636719 511.210938 C 348.535156 510.683594 346.449219 510.101562 344.375 509.472656 C 342.304688 508.84375 340.246094 508.160156 338.207031 507.429688 C 336.167969 506.699219 334.148438 505.917969 332.148438 505.089844 C 330.148438 504.257812 328.167969 503.378906 326.210938 502.453125 C 324.25 501.523438 322.316406 500.550781 320.40625 499.527344 C 318.496094 498.507812 316.613281 497.4375 314.757812 496.324219 C 312.898438 495.210938 311.070312 494.050781 309.269531 492.847656 C 307.46875 491.640625 305.695312 490.394531 303.957031 489.105469 C 302.21875 487.8125 300.511719 486.480469 298.835938 485.105469 C 297.160156 483.730469 295.523438 482.316406 293.917969 480.859375 C 292.3125 479.40625 290.742188 477.914062 289.210938 476.382812 C 287.679688 474.847656 286.1875 473.28125 284.730469 471.675781 C 283.277344 470.070312 281.863281 468.429688 280.488281 466.757812 C 279.113281 465.082031 277.78125 463.375 276.488281 461.636719 C 275.199219 459.894531 273.949219 458.125 272.746094 456.324219 C 271.542969 454.523438 270.382812 452.695312 269.269531 450.835938 C 268.15625 448.980469 267.085938 447.09375 266.0625 445.183594 C 265.042969 443.273438 264.066406 441.339844 263.140625 439.382812 C 262.210938 437.425781 261.335938 435.445312 260.503906 433.445312 C 259.671875 431.445312 258.894531 429.421875 258.160156 427.382812 C 257.429688 425.34375 256.75 423.289062 256.121094 421.214844 C 255.488281 419.144531 254.910156 417.058594 254.382812 414.957031 C 253.855469 412.855469 253.378906 410.742188 252.953125 408.617188 C 252.527344 406.492188 252.15625 404.359375 251.835938 402.21875 C 251.515625 400.074219 251.25 397.925781 251.035156 395.769531 C 250.820312 393.613281 250.65625 391.453125 250.550781 389.292969 C 250.441406 387.128906 250.386719 384.960938 250.382812 382.796875 Z M 250.382812 382.796875 " fill-opacity="1" fill-rule="nonzero"/><path fill="#000000" d="M 463.53125 326.132812 C 462.972656 325.574219 462.367188 325.078125 461.710938 324.636719 C 461.050781 324.199219 460.359375 323.828125 459.628906 323.523438 C 458.898438 323.222656 458.144531 322.992188 457.371094 322.839844 C 456.59375 322.6875 455.8125 322.609375 455.023438 322.609375 C 454.230469 322.609375 453.449219 322.6875 452.675781 322.839844 C 451.898438 322.992188 451.144531 323.222656 450.417969 323.523438 C 449.6875 323.828125 448.992188 324.199219 448.335938 324.636719 C 447.679688 325.078125 447.070312 325.574219 446.511719 326.132812 L 358.722656 413.925781 L 319.082031 374.285156 C 318.519531 373.742188 317.910156 373.257812 317.253906 372.835938 C 316.597656 372.410156 315.90625 372.054688 315.179688 371.765625 C 314.453125 371.472656 313.707031 371.257812 312.9375 371.113281 C 312.171875 370.96875 311.394531 370.898438 310.613281 370.90625 C 309.832031 370.914062 309.058594 370.996094 308.292969 371.152344 C 307.527344 371.3125 306.785156 371.539062 306.0625 371.84375 C 305.34375 372.144531 304.660156 372.515625 304.007812 372.949219 C 303.359375 373.386719 302.757812 373.878906 302.207031 374.433594 C 301.652344 374.984375 301.160156 375.585938 300.722656 376.234375 C 300.289062 376.882812 299.917969 377.570312 299.617188 378.289062 C 299.316406 379.011719 299.085938 379.753906 298.929688 380.519531 C 298.769531 381.285156 298.6875 382.058594 298.679688 382.839844 C 298.675781 383.621094 298.742188 384.394531 298.886719 385.164062 C 299.03125 385.933594 299.25 386.679688 299.539062 387.40625 C 299.828125 388.132812 300.183594 388.824219 300.609375 389.480469 C 301.035156 390.136719 301.515625 390.746094 302.058594 391.308594 L 350.210938 439.457031 C 350.769531 440.015625 351.378906 440.515625 352.035156 440.953125 C 352.691406 441.394531 353.386719 441.765625 354.117188 442.066406 C 354.84375 442.371094 355.597656 442.597656 356.375 442.753906 C 357.148438 442.90625 357.929688 442.984375 358.722656 442.984375 C 359.511719 442.984375 360.292969 442.90625 361.070312 442.753906 C 361.84375 442.597656 362.597656 442.371094 363.328125 442.066406 C 364.058594 441.765625 364.75 441.394531 365.410156 440.953125 C 366.066406 440.515625 366.671875 440.015625 367.230469 439.457031 L 463.53125 343.15625 C 464.09375 342.597656 464.589844 341.988281 465.03125 341.332031 C 465.46875 340.675781 465.839844 339.980469 466.144531 339.253906 C 466.445312 338.523438 466.675781 337.769531 466.828125 336.992188 C 466.984375 336.21875 467.058594 335.4375 467.058594 334.644531 C 467.058594 333.855469 466.984375 333.074219 466.828125 332.296875 C 466.675781 331.523438 466.445312 330.769531 466.144531 330.039062 C 465.839844 329.308594 465.46875 328.617188 465.03125 327.957031 C 464.589844 327.300781 464.09375 326.695312 463.53125 326.132812 Z M 463.53125 326.132812 " fill-opacity="1" fill-rule="nonzero"/><path fill="#000000" d="M 224.597656 212.558594 C 224.597656 213.351562 224.519531 214.132812 224.367188 214.910156 C 224.210938 215.683594 223.984375 216.4375 223.679688 217.167969 C 223.378906 217.898438 223.007812 218.589844 222.570312 219.246094 C 222.128906 219.90625 221.632812 220.511719 221.070312 221.070312 C 220.511719 221.632812 219.90625 222.128906 219.246094 222.570312 C 218.589844 223.007812 217.898438 223.378906 217.167969 223.679688 C 216.4375 223.984375 215.683594 224.210938 214.910156 224.367188 C 214.132812 224.519531 213.351562 224.597656 212.558594 224.597656 C 211.769531 224.597656 210.988281 224.519531 210.210938 224.367188 C 209.4375 224.210938 208.683594 223.984375 207.953125 223.679688 C 207.222656 223.378906 206.53125 223.007812 205.871094 222.570312 C 205.214844 222.128906 204.605469 221.632812 204.046875 221.070312 C 203.488281 220.511719 202.992188 219.90625 202.550781 219.246094 C 202.113281 218.589844 201.742188 217.898438 201.4375 217.167969 C 201.136719 216.4375 200.90625 215.683594 200.753906 214.910156 C 200.601562 214.132812 200.523438 213.351562 200.523438 212.558594 C 200.523438 211.769531 200.601562 210.988281 200.753906 210.210938 C 200.90625 209.4375 201.136719 208.683594 201.4375 207.953125 C 201.742188 207.222656 202.113281 206.53125 202.550781 205.871094 C 202.992188 205.214844 203.488281 204.605469 204.046875 204.046875 C 204.605469 203.488281 205.214844 202.992188 205.871094 202.550781 C 206.53125 202.113281 207.222656 201.742188 207.953125 201.4375 C 208.683594 201.136719 209.4375 200.90625 210.210938 200.753906 C 210.988281 200.601562 211.769531 200.523438 212.558594 200.523438 C 213.351562 200.523438 214.132812 200.601562 214.910156 200.753906 C 215.683594 200.90625 216.4375 201.136719 217.167969 201.4375 C 217.898438 201.742188 218.589844 202.113281 219.246094 202.550781 C 219.90625 202.992188 220.511719 203.488281 221.070312 204.046875 C 221.632812 204.605469 222.128906 205.214844 222.570312 205.871094 C 223.007812 206.53125 223.378906 207.222656 223.679688 207.953125 C 223.984375 208.683594 224.210938 209.4375 224.367188 210.210938 C 224.519531 210.988281 224.597656 211.769531 224.597656 212.558594 Z M 224.597656 212.558594 " fill-opacity="1" fill-rule="nonzero"/></svg>