<svg xmlns="http://www.w3.org/2000/svg" xmlns:xlink="http://www.w3.org/1999/xlink" width="1024" zoomAndPan="magnify" viewBox="0 0 768 767.999994" height="1024" preserveAspectRatio="xMidYMid meet" version="1.0"><path fill="#2196f3" d="M 384 0 C 172.257812 0 0 172.257812 0 384 C 0 595.742188 172.257812 768 384 768 C 595.742188 768 768 595.742188 768 384 C 768 172.257812 595.742188 0 384 0 Z M 384 0 " fill-opacity="1" fill-rule="nonzero"/><path fill="#fafafa" d="M 578.625 302.625 L 370.625 510.625 C 364.382812 516.863281 356.191406 520 348 520 C 339.808594 520 331.617188 516.863281 325.375 510.625 L 221.375 406.625 C 208.863281 394.113281 208.863281 373.886719 221.375 361.375 C 233.886719 348.863281 254.113281 348.863281 266.625 361.375 L 348 442.753906 L 533.375 257.375 C 545.886719 244.863281 566.113281 244.863281 578.625 257.375 C 591.136719 269.886719 591.136719 290.113281 578.625 302.625 Z M 578.625 302.625 " fill-opacity="1" fill-rule="nonzero"/></svg>