<svg xmlns="http://www.w3.org/2000/svg" xmlns:xlink="http://www.w3.org/1999/xlink" width="1024" zoomAndPan="magnify" viewBox="0 0 768 767.999994" height="1024" preserveAspectRatio="xMidYMid meet" version="1.0"><defs><clipPath id="c64cd1a983"><path d="M 151 57.949219 L 607 57.949219 L 607 433 L 151 433 Z M 151 57.949219 " clip-rule="nonzero"/></clipPath><clipPath id="8e84fb2cac"><path d="M 0 201 L 768 201 L 768 709.699219 L 0 709.699219 Z M 0 201 " clip-rule="nonzero"/></clipPath></defs><g clip-path="url(#c64cd1a983)"><path fill="#51281e" d="M 604.5 217.082031 C 603.847656 213.820312 603.195312 210.558594 602.324219 207.511719 C 601.890625 205.335938 601.234375 203.378906 600.582031 201.203125 C 599.277344 196.417969 597.539062 191.632812 595.578125 187.066406 C 592.75 180.105469 589.488281 173.148438 585.789062 166.621094 C 550.109375 102.242188 470.917969 57.65625 379.539062 57.65625 C 288.164062 57.65625 209.1875 102.242188 173.074219 166.621094 C 169.375 173.148438 166.109375 180.105469 163.28125 187.066406 C 161.324219 191.632812 159.800781 196.417969 158.277344 201.203125 C 157.625 203.378906 157.191406 205.335938 156.539062 207.511719 C 155.667969 210.773438 155.015625 213.820312 154.363281 217.082031 C 152.621094 226.21875 151.753906 235.570312 151.753906 245.140625 C 151.753906 331.050781 222.242188 403.695312 318.1875 425.664062 C 337.550781 430.230469 358.21875 432.625 379.324219 432.625 C 400.425781 432.625 421.09375 430.230469 440.457031 425.664062 C 536.402344 403.695312 606.894531 331.050781 606.894531 245.140625 C 607.109375 235.570312 606.238281 226.21875 604.5 217.082031 Z M 379.539062 375.203125 C 285.769531 375.203125 209.40625 316.914062 209.40625 245.140625 C 209.40625 235.570312 210.710938 226.21875 213.320312 217.082031 C 214.191406 213.820312 215.28125 210.558594 216.585938 207.511719 C 217.457031 205.335938 218.324219 203.160156 219.414062 201.203125 C 221.589844 196.417969 224.417969 191.632812 227.246094 187.066406 C 230.074219 182.5 233.339844 178.148438 237.035156 174.015625 C 267.277344 138.5625 319.929688 115.074219 379.324219 115.074219 C 439.585938 115.074219 492.453125 139.21875 522.695312 175.320312 C 525.960938 179.019531 528.789062 182.933594 531.398438 187.066406 C 534.445312 191.632812 537.054688 196.417969 539.230469 201.203125 C 540.320312 203.160156 541.1875 205.335938 542.058594 207.511719 C 543.363281 210.558594 544.453125 213.820312 545.324219 217.082031 C 547.933594 226.21875 549.238281 235.570312 549.238281 245.140625 C 549.675781 316.914062 473.308594 375.203125 379.539062 375.203125 Z M 379.539062 375.203125 " fill-opacity="1" fill-rule="nonzero"/></g><path fill="#d4d6d6" d="M 254.660156 207.511719 L 132.171875 207.511719 C 132.171875 205.335938 132.390625 203.160156 132.605469 201.203125 C 133.476562 196.203125 135 191.417969 137.609375 187.066406 C 139.351562 184.023438 141.527344 181.195312 144.136719 178.585938 C 151.535156 171.1875 161.761719 166.621094 172.855469 166.621094 L 213.757812 166.621094 C 222.460938 166.621094 230.507812 169.449219 237.035156 174.015625 C 242.039062 177.496094 245.957031 181.847656 249.003906 187.066406 C 251.613281 191.417969 253.355469 195.984375 254.007812 201.203125 C 254.660156 203.160156 254.660156 205.335938 254.660156 207.511719 Z M 254.660156 207.511719 " fill-opacity="1" fill-rule="nonzero"/><path fill="#d4d6d6" d="M 629.738281 207.511719 L 507.25 207.511719 C 507.25 205.335938 507.464844 203.160156 507.683594 201.203125 C 508.554688 196.203125 510.078125 191.417969 512.6875 187.066406 C 514.429688 184.023438 516.605469 181.195312 519.214844 178.585938 C 520.304688 177.496094 521.609375 176.410156 522.914062 175.320312 C 529.875 169.882812 538.578125 166.621094 548.152344 166.621094 L 589.050781 166.621094 C 604.28125 166.621094 617.335938 174.886719 624.296875 187.066406 C 626.910156 191.417969 628.648438 195.984375 629.300781 201.203125 C 629.738281 203.160156 629.738281 205.335938 629.738281 207.511719 Z M 629.738281 207.511719 " fill-opacity="1" fill-rule="nonzero"/><g clip-path="url(#8e84fb2cac)"><path fill="#3a1e18" d="M 767.890625 283.855469 L 767.890625 652.300781 C 767.890625 684.273438 742 710.15625 710.015625 710.15625 L 57.984375 710.15625 C 26 710.15625 0.109375 684.273438 0.109375 652.300781 L 0.109375 283.855469 C 0.109375 264.0625 7.074219 245.792969 18.820312 231.4375 C 18.820312 231.21875 18.820312 231.21875 19.039062 231.21875 C 34.269531 212.949219 57.113281 201.203125 83.003906 201.203125 L 685.214844 201.203125 C 710.886719 201.203125 733.949219 212.949219 749.179688 231.21875 C 749.394531 231.21875 749.394531 231.4375 749.394531 231.4375 C 760.925781 245.792969 767.890625 264.0625 767.890625 283.855469 Z M 767.890625 283.855469 " fill-opacity="1" fill-rule="nonzero"/></g><path fill="#51281e" d="M 767.890625 283.855469 L 767.890625 622.285156 C 767.890625 654.257812 742 680.140625 710.015625 680.140625 L 57.984375 680.140625 C 26 680.140625 0.109375 654.257812 0.109375 622.5 L 0.109375 283.855469 C 0.109375 264.0625 7.074219 245.792969 18.820312 231.4375 C 18.820312 231.21875 18.820312 231.21875 19.039062 231.21875 C 34.269531 212.949219 57.113281 201.203125 83.003906 201.203125 L 685.214844 201.203125 C 710.886719 201.203125 733.949219 212.949219 749.179688 231.21875 C 749.394531 231.21875 749.394531 231.4375 749.394531 231.4375 C 760.925781 245.792969 767.890625 264.0625 767.890625 283.855469 Z M 767.890625 283.855469 " fill-opacity="1" fill-rule="nonzero"/><path fill="#262626" d="M 749.613281 441.542969 L 18.386719 441.542969 C 8.378906 441.542969 0.109375 433.277344 0.109375 423.273438 L 0.109375 226.652344 C 0.109375 221.433594 4.460938 217.082031 9.683594 217.082031 L 758.316406 217.082031 C 763.539062 217.082031 767.890625 221.433594 767.890625 226.652344 L 767.890625 423.273438 C 767.890625 433.496094 759.621094 441.542969 749.613281 441.542969 Z M 749.613281 441.542969 " fill-opacity="0.2196" fill-rule="nonzero"/><path fill="#262626" d="M 467.652344 486.5625 L 300.347656 486.5625 C 298.824219 486.5625 297.738281 485.476562 297.738281 483.953125 L 297.738281 429.578125 C 297.738281 428.058594 298.824219 426.96875 300.347656 426.96875 L 467.433594 426.96875 C 468.957031 426.96875 470.046875 428.058594 470.046875 429.578125 L 470.046875 483.953125 C 470.261719 485.257812 468.957031 486.5625 467.652344 486.5625 Z M 467.652344 486.5625 " fill-opacity="0.2196" fill-rule="nonzero"/><path fill="#262626" d="M 249.21875 187.066406 C 251.832031 191.417969 253.570312 195.984375 254.222656 201.203125 L 132.605469 201.203125 C 133.476562 196.203125 135 191.417969 137.609375 187.066406 Z M 249.21875 187.066406 " fill-opacity="0.2196" fill-rule="nonzero"/><path fill="#262626" d="M 629.300781 201.203125 L 507.683594 201.203125 C 508.554688 196.203125 510.078125 191.417969 512.6875 187.066406 L 624.082031 187.066406 C 626.910156 191.199219 628.648438 195.984375 629.300781 201.203125 Z M 629.300781 201.203125 " fill-opacity="0.2196" fill-rule="nonzero"/><path fill="#773c2a" d="M 767.890625 257.320312 L 767.890625 318.21875 C 767.890625 377.597656 719.589844 425.882812 660.195312 425.882812 L 107.585938 425.882812 C 48.410156 425.664062 0.109375 377.597656 0.109375 318 L 0.109375 257.101562 C 0.109375 226.652344 24.695312 201.640625 55.152344 201.203125 L 711.757812 201.203125 C 742.652344 201.203125 767.890625 226.21875 767.890625 257.320312 Z M 767.890625 257.320312 " fill-opacity="1" fill-rule="nonzero"/><path fill="#d4d6d6" d="M 467.652344 470.46875 L 300.347656 470.46875 C 298.824219 470.46875 297.738281 469.382812 297.738281 467.859375 L 297.738281 413.484375 C 297.738281 411.960938 298.824219 410.875 300.347656 410.875 L 467.433594 410.875 C 468.957031 410.875 470.046875 411.960938 470.046875 413.484375 L 470.046875 467.859375 C 470.261719 469.382812 468.957031 470.46875 467.652344 470.46875 Z M 467.652344 470.46875 " fill-opacity="1" fill-rule="nonzero"/><path fill="#ffffff" d="M 467.652344 459.8125 L 300.128906 459.8125 C 298.824219 459.8125 297.738281 458.722656 297.738281 457.417969 L 297.738281 408.699219 C 297.738281 407.394531 298.824219 406.308594 300.128906 406.308594 L 467.652344 406.308594 C 468.957031 406.308594 470.046875 407.394531 470.046875 408.699219 L 470.046875 457.417969 C 470.261719 458.722656 469.175781 459.8125 467.652344 459.8125 Z M 467.652344 459.8125 " fill-opacity="1" fill-rule="nonzero"/></svg>