<svg xmlns="http://www.w3.org/2000/svg" xmlns:xlink="http://www.w3.org/1999/xlink" width="1024" zoomAndPan="magnify" viewBox="0 0 768 767.999994" height="1024" preserveAspectRatio="xMidYMid meet" version="1.0"><path fill="#5e94ff" d="M 699.847656 747.652344 L 68.351562 747.652344 L 68.351562 34.015625 C 68.351562 18.855469 80.652344 6.558594 95.816406 6.558594 L 672.417969 6.558594 C 687.582031 6.558594 699.886719 18.855469 699.886719 34.015625 L 699.886719 747.652344 Z M 699.847656 747.652344 " fill-opacity="1" fill-rule="nonzero"/><path fill="#5e94ff" d="M 672.378906 747.652344 L 68.351562 747.652344 L 68.351562 34.800781 C 68.351562 19.210938 81.007812 6.558594 96.601562 6.558594 L 644.128906 6.558594 C 659.722656 6.558594 672.378906 19.210938 672.378906 34.800781 Z M 672.378906 747.652344 " fill-opacity="1" fill-rule="nonzero"/><path fill="#dbe2eb" d="M 562.550781 198.6875 L 562.550781 747.652344 L 205.605469 747.652344 L 205.605469 198.6875 C 205.605469 183.605469 217.945312 171.226562 233.070312 171.226562 L 535.085938 171.226562 C 550.210938 171.226562 562.550781 183.605469 562.550781 198.6875 Z M 562.550781 198.6875 " fill-opacity="1" fill-rule="nonzero"/><path fill="#fec502" d="M 274.957031 67.9375 L 309.828125 117.722656 C 312.570312 121.640625 318.332031 121.640625 321.074219 117.722656 L 355.945312 67.9375 C 359.121094 63.394531 355.867188 57.125 350.304688 57.125 L 280.558594 57.125 C 275.035156 57.125 271.78125 63.394531 274.957031 67.9375 Z M 274.957031 67.9375 " fill-opacity="1" fill-rule="nonzero"/><path fill="#004aad" d="M 631.199219 528.066406 C 625.832031 528.066406 620.738281 525.875 617.25 522.074219 L 593.585938 496.144531 C 588.492188 490.542969 588.882812 481.847656 594.484375 476.753906 C 600.089844 471.660156 608.785156 472.054688 613.878906 477.65625 L 631.199219 496.652344 L 648.515625 477.65625 C 653.648438 472.054688 662.308594 471.660156 667.914062 476.753906 C 673.515625 481.847656 673.90625 490.542969 668.8125 496.144531 L 645.1875 522.074219 C 641.660156 525.875 636.566406 528.066406 631.199219 528.066406 Z M 631.199219 528.066406 " fill-opacity="1" fill-rule="nonzero"/><path fill="#004aad" d="M 658.664062 445.730469 C 654.941406 445.730469 651.222656 444.242188 648.515625 441.265625 L 631.199219 422.269531 L 613.878906 441.265625 C 608.785156 446.867188 600.089844 447.257812 594.484375 442.167969 C 588.882812 437.074219 588.492188 428.378906 593.585938 422.777344 L 617.210938 396.847656 C 624.222656 389.210938 638.132812 389.210938 645.109375 396.847656 L 668.773438 422.777344 C 673.867188 428.378906 673.476562 437.074219 667.875 442.167969 C 665.289062 444.554688 661.957031 445.730469 658.664062 445.730469 Z M 658.664062 445.730469 " fill-opacity="1" fill-rule="nonzero"/><path fill="#fec502" d="M 493.238281 109.847656 L 458.367188 60.0625 C 455.625 56.148438 449.863281 56.148438 447.121094 60.0625 L 412.25 109.847656 C 409.078125 114.394531 412.328125 120.660156 417.890625 120.660156 L 487.636719 120.660156 C 493.160156 120.660156 496.414062 114.394531 493.238281 109.847656 Z M 493.238281 109.847656 " fill-opacity="1" fill-rule="nonzero"/><path fill="#004aad" d="M 369.816406 171.226562 L 398.378906 171.226562 L 398.378906 761.363281 L 369.816406 761.363281 Z M 369.816406 171.226562 " fill-opacity="1" fill-rule="nonzero"/><path fill="#fec502" d="M 754.738281 761.363281 L 13.417969 761.363281 C 5.855469 761.363281 -0.296875 755.214844 -0.296875 747.652344 C -0.296875 740.09375 5.855469 733.945312 13.417969 733.945312 L 754.738281 733.945312 C 762.300781 733.945312 768.453125 740.09375 768.453125 747.652344 C 768.492188 755.253906 762.339844 761.363281 754.738281 761.363281 Z M 754.738281 761.363281 " fill-opacity="1" fill-rule="nonzero"/></svg>