<svg xmlns="http://www.w3.org/2000/svg" xmlns:xlink="http://www.w3.org/1999/xlink" width="1024" zoomAndPan="magnify" viewBox="0 0 768 767.999994" height="1024" preserveAspectRatio="xMidYMid meet" version="1.0"><defs><clipPath id="5229450cd1"><path d="M 99.140625 99 L 669.097656 99 L 669.097656 768 L 99.140625 768 Z M 99.140625 99 " clip-rule="nonzero"/></clipPath></defs><g clip-path="url(#5229450cd1)"><path fill="#cca174" d="M 123.878906 99.101562 L 644.3125 99.101562 C 645.125 99.101562 645.9375 99.140625 646.742188 99.21875 C 647.550781 99.296875 648.351562 99.417969 649.148438 99.574219 C 649.945312 99.734375 650.730469 99.929688 651.507812 100.167969 C 652.285156 100.402344 653.046875 100.675781 653.796875 100.984375 C 654.546875 101.296875 655.28125 101.640625 655.996094 102.023438 C 656.710938 102.40625 657.40625 102.824219 658.082031 103.273438 C 658.757812 103.726562 659.410156 104.207031 660.035156 104.722656 C 660.664062 105.238281 661.265625 105.78125 661.839844 106.355469 C 662.410156 106.929688 662.957031 107.53125 663.472656 108.15625 C 663.984375 108.785156 664.46875 109.433594 664.921875 110.109375 C 665.371094 110.785156 665.789062 111.480469 666.171875 112.195312 C 666.554688 112.910156 666.898438 113.644531 667.210938 114.394531 C 667.519531 115.144531 667.792969 115.90625 668.03125 116.683594 C 668.265625 117.457031 668.460938 118.246094 668.621094 119.039062 C 668.777344 119.835938 668.898438 120.636719 668.976562 121.445312 C 669.058594 122.253906 669.097656 123.0625 669.097656 123.875 L 669.097656 743.222656 C 669.097656 744.035156 669.058594 744.84375 668.976562 745.652344 C 668.898438 746.457031 668.777344 747.257812 668.621094 748.054688 C 668.460938 748.851562 668.265625 749.636719 668.03125 750.414062 C 667.792969 751.191406 667.519531 751.953125 667.210938 752.703125 C 666.898438 753.453125 666.554688 754.183594 666.171875 754.902344 C 665.789062 755.617188 665.371094 756.3125 664.921875 756.984375 C 664.46875 757.660156 663.984375 758.3125 663.472656 758.9375 C 662.957031 759.566406 662.410156 760.167969 661.839844 760.738281 C 661.265625 761.3125 660.664062 761.859375 660.035156 762.371094 C 659.410156 762.886719 658.757812 763.371094 658.082031 763.820312 C 657.40625 764.273438 656.710938 764.6875 655.996094 765.070312 C 655.28125 765.453125 654.546875 765.800781 653.796875 766.109375 C 653.046875 766.421875 652.285156 766.695312 651.507812 766.929688 C 650.730469 767.164062 649.945312 767.363281 649.148438 767.519531 C 648.351562 767.679688 647.550781 767.796875 646.742188 767.875 C 645.9375 767.957031 645.125 767.996094 644.3125 767.996094 L 123.878906 767.996094 C 123.066406 767.996094 122.257812 767.957031 121.449219 767.875 C 120.640625 767.796875 119.839844 767.679688 119.042969 767.519531 C 118.25 767.363281 117.460938 767.164062 116.683594 766.929688 C 115.910156 766.695312 115.144531 766.421875 114.394531 766.109375 C 113.644531 765.800781 112.914062 765.453125 112.195312 765.070312 C 111.480469 764.6875 110.785156 764.273438 110.109375 763.820312 C 109.4375 763.371094 108.785156 762.886719 108.15625 762.371094 C 107.53125 761.859375 106.929688 761.3125 106.355469 760.738281 C 105.78125 760.167969 105.238281 759.566406 104.722656 758.9375 C 104.207031 758.3125 103.722656 757.660156 103.273438 756.984375 C 102.824219 756.3125 102.40625 755.617188 102.023438 754.902344 C 101.640625 754.183594 101.292969 753.453125 100.984375 752.703125 C 100.671875 751.953125 100.398438 751.191406 100.164062 750.414062 C 99.929688 749.636719 99.730469 748.851562 99.574219 748.054688 C 99.414062 747.257812 99.296875 746.457031 99.214844 745.652344 C 99.136719 744.84375 99.097656 744.035156 99.097656 743.222656 L 99.097656 123.875 C 99.097656 123.0625 99.136719 122.253906 99.214844 121.445312 C 99.296875 120.636719 99.414062 119.835938 99.574219 119.039062 C 99.730469 118.246094 99.929688 117.457031 100.164062 116.683594 C 100.398438 115.90625 100.671875 115.144531 100.984375 114.394531 C 101.292969 113.644531 101.640625 112.910156 102.023438 112.195312 C 102.40625 111.480469 102.824219 110.785156 103.273438 110.109375 C 103.722656 109.433594 104.207031 108.785156 104.722656 108.15625 C 105.238281 107.53125 105.78125 106.929688 106.355469 106.355469 C 106.929688 105.78125 107.53125 105.238281 108.15625 104.722656 C 108.785156 104.207031 109.4375 103.726562 110.109375 103.273438 C 110.785156 102.824219 111.480469 102.40625 112.195312 102.023438 C 112.914062 101.640625 113.644531 101.296875 114.394531 100.984375 C 115.144531 100.675781 115.910156 100.402344 116.683594 100.167969 C 117.460938 99.929688 118.25 99.734375 119.042969 99.574219 C 119.839844 99.417969 120.640625 99.296875 121.449219 99.21875 C 122.257812 99.140625 123.066406 99.101562 123.878906 99.101562 Z M 123.878906 99.101562 " fill-opacity="1" fill-rule="nonzero"/></g><path fill="#c6c5ca" d="M 148.660156 148.648438 L 619.53125 148.648438 L 619.53125 718.449219 L 148.660156 718.449219 Z M 148.660156 148.648438 " fill-opacity="1" fill-rule="nonzero"/><path fill="#c6c5ca" d="M 433.660156 49.550781 C 433.660156 22.1875 411.46875 0.00390625 384.097656 0.00390625 C 356.722656 0.00390625 334.53125 22.1875 334.53125 49.550781 L 272.574219 49.550781 L 272.574219 148.648438 L 495.617188 148.648438 L 495.617188 49.550781 Z M 433.660156 49.550781 " fill-opacity="1" fill-rule="nonzero"/><path fill="#c6c5ca" d="M 247.792969 99.101562 L 520.402344 99.101562 L 520.402344 173.421875 L 247.792969 173.421875 Z M 247.792969 99.101562 " fill-opacity="1" fill-rule="nonzero"/><path fill="#ffffff" d="M 371.707031 37.164062 L 396.488281 37.164062 L 396.488281 61.9375 L 371.707031 61.9375 Z M 371.707031 37.164062 " fill-opacity="1" fill-rule="nonzero"/><path fill="#787680" d="M 198.226562 247.742188 L 247.792969 247.742188 L 247.792969 272.515625 L 198.226562 272.515625 Z M 198.226562 247.742188 " fill-opacity="1" fill-rule="nonzero"/><path fill="#787680" d="M 284.964844 247.742188 L 569.964844 247.742188 L 569.964844 272.515625 L 284.964844 272.515625 Z M 284.964844 247.742188 " fill-opacity="1" fill-rule="nonzero"/><path fill="#787680" d="M 198.226562 322.066406 L 247.792969 322.066406 L 247.792969 346.839844 L 198.226562 346.839844 Z M 198.226562 322.066406 " fill-opacity="1" fill-rule="nonzero"/><path fill="#787680" d="M 284.964844 322.066406 L 569.964844 322.066406 L 569.964844 346.839844 L 284.964844 346.839844 Z M 284.964844 322.066406 " fill-opacity="1" fill-rule="nonzero"/><path fill="#787680" d="M 198.226562 396.386719 L 247.792969 396.386719 L 247.792969 421.160156 L 198.226562 421.160156 Z M 198.226562 396.386719 " fill-opacity="1" fill-rule="nonzero"/><path fill="#787680" d="M 284.964844 396.386719 L 569.964844 396.386719 L 569.964844 421.160156 L 284.964844 421.160156 Z M 284.964844 396.386719 " fill-opacity="1" fill-rule="nonzero"/><path fill="#787680" d="M 198.226562 470.707031 L 247.792969 470.707031 L 247.792969 495.484375 L 198.226562 495.484375 Z M 198.226562 470.707031 " fill-opacity="1" fill-rule="nonzero"/><path fill="#787680" d="M 284.964844 470.707031 L 569.964844 470.707031 L 569.964844 495.484375 L 284.964844 495.484375 Z M 284.964844 470.707031 " fill-opacity="1" fill-rule="nonzero"/><path fill="#787680" d="M 198.226562 545.03125 L 247.792969 545.03125 L 247.792969 569.804688 L 198.226562 569.804688 Z M 198.226562 545.03125 " fill-opacity="1" fill-rule="nonzero"/><path fill="#787680" d="M 284.964844 545.03125 L 569.964844 545.03125 L 569.964844 569.804688 L 284.964844 569.804688 Z M 284.964844 545.03125 " fill-opacity="1" fill-rule="nonzero"/></svg>