<svg xmlns="http://www.w3.org/2000/svg" xmlns:xlink="http://www.w3.org/1999/xlink" width="1024" zoomAndPan="magnify" viewBox="0 0 768 767.999994" height="1024" preserveAspectRatio="xMidYMid meet" version="1.0"><path fill="#5e94ff" d="M 384 0 C 172.289062 0 0 172.289062 0 384 C 0 595.710938 172.289062 768 384 768 C 595.710938 768 768 595.710938 768 384 C 768 172.289062 595.710938 0 384 0 Z M 480.511719 480.511719 C 475.519531 485.503906 468.992188 488 462.398438 488 C 455.871094 488 449.28125 485.503906 444.289062 480.511719 L 365.886719 402.113281 C 361.089844 397.3125 358.398438 390.785156 358.398438 384 L 358.398438 206.207031 C 358.398438 192.0625 369.855469 180.609375 384 180.609375 C 398.144531 180.609375 409.601562 192.0625 409.601562 206.207031 L 409.601562 373.375 L 480.511719 444.289062 C 490.496094 454.335938 490.496094 470.527344 480.511719 480.511719 Z M 480.511719 480.511719 " fill-opacity="1" fill-rule="nonzero"/></svg>