<svg xmlns="http://www.w3.org/2000/svg" xmlns:xlink="http://www.w3.org/1999/xlink" width="1024" zoomAndPan="magnify" viewBox="0 0 768 767.999994" height="1024" preserveAspectRatio="xMidYMid meet" version="1.0"><path fill="#3397e8" d="M 370.757812 225.101562 L 370.757812 145.65625 L 339.269531 145.65625 C 335.316406 130.300781 329.125 115.847656 321.066406 102.65625 L 344.277344 79.449219 L 291.308594 26.484375 L 268.101562 49.691406 C 254.910156 41.632812 240.457031 35.441406 225.101562 31.488281 L 225.101562 0 L 145.65625 0 L 145.65625 31.488281 C 130.300781 35.441406 115.847656 41.632812 102.65625 49.691406 L 79.449219 26.484375 L 26.484375 79.449219 L 49.691406 102.65625 C 41.632812 115.847656 35.441406 130.300781 31.488281 145.65625 L 0 145.65625 L 0 225.101562 L 31.488281 225.101562 C 35.441406 240.457031 41.632812 254.910156 49.691406 268.101562 L 26.484375 291.308594 L 79.449219 344.277344 L 102.65625 321.066406 C 115.847656 329.125 130.300781 335.316406 145.65625 339.269531 L 145.65625 370.757812 L 225.101562 370.757812 L 225.101562 339.269531 C 240.457031 335.316406 254.910156 329.125 268.101562 321.066406 L 291.308594 344.277344 L 344.277344 291.308594 L 321.066406 268.101562 C 329.125 254.910156 335.316406 240.457031 339.269531 225.101562 Z M 370.757812 225.101562 " fill-opacity="1" fill-rule="nonzero"/><path fill="#2978b8" d="M 291.308594 185.378906 C 291.308594 187.113281 291.269531 188.84375 291.183594 190.578125 C 291.097656 192.308594 290.96875 194.035156 290.800781 195.761719 C 290.628906 197.488281 290.417969 199.207031 290.164062 200.921875 C 289.910156 202.636719 289.613281 204.34375 289.273438 206.046875 C 288.9375 207.746094 288.558594 209.4375 288.136719 211.117188 C 287.714844 212.800781 287.253906 214.46875 286.75 216.128906 C 286.246094 217.789062 285.703125 219.433594 285.117188 221.066406 C 284.535156 222.699219 283.910156 224.316406 283.246094 225.917969 C 282.582031 227.519531 281.882812 229.101562 281.140625 230.671875 C 280.398438 232.238281 279.621094 233.785156 278.800781 235.316406 C 277.984375 236.84375 277.128906 238.351562 276.238281 239.839844 C 275.347656 241.324219 274.421875 242.789062 273.457031 244.230469 C 272.496094 245.671875 271.496094 247.089844 270.464844 248.480469 C 269.429688 249.875 268.363281 251.242188 267.265625 252.582031 C 266.164062 253.921875 265.035156 255.234375 263.867188 256.519531 C 262.703125 257.804688 261.507812 259.058594 260.285156 260.285156 C 259.058594 261.507812 257.804688 262.703125 256.519531 263.867188 C 255.234375 265.035156 253.921875 266.164062 252.582031 267.265625 C 251.242188 268.363281 249.875 269.429688 248.480469 270.464844 C 247.089844 271.496094 245.671875 272.496094 244.230469 273.457031 C 242.789062 274.421875 241.324219 275.347656 239.839844 276.238281 C 238.351562 277.128906 236.84375 277.984375 235.316406 278.800781 C 233.785156 279.621094 232.238281 280.398438 230.671875 281.140625 C 229.101562 281.882812 227.519531 282.582031 225.917969 283.246094 C 224.316406 283.910156 222.699219 284.535156 221.066406 285.117188 C 219.433594 285.703125 217.789062 286.246094 216.128906 286.75 C 214.46875 287.253906 212.800781 287.714844 211.117188 288.136719 C 209.4375 288.558594 207.746094 288.9375 206.046875 289.273438 C 204.34375 289.613281 202.636719 289.910156 200.921875 290.164062 C 199.207031 290.417969 197.488281 290.628906 195.761719 290.800781 C 194.035156 290.96875 192.308594 291.097656 190.578125 291.183594 C 188.84375 291.269531 187.113281 291.308594 185.378906 291.308594 C 183.644531 291.308594 181.914062 291.269531 180.179688 291.183594 C 178.449219 291.097656 176.722656 290.96875 174.996094 290.800781 C 173.269531 290.628906 171.550781 290.417969 169.835938 290.164062 C 168.121094 289.910156 166.414062 289.613281 164.714844 289.273438 C 163.011719 288.9375 161.320312 288.558594 159.640625 288.136719 C 157.957031 287.714844 156.289062 287.253906 154.628906 286.75 C 152.96875 286.246094 151.324219 285.703125 149.691406 285.117188 C 148.058594 284.535156 146.441406 283.910156 144.839844 283.246094 C 143.238281 282.582031 141.65625 281.882812 140.089844 281.140625 C 138.519531 280.398438 136.972656 279.621094 135.445312 278.800781 C 133.914062 277.984375 132.40625 277.128906 130.917969 276.238281 C 129.433594 275.347656 127.96875 274.421875 126.527344 273.457031 C 125.085938 272.496094 123.667969 271.496094 122.277344 270.464844 C 120.882812 269.429688 119.515625 268.363281 118.175781 267.265625 C 116.835938 266.164062 115.523438 265.035156 114.242188 263.867188 C 112.957031 262.703125 111.699219 261.507812 110.476562 260.285156 C 109.25 259.058594 108.054688 257.804688 106.890625 256.519531 C 105.726562 255.234375 104.59375 253.921875 103.492188 252.582031 C 102.394531 251.242188 101.328125 249.875 100.292969 248.480469 C 99.261719 247.089844 98.265625 245.671875 97.300781 244.230469 C 96.335938 242.789062 95.410156 241.324219 94.519531 239.839844 C 93.628906 238.351562 92.773438 236.84375 91.957031 235.316406 C 91.140625 233.785156 90.359375 232.238281 89.617188 230.671875 C 88.878906 229.101562 88.175781 227.519531 87.511719 225.917969 C 86.847656 224.316406 86.226562 222.699219 85.640625 221.066406 C 85.054688 219.433594 84.511719 217.789062 84.007812 216.128906 C 83.507812 214.46875 83.042969 212.800781 82.621094 211.117188 C 82.203125 209.4375 81.820312 207.746094 81.484375 206.046875 C 81.144531 204.34375 80.847656 202.636719 80.59375 200.921875 C 80.339844 199.207031 80.128906 197.488281 79.957031 195.761719 C 79.789062 194.035156 79.660156 192.308594 79.574219 190.578125 C 79.492188 188.84375 79.449219 187.113281 79.449219 185.378906 C 79.449219 183.644531 79.492188 181.914062 79.574219 180.179688 C 79.660156 178.449219 79.789062 176.722656 79.957031 174.996094 C 80.128906 173.269531 80.339844 171.550781 80.59375 169.835938 C 80.847656 168.121094 81.144531 166.414062 81.484375 164.714844 C 81.820312 163.011719 82.203125 161.320312 82.621094 159.640625 C 83.042969 157.957031 83.507812 156.289062 84.007812 154.628906 C 84.511719 152.96875 85.054688 151.324219 85.640625 149.691406 C 86.226562 148.058594 86.847656 146.441406 87.511719 144.839844 C 88.175781 143.238281 88.878906 141.65625 89.617188 140.089844 C 90.359375 138.519531 91.140625 136.972656 91.957031 135.445312 C 92.773438 133.914062 93.628906 132.40625 94.519531 130.917969 C 95.410156 129.433594 96.335938 127.96875 97.300781 126.527344 C 98.265625 125.085938 99.261719 123.667969 100.292969 122.277344 C 101.328125 120.882812 102.394531 119.515625 103.492188 118.175781 C 104.59375 116.835938 105.726562 115.523438 106.890625 114.242188 C 108.054688 112.957031 109.25 111.699219 110.476562 110.476562 C 111.699219 109.25 112.957031 108.054688 114.242188 106.890625 C 115.523438 105.726562 116.835938 104.59375 118.175781 103.492188 C 119.515625 102.394531 120.882812 101.328125 122.277344 100.292969 C 123.667969 99.261719 125.085938 98.265625 126.527344 97.300781 C 127.96875 96.335938 129.433594 95.410156 130.917969 94.519531 C 132.40625 93.628906 133.914062 92.773438 135.445312 91.957031 C 136.972656 91.140625 138.519531 90.359375 140.089844 89.617188 C 141.65625 88.878906 143.238281 88.175781 144.839844 87.511719 C 146.441406 86.847656 148.058594 86.226562 149.691406 85.640625 C 151.324219 85.054688 152.96875 84.511719 154.628906 84.007812 C 156.289062 83.507812 157.957031 83.042969 159.640625 82.621094 C 161.320312 82.203125 163.011719 81.820312 164.714844 81.484375 C 166.414062 81.144531 168.121094 80.847656 169.835938 80.59375 C 171.550781 80.339844 173.269531 80.128906 174.996094 79.957031 C 176.722656 79.789062 178.449219 79.660156 180.179688 79.574219 C 181.914062 79.492188 183.644531 79.449219 185.378906 79.449219 C 187.113281 79.449219 188.84375 79.492188 190.578125 79.574219 C 192.308594 79.660156 194.035156 79.789062 195.761719 79.957031 C 197.488281 80.128906 199.207031 80.339844 200.921875 80.59375 C 202.636719 80.847656 204.34375 81.144531 206.046875 81.484375 C 207.746094 81.820312 209.4375 82.203125 211.117188 82.621094 C 212.800781 83.042969 214.46875 83.507812 216.128906 84.007812 C 217.789062 84.511719 219.433594 85.054688 221.066406 85.640625 C 222.699219 86.226562 224.316406 86.847656 225.917969 87.511719 C 227.519531 88.175781 229.101562 88.878906 230.671875 89.617188 C 232.238281 90.359375 233.785156 91.140625 235.316406 91.957031 C 236.84375 92.773438 238.351562 93.628906 239.839844 94.519531 C 241.324219 95.410156 242.789062 96.335938 244.230469 97.300781 C 245.671875 98.265625 247.089844 99.261719 248.480469 100.292969 C 249.875 101.328125 251.242188 102.394531 252.582031 103.492188 C 253.921875 104.59375 255.234375 105.726562 256.519531 106.890625 C 257.804688 108.054688 259.058594 109.25 260.285156 110.476562 C 261.507812 111.699219 262.703125 112.957031 263.867188 114.242188 C 265.035156 115.523438 266.164062 116.835938 267.265625 118.175781 C 268.363281 119.515625 269.429688 120.882812 270.464844 122.277344 C 271.496094 123.667969 272.496094 125.085938 273.457031 126.527344 C 274.421875 127.96875 275.347656 129.433594 276.238281 130.917969 C 277.128906 132.40625 277.984375 133.914062 278.800781 135.445312 C 279.621094 136.972656 280.398438 138.519531 281.140625 140.089844 C 281.882812 141.65625 282.582031 143.238281 283.246094 144.839844 C 283.910156 146.441406 284.535156 148.058594 285.117188 149.691406 C 285.703125 151.324219 286.246094 152.96875 286.75 154.628906 C 287.253906 156.289062 287.714844 157.957031 288.136719 159.640625 C 288.558594 161.320312 288.9375 163.011719 289.273438 164.714844 C 289.613281 166.414062 289.910156 168.121094 290.164062 169.835938 C 290.417969 171.550781 290.628906 173.269531 290.800781 174.996094 C 290.96875 176.722656 291.097656 178.449219 291.183594 180.179688 C 291.269531 181.914062 291.308594 183.644531 291.308594 185.378906 Z M 291.308594 185.378906 " fill-opacity="1" fill-rule="nonzero"/><path fill="#e9eef2" d="M 238.34375 185.378906 C 238.34375 187.113281 238.261719 188.84375 238.089844 190.570312 C 237.917969 192.296875 237.664062 194.011719 237.328125 195.710938 C 236.988281 197.414062 236.566406 199.09375 236.0625 200.753906 C 235.5625 202.414062 234.976562 204.046875 234.3125 205.648438 C 233.648438 207.25 232.910156 208.816406 232.089844 210.347656 C 231.273438 211.875 230.382812 213.363281 229.417969 214.804688 C 228.453125 216.246094 227.421875 217.640625 226.320312 218.980469 C 225.222656 220.320312 224.058594 221.605469 222.832031 222.832031 C 221.605469 224.058594 220.320312 225.222656 218.980469 226.320312 C 217.640625 227.421875 216.246094 228.453125 214.804688 229.417969 C 213.363281 230.382812 211.875 231.273438 210.347656 232.089844 C 208.816406 232.910156 207.25 233.648438 205.648438 234.3125 C 204.046875 234.976562 202.414062 235.5625 200.753906 236.0625 C 199.09375 236.566406 197.414062 236.988281 195.710938 237.328125 C 194.011719 237.664062 192.296875 237.917969 190.570312 238.089844 C 188.84375 238.261719 187.113281 238.34375 185.378906 238.34375 C 183.644531 238.34375 181.914062 238.261719 180.1875 238.089844 C 178.460938 237.917969 176.746094 237.664062 175.046875 237.328125 C 173.34375 236.988281 171.664062 236.566406 170.003906 236.0625 C 168.34375 235.5625 166.710938 234.976562 165.109375 234.3125 C 163.507812 233.648438 161.941406 232.910156 160.410156 232.089844 C 158.882812 231.273438 157.394531 230.382812 155.953125 229.417969 C 154.511719 228.453125 153.121094 227.421875 151.777344 226.320312 C 150.4375 225.222656 149.152344 224.058594 147.925781 222.832031 C 146.699219 221.605469 145.535156 220.320312 144.4375 218.980469 C 143.335938 217.640625 142.304688 216.246094 141.339844 214.804688 C 140.375 213.363281 139.484375 211.875 138.667969 210.347656 C 137.851562 208.816406 137.109375 207.25 136.445312 205.648438 C 135.78125 204.046875 135.199219 202.414062 134.695312 200.753906 C 134.191406 199.09375 133.769531 197.414062 133.429688 195.710938 C 133.09375 194.011719 132.839844 192.296875 132.667969 190.570312 C 132.5 188.84375 132.414062 187.113281 132.414062 185.378906 C 132.414062 183.644531 132.5 181.914062 132.667969 180.1875 C 132.839844 178.460938 133.09375 176.746094 133.429688 175.046875 C 133.769531 173.34375 134.191406 171.664062 134.695312 170.003906 C 135.199219 168.34375 135.78125 166.714844 136.445312 165.109375 C 137.109375 163.507812 137.851562 161.941406 138.667969 160.410156 C 139.484375 158.882812 140.375 157.394531 141.339844 155.953125 C 142.304688 154.511719 143.335938 153.121094 144.4375 151.777344 C 145.535156 150.4375 146.699219 149.152344 147.925781 147.925781 C 149.152344 146.699219 150.4375 145.535156 151.777344 144.4375 C 153.121094 143.335938 154.511719 142.304688 155.953125 141.339844 C 157.394531 140.375 158.882812 139.484375 160.410156 138.667969 C 161.941406 137.851562 163.507812 137.109375 165.109375 136.445312 C 166.710938 135.78125 168.34375 135.199219 170.003906 134.695312 C 171.664062 134.191406 173.34375 133.769531 175.046875 133.429688 C 176.746094 133.09375 178.460938 132.839844 180.1875 132.667969 C 181.914062 132.5 183.644531 132.414062 185.378906 132.414062 C 187.113281 132.414062 188.84375 132.5 190.570312 132.667969 C 192.296875 132.839844 194.011719 133.09375 195.710938 133.429688 C 197.414062 133.769531 199.09375 134.191406 200.753906 134.695312 C 202.414062 135.199219 204.046875 135.78125 205.648438 136.445312 C 207.25 137.109375 208.816406 137.851562 210.347656 138.667969 C 211.875 139.484375 213.363281 140.375 214.804688 141.339844 C 216.246094 142.304688 217.640625 143.335938 218.980469 144.4375 C 220.320312 145.535156 221.605469 146.699219 222.832031 147.925781 C 224.058594 149.152344 225.222656 150.4375 226.320312 151.777344 C 227.421875 153.121094 228.453125 154.511719 229.417969 155.953125 C 230.382812 157.394531 231.273438 158.882812 232.089844 160.410156 C 232.910156 161.941406 233.648438 163.507812 234.3125 165.109375 C 234.976562 166.714844 235.5625 168.34375 236.0625 170.003906 C 236.566406 171.664062 236.988281 173.34375 237.328125 175.046875 C 237.664062 176.746094 237.917969 178.460938 238.089844 180.1875 C 238.261719 181.914062 238.34375 183.644531 238.34375 185.378906 Z M 238.34375 185.378906 " fill-opacity="1" fill-rule="nonzero"/><path fill="#7e8589" d="M 529.648438 251.589844 L 622.335938 158.898438 L 662.0625 198.621094 L 569.375 291.3125 Z M 529.648438 251.589844 " fill-opacity="1" fill-rule="nonzero"/><path fill="#6a7073" d="M 331.035156 79.449219 L 436.964844 79.449219 L 436.964844 158.898438 L 331.035156 158.898438 Z M 331.035156 79.449219 " fill-opacity="1" fill-rule="nonzero"/><path fill="#7e8589" d="M 688.550781 436.964844 C 688.550781 441.949219 688.429688 446.929688 688.183594 451.910156 C 687.941406 456.886719 687.574219 461.855469 687.085938 466.816406 C 686.597656 471.777344 685.988281 476.722656 685.253906 481.652344 C 684.523438 486.582031 683.671875 491.492188 682.699219 496.378906 C 681.726562 501.269531 680.636719 506.128906 679.425781 510.964844 C 678.214844 515.800781 676.882812 520.601562 675.4375 525.371094 C 673.992188 530.140625 672.429688 534.871094 670.75 539.566406 C 669.070312 544.257812 667.277344 548.90625 665.367188 553.511719 C 663.460938 558.117188 661.441406 562.671875 659.3125 567.179688 C 657.179688 571.683594 654.941406 576.132812 652.589844 580.53125 C 650.242188 584.925781 647.785156 589.261719 645.222656 593.535156 C 642.660156 597.8125 639.996094 602.019531 637.226562 606.164062 C 634.457031 610.308594 631.585938 614.382812 628.617188 618.386719 C 625.648438 622.390625 622.582031 626.316406 619.421875 630.171875 C 616.257812 634.023438 613.003906 637.796875 609.65625 641.488281 C 606.3125 645.183594 602.875 648.792969 599.351562 652.316406 C 595.824219 655.839844 592.21875 659.277344 588.523438 662.625 C 584.832031 665.96875 581.058594 669.226562 577.207031 672.386719 C 573.351562 675.550781 569.425781 678.613281 565.421875 681.582031 C 561.417969 684.550781 557.34375 687.421875 553.199219 690.191406 C 549.054688 692.960938 544.847656 695.625 540.570312 698.1875 C 536.296875 700.75 531.960938 703.207031 527.566406 705.554688 C 523.167969 707.90625 518.71875 710.144531 514.210938 712.277344 C 509.707031 714.40625 505.152344 716.425781 500.546875 718.335938 C 495.941406 720.242188 491.292969 722.035156 486.601562 723.714844 C 481.90625 725.394531 477.175781 726.957031 472.40625 728.402344 C 467.636719 729.851562 462.835938 731.179688 458 732.390625 C 453.164062 733.601562 448.304688 734.691406 443.414062 735.664062 C 438.527344 736.636719 433.617188 737.488281 428.6875 738.222656 C 423.757812 738.953125 418.8125 739.5625 413.851562 740.050781 C 408.890625 740.539062 403.921875 740.90625 398.945312 741.148438 C 393.964844 741.394531 388.984375 741.515625 384 741.515625 C 379.015625 741.515625 374.035156 741.394531 369.054688 741.148438 C 364.078125 740.90625 359.109375 740.539062 354.148438 740.050781 C 349.1875 739.5625 344.242188 738.953125 339.3125 738.222656 C 334.382812 737.488281 329.472656 736.636719 324.585938 735.664062 C 319.695312 734.691406 314.835938 733.601562 310 732.390625 C 305.164062 731.179688 300.363281 729.851562 295.59375 728.402344 C 290.824219 726.957031 286.09375 725.394531 281.398438 723.714844 C 276.707031 722.035156 272.058594 720.242188 267.453125 718.335938 C 262.847656 716.425781 258.292969 714.40625 253.789062 712.277344 C 249.28125 710.144531 244.832031 707.90625 240.433594 705.554688 C 236.039062 703.207031 231.703125 700.75 227.429688 698.1875 C 223.152344 695.625 218.945312 692.960938 214.800781 690.191406 C 210.65625 687.421875 206.582031 684.550781 202.578125 681.582031 C 198.574219 678.613281 194.648438 675.550781 190.792969 672.386719 C 186.941406 669.226562 183.167969 665.96875 179.476562 662.625 C 175.78125 659.277344 172.171875 655.839844 168.648438 652.316406 C 165.125 648.792969 161.6875 645.183594 158.34375 641.488281 C 154.996094 637.796875 151.742188 634.023438 148.578125 630.171875 C 145.417969 626.316406 142.351562 622.390625 139.382812 618.386719 C 136.414062 614.382812 133.542969 610.308594 130.773438 606.164062 C 128.003906 602.019531 125.339844 597.8125 122.777344 593.535156 C 120.214844 589.261719 117.757812 584.925781 115.410156 580.53125 C 113.058594 576.132812 110.820312 571.683594 108.6875 567.179688 C 106.558594 562.671875 104.539062 558.117188 102.632812 553.511719 C 100.722656 548.90625 98.929688 544.257812 97.25 539.566406 C 95.570312 534.871094 94.007812 530.140625 92.5625 525.371094 C 91.117188 520.601562 89.785156 515.800781 88.574219 510.964844 C 87.363281 506.128906 86.273438 501.269531 85.300781 496.378906 C 84.328125 491.492188 83.476562 486.582031 82.746094 481.652344 C 82.011719 476.722656 81.402344 471.777344 80.914062 466.816406 C 80.425781 461.855469 80.058594 456.886719 79.816406 451.910156 C 79.570312 446.929688 79.449219 441.949219 79.449219 436.964844 C 79.449219 431.980469 79.570312 427 79.816406 422.023438 C 80.058594 417.042969 80.425781 412.074219 80.914062 407.113281 C 81.402344 402.152344 82.011719 397.207031 82.746094 392.277344 C 83.476562 387.347656 84.328125 382.4375 85.300781 377.550781 C 86.273438 372.660156 87.363281 367.800781 88.574219 362.964844 C 89.785156 358.128906 91.117188 353.328125 92.5625 348.558594 C 94.007812 343.789062 95.570312 339.058594 97.25 334.363281 C 98.929688 329.671875 100.722656 325.023438 102.632812 320.417969 C 104.539062 315.8125 106.558594 311.257812 108.6875 306.753906 C 110.820312 302.246094 113.058594 297.796875 115.410156 293.402344 C 117.757812 289.003906 120.214844 284.667969 122.777344 280.394531 C 125.339844 276.121094 128.003906 271.910156 130.773438 267.765625 C 133.542969 263.621094 136.414062 259.546875 139.382812 255.542969 C 142.351562 251.539062 145.417969 247.613281 148.578125 243.761719 C 151.742188 239.90625 154.996094 236.132812 158.34375 232.441406 C 161.6875 228.746094 165.125 225.140625 168.648438 221.613281 C 172.171875 218.089844 175.78125 214.65625 179.476562 211.308594 C 183.167969 207.960938 186.941406 204.707031 190.792969 201.542969 C 194.648438 198.382812 198.574219 195.316406 202.578125 192.347656 C 206.582031 189.378906 210.65625 186.507812 214.800781 183.738281 C 218.945312 180.972656 223.152344 178.304688 227.429688 175.742188 C 231.703125 173.179688 236.039062 170.722656 240.433594 168.375 C 244.832031 166.023438 249.28125 163.785156 253.789062 161.652344 C 258.292969 159.523438 262.847656 157.503906 267.453125 155.597656 C 272.058594 153.6875 276.707031 151.894531 281.398438 150.214844 C 286.09375 148.539062 290.824219 146.972656 295.59375 145.527344 C 300.363281 144.082031 305.164062 142.75 310 141.539062 C 314.835938 140.328125 319.695312 139.238281 324.585938 138.265625 C 329.472656 137.292969 334.382812 136.441406 339.3125 135.710938 C 344.242188 134.980469 349.1875 134.367188 354.148438 133.878906 C 359.109375 133.390625 364.078125 133.023438 369.054688 132.78125 C 374.035156 132.535156 379.015625 132.414062 384 132.414062 C 388.984375 132.414062 393.964844 132.535156 398.945312 132.78125 C 403.921875 133.023438 408.890625 133.390625 413.851562 133.878906 C 418.8125 134.367188 423.757812 134.980469 428.6875 135.710938 C 433.617188 136.441406 438.527344 137.292969 443.414062 138.265625 C 448.304688 139.238281 453.164062 140.328125 458 141.539062 C 462.835938 142.75 467.636719 144.082031 472.40625 145.527344 C 477.175781 146.972656 481.90625 148.539062 486.601562 150.214844 C 491.292969 151.894531 495.941406 153.6875 500.546875 155.597656 C 505.152344 157.503906 509.707031 159.523438 514.210938 161.652344 C 518.71875 163.785156 523.167969 166.023438 527.566406 168.375 C 531.960938 170.722656 536.296875 173.179688 540.570312 175.742188 C 544.847656 178.304688 549.054688 180.972656 553.199219 183.738281 C 557.34375 186.507812 561.417969 189.378906 565.421875 192.347656 C 569.425781 195.316406 573.351562 198.382812 577.207031 201.542969 C 581.058594 204.707031 584.832031 207.960938 588.523438 211.308594 C 592.21875 214.65625 595.824219 218.089844 599.351562 221.613281 C 602.875 225.140625 606.3125 228.746094 609.65625 232.441406 C 613.003906 236.132812 616.257812 239.90625 619.421875 243.761719 C 622.582031 247.613281 625.648438 251.539062 628.617188 255.542969 C 631.585938 259.546875 634.457031 263.621094 637.226562 267.765625 C 639.996094 271.910156 642.660156 276.121094 645.222656 280.394531 C 647.785156 284.667969 650.242188 289.003906 652.589844 293.402344 C 654.941406 297.796875 657.179688 302.246094 659.3125 306.753906 C 661.441406 311.257812 663.460938 315.8125 665.367188 320.417969 C 667.277344 325.023438 669.070312 329.671875 670.75 334.363281 C 672.429688 339.058594 673.992188 343.789062 675.4375 348.558594 C 676.882812 353.328125 678.214844 358.128906 679.425781 362.964844 C 680.636719 367.800781 681.726562 372.660156 682.699219 377.550781 C 683.671875 382.4375 684.523438 387.347656 685.253906 392.277344 C 685.988281 397.207031 686.597656 402.152344 687.085938 407.113281 C 687.574219 412.074219 687.941406 417.042969 688.183594 422.023438 C 688.429688 427 688.550781 431.980469 688.550781 436.964844 Z M 688.550781 436.964844 " fill-opacity="1" fill-rule="nonzero"/><path fill="#e9eef2" d="M 635.585938 436.964844 C 635.585938 441.082031 635.484375 445.199219 635.28125 449.308594 C 635.082031 453.421875 634.777344 457.527344 634.375 461.625 C 633.972656 465.722656 633.46875 469.808594 632.863281 473.878906 C 632.257812 477.953125 631.554688 482.007812 630.753906 486.046875 C 629.949219 490.085938 629.046875 494.101562 628.046875 498.097656 C 627.046875 502.089844 625.949219 506.058594 624.753906 509.996094 C 623.558594 513.9375 622.265625 517.84375 620.878906 521.722656 C 619.492188 525.597656 618.011719 529.4375 616.433594 533.242188 C 614.859375 537.046875 613.191406 540.808594 611.429688 544.53125 C 609.671875 548.253906 607.820312 551.929688 605.878906 555.5625 C 603.9375 559.195312 601.910156 562.773438 599.792969 566.304688 C 597.675781 569.839844 595.472656 573.316406 593.1875 576.738281 C 590.898438 580.164062 588.527344 583.527344 586.074219 586.835938 C 583.625 590.140625 581.089844 593.386719 578.480469 596.570312 C 575.867188 599.753906 573.179688 602.871094 570.414062 605.921875 C 567.648438 608.972656 564.808594 611.953125 561.898438 614.863281 C 558.988281 617.773438 556.003906 620.613281 552.953125 623.378906 C 549.902344 626.144531 546.789062 628.832031 543.605469 631.445312 C 540.421875 634.054688 537.175781 636.589844 533.871094 639.042969 C 530.5625 641.492188 527.195312 643.863281 523.773438 646.152344 C 520.351562 648.4375 516.871094 650.640625 513.339844 652.757812 C 509.808594 654.875 506.226562 656.902344 502.597656 658.84375 C 498.964844 660.785156 495.289062 662.636719 491.566406 664.398438 C 487.84375 666.15625 484.082031 667.824219 480.277344 669.402344 C 476.472656 670.976562 472.632812 672.457031 468.757812 673.84375 C 464.878906 675.230469 460.972656 676.523438 457.03125 677.71875 C 453.089844 678.914062 449.125 680.011719 445.128906 681.011719 C 441.136719 682.011719 437.121094 682.914062 433.082031 683.71875 C 429.042969 684.519531 424.988281 685.222656 420.914062 685.828125 C 416.84375 686.433594 412.757812 686.9375 408.660156 687.339844 C 404.5625 687.742188 400.457031 688.046875 396.34375 688.25 C 392.230469 688.449219 388.117188 688.550781 384 688.550781 C 379.882812 688.550781 375.769531 688.449219 371.65625 688.25 C 367.542969 688.046875 363.4375 687.742188 359.339844 687.339844 C 355.242188 686.9375 351.15625 686.433594 347.085938 685.828125 C 343.011719 685.222656 338.957031 684.519531 334.917969 683.71875 C 330.878906 682.914062 326.863281 682.011719 322.871094 681.011719 C 318.875 680.011719 314.910156 678.914062 310.96875 677.71875 C 307.027344 676.523438 303.121094 675.230469 299.242188 673.84375 C 295.367188 672.457031 291.527344 670.976562 287.722656 669.402344 C 283.917969 667.824219 280.15625 666.15625 276.433594 664.398438 C 272.710938 662.636719 269.035156 660.785156 265.402344 658.84375 C 261.773438 656.902344 258.191406 654.875 254.660156 652.757812 C 251.128906 650.640625 247.648438 648.4375 244.226562 646.152344 C 240.800781 643.863281 237.4375 641.492188 234.128906 639.042969 C 230.824219 636.589844 227.578125 634.054688 224.394531 631.445312 C 221.210938 628.832031 218.097656 626.144531 215.046875 623.378906 C 211.996094 620.613281 209.011719 617.773438 206.101562 614.863281 C 203.191406 611.953125 200.351562 608.972656 197.585938 605.921875 C 194.820312 602.871094 192.132812 599.753906 189.519531 596.570312 C 186.910156 593.386719 184.375 590.140625 181.925781 586.835938 C 179.472656 583.527344 177.101562 580.164062 174.8125 576.738281 C 172.527344 573.316406 170.324219 569.839844 168.207031 566.304688 C 166.089844 562.773438 164.0625 559.195312 162.121094 555.5625 C 160.179688 551.929688 158.328125 548.253906 156.570312 544.53125 C 154.808594 540.808594 153.140625 537.046875 151.566406 533.242188 C 149.988281 529.4375 148.507812 525.597656 147.121094 521.722656 C 145.734375 517.84375 144.441406 513.9375 143.246094 509.996094 C 142.050781 506.058594 140.953125 502.089844 139.953125 498.097656 C 138.953125 494.101562 138.050781 490.085938 137.246094 486.046875 C 136.445312 482.007812 135.742188 477.953125 135.136719 473.878906 C 134.53125 469.808594 134.027344 465.722656 133.625 461.625 C 133.222656 457.527344 132.917969 453.421875 132.71875 449.308594 C 132.515625 445.199219 132.414062 441.082031 132.414062 436.964844 C 132.414062 432.847656 132.515625 428.734375 132.71875 424.621094 C 132.917969 420.507812 133.222656 416.402344 133.625 412.304688 C 134.027344 408.207031 134.53125 404.121094 135.136719 400.050781 C 135.742188 395.976562 136.445312 391.921875 137.246094 387.882812 C 138.050781 383.84375 138.953125 379.828125 139.953125 375.835938 C 140.953125 371.839844 142.050781 367.875 143.246094 363.933594 C 144.441406 359.992188 145.734375 356.085938 147.121094 352.207031 C 148.507812 348.332031 149.988281 344.492188 151.566406 340.6875 C 153.140625 336.882812 154.808594 333.121094 156.570312 329.398438 C 158.328125 325.675781 160.179688 322 162.121094 318.367188 C 164.0625 314.738281 166.089844 311.15625 168.207031 307.625 C 170.324219 304.09375 172.527344 300.613281 174.8125 297.191406 C 177.101562 293.769531 179.472656 290.402344 181.925781 287.097656 C 184.375 283.789062 186.910156 280.542969 189.519531 277.359375 C 192.132812 274.179688 194.820312 271.0625 197.585938 268.011719 C 200.351562 264.960938 203.191406 261.980469 206.101562 259.066406 C 209.011719 256.15625 211.996094 253.316406 215.046875 250.550781 C 218.097656 247.789062 221.210938 245.097656 224.394531 242.488281 C 227.578125 239.875 230.824219 237.34375 234.128906 234.890625 C 237.4375 232.4375 240.800781 230.066406 244.226562 227.777344 C 247.648438 225.492188 251.128906 223.289062 254.660156 221.171875 C 258.191406 219.054688 261.773438 217.027344 265.402344 215.085938 C 269.035156 213.144531 272.710938 211.292969 276.433594 209.535156 C 280.15625 207.773438 283.917969 206.105469 287.722656 204.53125 C 291.527344 202.953125 295.367188 201.472656 299.242188 200.085938 C 303.121094 198.699219 307.027344 197.40625 310.96875 196.210938 C 314.910156 195.015625 318.875 193.917969 322.871094 192.917969 C 326.863281 191.917969 330.878906 191.015625 334.917969 190.214844 C 338.957031 189.410156 343.011719 188.707031 347.085938 188.101562 C 351.15625 187.5 355.242188 186.996094 359.339844 186.589844 C 363.4375 186.1875 367.542969 185.882812 371.65625 185.683594 C 375.769531 185.480469 379.882812 185.378906 384 185.378906 C 388.117188 185.378906 392.230469 185.480469 396.34375 185.683594 C 400.457031 185.882812 404.5625 186.1875 408.660156 186.589844 C 412.757812 186.996094 416.84375 187.5 420.914062 188.101562 C 424.988281 188.707031 429.042969 189.410156 433.082031 190.214844 C 437.121094 191.015625 441.136719 191.917969 445.128906 192.917969 C 449.125 193.917969 453.089844 195.015625 457.03125 196.210938 C 460.972656 197.40625 464.878906 198.699219 468.757812 200.085938 C 472.632812 201.472656 476.472656 202.953125 480.277344 204.53125 C 484.082031 206.105469 487.84375 207.773438 491.566406 209.535156 C 495.289062 211.292969 498.964844 213.144531 502.597656 215.085938 C 506.226562 217.027344 509.808594 219.054688 513.339844 221.171875 C 516.871094 223.289062 520.351562 225.492188 523.773438 227.777344 C 527.195312 230.066406 530.5625 232.4375 533.871094 234.890625 C 537.175781 237.34375 540.421875 239.875 543.605469 242.488281 C 546.789062 245.097656 549.902344 247.789062 552.953125 250.550781 C 556.003906 253.316406 558.988281 256.15625 561.898438 259.066406 C 564.808594 261.980469 567.648438 264.960938 570.414062 268.011719 C 573.179688 271.0625 575.867188 274.179688 578.480469 277.359375 C 581.089844 280.542969 583.625 283.789062 586.074219 287.097656 C 588.527344 290.402344 590.898438 293.769531 593.1875 297.191406 C 595.472656 300.613281 597.675781 304.09375 599.792969 307.625 C 601.910156 311.15625 603.9375 314.738281 605.878906 318.367188 C 607.820312 322 609.671875 325.675781 611.429688 329.398438 C 613.191406 333.121094 614.859375 336.882812 616.433594 340.6875 C 618.011719 344.492188 619.492188 348.332031 620.878906 352.207031 C 622.265625 356.085938 623.558594 359.992188 624.753906 363.933594 C 625.949219 367.875 627.046875 371.839844 628.046875 375.835938 C 629.046875 379.828125 629.949219 383.84375 630.75 387.882812 C 631.554688 391.921875 632.257812 395.976562 632.863281 400.050781 C 633.46875 404.121094 633.972656 408.207031 634.375 412.304688 C 634.777344 416.402344 635.082031 420.507812 635.28125 424.621094 C 635.484375 428.734375 635.585938 432.847656 635.585938 436.964844 Z M 635.585938 436.964844 " fill-opacity="1" fill-rule="nonzero"/><path fill="#3397e8" d="M 523.035156 297.929688 C 512.066406 286.960938 494.277344 286.960938 483.308594 297.929688 L 278.070312 503.171875 L 317.792969 542.898438 L 523.035156 337.65625 C 534.003906 326.6875 534.003906 308.898438 523.035156 297.929688 Z M 523.035156 297.929688 " fill-opacity="1" fill-rule="nonzero"/><path fill="#2978b8" d="M 436.964844 436.964844 C 436.964844 438.699219 436.878906 440.429688 436.710938 442.15625 C 436.539062 443.882812 436.285156 445.597656 435.949219 447.296875 C 435.609375 449 435.1875 450.679688 434.683594 452.339844 C 434.179688 454 433.597656 455.632812 432.933594 457.234375 C 432.269531 458.835938 431.527344 460.402344 430.710938 461.933594 C 429.894531 463.464844 429.003906 464.949219 428.039062 466.390625 C 427.074219 467.832031 426.042969 469.226562 424.941406 470.566406 C 423.84375 471.90625 422.679688 473.191406 421.453125 474.417969 C 420.226562 475.644531 418.941406 476.808594 417.601562 477.910156 C 416.261719 479.007812 414.867188 480.039062 413.425781 481.003906 C 411.984375 481.96875 410.496094 482.859375 408.96875 483.675781 C 407.4375 484.496094 405.871094 485.234375 404.269531 485.898438 C 402.667969 486.5625 401.035156 487.148438 399.375 487.648438 C 397.714844 488.152344 396.035156 488.574219 394.332031 488.914062 C 392.632812 489.25 390.917969 489.507812 389.191406 489.675781 C 387.464844 489.847656 385.734375 489.929688 384 489.929688 C 382.265625 489.929688 380.535156 489.847656 378.808594 489.675781 C 377.082031 489.507812 375.367188 489.25 373.667969 488.914062 C 371.964844 488.574219 370.285156 488.152344 368.625 487.648438 C 366.964844 487.148438 365.332031 486.5625 363.730469 485.898438 C 362.128906 485.234375 360.5625 484.496094 359.03125 483.675781 C 357.503906 482.859375 356.015625 481.96875 354.574219 481.003906 C 353.132812 480.039062 351.738281 479.007812 350.398438 477.910156 C 349.058594 476.808594 347.773438 475.644531 346.546875 474.417969 C 345.320312 473.191406 344.15625 471.90625 343.058594 470.566406 C 341.957031 469.226562 340.925781 467.832031 339.960938 466.390625 C 338.996094 464.949219 338.105469 463.464844 337.289062 461.933594 C 336.472656 460.402344 335.730469 458.835938 335.066406 457.234375 C 334.402344 455.632812 333.820312 454 333.316406 452.339844 C 332.8125 450.679688 332.390625 449 332.050781 447.296875 C 331.714844 445.597656 331.460938 443.882812 331.289062 442.15625 C 331.121094 440.429688 331.035156 438.699219 331.035156 436.964844 C 331.035156 435.230469 331.121094 433.5 331.289062 431.773438 C 331.460938 430.046875 331.714844 428.332031 332.050781 426.632812 C 332.390625 424.929688 332.8125 423.25 333.316406 421.589844 C 333.820312 419.929688 334.402344 418.300781 335.066406 416.695312 C 335.730469 415.09375 336.472656 413.527344 337.289062 411.996094 C 338.105469 410.46875 338.996094 408.980469 339.960938 407.539062 C 340.925781 406.097656 341.957031 404.707031 343.058594 403.363281 C 344.15625 402.023438 345.320312 400.738281 346.546875 399.511719 C 347.773438 398.285156 349.058594 397.125 350.398438 396.023438 C 351.738281 394.921875 353.132812 393.890625 354.574219 392.925781 C 356.015625 391.960938 357.503906 391.070312 359.03125 390.253906 C 360.5625 389.4375 362.128906 388.695312 363.730469 388.03125 C 365.332031 387.367188 366.964844 386.785156 368.625 386.28125 C 370.285156 385.777344 371.964844 385.355469 373.667969 385.019531 C 375.367188 384.679688 377.082031 384.425781 378.808594 384.253906 C 380.535156 384.085938 382.265625 384 384 384 C 385.734375 384 387.464844 384.085938 389.191406 384.253906 C 390.917969 384.425781 392.632812 384.679688 394.332031 385.019531 C 396.035156 385.355469 397.714844 385.777344 399.375 386.28125 C 401.035156 386.785156 402.667969 387.367188 404.269531 388.03125 C 405.871094 388.695312 407.4375 389.4375 408.96875 390.253906 C 410.496094 391.070312 411.984375 391.960938 413.425781 392.925781 C 414.867188 393.890625 416.261719 394.921875 417.601562 396.023438 C 418.941406 397.125 420.226562 398.285156 421.453125 399.511719 C 422.679688 400.738281 423.84375 402.023438 424.941406 403.363281 C 426.042969 404.707031 427.074219 406.097656 428.039062 407.539062 C 429.003906 408.980469 429.894531 410.46875 430.710938 411.996094 C 431.527344 413.527344 432.269531 415.09375 432.933594 416.695312 C 433.597656 418.300781 434.179688 419.929688 434.683594 421.589844 C 435.1875 423.25 435.609375 424.929688 435.949219 426.632812 C 436.285156 428.332031 436.539062 430.046875 436.710938 431.773438 C 436.878906 433.5 436.964844 435.230469 436.964844 436.964844 Z M 436.964844 436.964844 " fill-opacity="1" fill-rule="nonzero"/><path fill="#6a7073" d="M 397.242188 185.726562 L 397.242188 238.34375 C 397.242188 245.660156 391.316406 251.585938 384 251.585938 C 376.683594 251.585938 370.757812 245.660156 370.757812 238.34375 L 370.757812 185.726562 C 375.144531 185.496094 379.5625 185.378906 384 185.378906 C 388.4375 185.378906 392.855469 185.496094 397.242188 185.726562 Z M 397.242188 185.726562 " fill-opacity="1" fill-rule="nonzero"/><path fill="#6a7073" d="M 397.242188 635.585938 L 397.242188 688.203125 C 392.855469 688.4375 388.4375 688.550781 384 688.550781 C 379.5625 688.550781 375.144531 688.4375 370.757812 688.203125 L 370.757812 635.585938 C 370.757812 628.269531 376.683594 622.34375 384 622.34375 C 391.316406 622.34375 397.242188 628.269531 397.242188 635.585938 Z M 397.242188 635.585938 " fill-opacity="1" fill-rule="nonzero"/><path fill="#6a7073" d="M 635.585938 436.964844 C 635.585938 441.402344 635.46875 445.820312 635.238281 450.207031 L 582.621094 450.207031 C 575.304688 450.207031 569.378906 444.28125 569.378906 436.964844 C 569.378906 429.648438 575.304688 423.722656 582.621094 423.722656 L 635.238281 423.722656 C 635.46875 428.109375 635.585938 432.53125 635.585938 436.964844 Z M 635.585938 436.964844 " fill-opacity="1" fill-rule="nonzero"/><path fill="#6a7073" d="M 198.621094 436.964844 C 198.621094 444.28125 192.695312 450.207031 185.378906 450.207031 L 132.761719 450.207031 C 132.53125 445.820312 132.414062 441.402344 132.414062 436.964844 C 132.414062 432.53125 132.53125 428.109375 132.761719 423.722656 L 185.378906 423.722656 C 192.695312 423.722656 198.621094 429.648438 198.621094 436.964844 Z M 198.621094 436.964844 " fill-opacity="1" fill-rule="nonzero"/><path fill="#6a7073" d="M 571.019531 268.683594 L 539.023438 300.679688 C 536.425781 303.261719 533.046875 304.550781 529.65625 304.550781 C 526.261719 304.550781 522.886719 303.261719 520.285156 300.679688 C 515.121094 295.496094 515.121094 287.121094 520.285156 281.941406 L 552.28125 249.949219 C 558.851562 255.855469 565.109375 262.113281 571.019531 268.683594 Z M 571.019531 268.683594 " fill-opacity="1" fill-rule="nonzero"/><path fill="#6a7073" d="M 247.714844 591.988281 L 215.71875 623.984375 C 209.148438 618.074219 202.890625 611.816406 196.980469 605.246094 L 228.976562 573.253906 C 234.15625 568.089844 242.53125 568.089844 247.714844 573.253906 C 252.878906 578.433594 252.878906 586.808594 247.714844 591.988281 Z M 247.714844 591.988281 " fill-opacity="1" fill-rule="nonzero"/><path fill="#6a7073" d="M 247.714844 300.679688 C 245.113281 303.261719 241.738281 304.550781 238.34375 304.550781 C 234.953125 304.550781 231.574219 303.261719 228.976562 300.679688 L 196.980469 268.683594 C 202.890625 262.113281 209.148438 255.855469 215.71875 249.949219 L 247.714844 281.941406 C 252.878906 287.121094 252.878906 295.496094 247.714844 300.679688 Z M 247.714844 300.679688 " fill-opacity="1" fill-rule="nonzero"/><path fill="#7e8589" d="M 291.308594 26.484375 L 476.691406 26.484375 L 476.691406 79.449219 L 291.308594 79.449219 Z M 291.308594 26.484375 " fill-opacity="1" fill-rule="nonzero"/><path fill="#3397e8" d="M 768 675.308594 L 768 622.34375 L 737.65625 622.34375 C 735.988281 616.730469 733.796875 611.347656 731.144531 606.234375 L 754.757812 582.621094 L 715.035156 542.898438 L 691.421875 566.511719 C 686.308594 563.859375 680.921875 561.667969 675.308594 559.996094 L 675.308594 529.65625 L 622.34375 529.65625 L 622.34375 559.996094 C 616.730469 561.667969 611.347656 563.859375 606.234375 566.511719 L 582.621094 542.898438 L 542.898438 582.621094 L 566.511719 606.234375 C 563.859375 611.347656 561.667969 616.730469 559.996094 622.34375 L 529.65625 622.34375 L 529.65625 675.308594 L 559.996094 675.308594 C 561.667969 680.921875 563.859375 686.308594 566.511719 691.421875 L 542.898438 715.035156 L 582.621094 754.757812 L 606.234375 731.144531 C 611.347656 733.792969 616.730469 735.984375 622.34375 737.65625 L 622.34375 768 L 675.308594 768 L 675.308594 737.65625 C 680.921875 735.988281 686.308594 733.796875 691.421875 731.144531 L 715.035156 754.757812 L 754.757812 715.035156 L 731.144531 691.421875 C 733.792969 686.308594 735.984375 680.921875 737.65625 675.308594 Z M 768 675.308594 " fill-opacity="1" fill-rule="nonzero"/><path fill="#e9eef2" d="M 688.550781 648.828125 C 688.550781 650.128906 688.488281 651.425781 688.359375 652.722656 C 688.234375 654.015625 688.042969 655.300781 687.789062 656.578125 C 687.535156 657.851562 687.21875 659.113281 686.839844 660.359375 C 686.464844 661.605469 686.027344 662.828125 685.527344 664.027344 C 685.03125 665.230469 684.472656 666.40625 683.859375 667.554688 C 683.246094 668.699219 682.578125 669.816406 681.855469 670.898438 C 681.132812 671.980469 680.359375 673.023438 679.535156 674.027344 C 678.710938 675.035156 677.835938 675.996094 676.917969 676.917969 C 675.996094 677.835938 675.035156 678.710938 674.027344 679.535156 C 673.023438 680.359375 671.980469 681.132812 670.898438 681.855469 C 669.816406 682.578125 668.699219 683.246094 667.554688 683.859375 C 666.40625 684.472656 665.230469 685.03125 664.027344 685.527344 C 662.828125 686.027344 661.605469 686.464844 660.359375 686.839844 C 659.113281 687.21875 657.851562 687.535156 656.578125 687.789062 C 655.300781 688.042969 654.015625 688.234375 652.722656 688.359375 C 651.425781 688.488281 650.128906 688.550781 648.828125 688.550781 C 647.527344 688.550781 646.230469 688.488281 644.933594 688.359375 C 643.640625 688.234375 642.355469 688.042969 641.078125 687.789062 C 639.800781 687.535156 638.542969 687.21875 637.296875 686.839844 C 636.050781 686.464844 634.828125 686.027344 633.625 685.527344 C 632.421875 685.03125 631.25 684.472656 630.101562 683.859375 C 628.953125 683.246094 627.839844 682.578125 626.757812 681.855469 C 625.675781 681.132812 624.632812 680.359375 623.625 679.535156 C 622.621094 678.710938 621.660156 677.835938 620.738281 676.917969 C 619.820312 675.996094 618.945312 675.035156 618.121094 674.027344 C 617.296875 673.023438 616.519531 671.980469 615.796875 670.898438 C 615.074219 669.816406 614.40625 668.699219 613.792969 667.554688 C 613.179688 666.40625 612.625 665.230469 612.128906 664.027344 C 611.628906 662.828125 611.191406 661.605469 610.8125 660.359375 C 610.4375 659.113281 610.121094 657.851562 609.867188 656.578125 C 609.613281 655.300781 609.421875 654.015625 609.292969 652.722656 C 609.167969 651.425781 609.101562 650.128906 609.101562 648.828125 C 609.101562 647.527344 609.167969 646.230469 609.292969 644.933594 C 609.421875 643.640625 609.613281 642.355469 609.867188 641.078125 C 610.121094 639.800781 610.4375 638.542969 610.8125 637.296875 C 611.191406 636.050781 611.628906 634.828125 612.128906 633.625 C 612.625 632.421875 613.179688 631.25 613.792969 630.101562 C 614.40625 628.953125 615.074219 627.839844 615.796875 626.757812 C 616.519531 625.675781 617.296875 624.632812 618.121094 623.625 C 618.945312 622.621094 619.820312 621.660156 620.738281 620.738281 C 621.660156 619.820312 622.621094 618.945312 623.625 618.121094 C 624.632812 617.296875 625.675781 616.519531 626.757812 615.796875 C 627.839844 615.074219 628.953125 614.40625 630.101562 613.792969 C 631.25 613.179688 632.421875 612.625 633.625 612.128906 C 634.828125 611.628906 636.050781 611.191406 637.296875 610.8125 C 638.542969 610.4375 639.800781 610.121094 641.078125 609.867188 C 642.355469 609.613281 643.640625 609.421875 644.933594 609.292969 C 646.230469 609.167969 647.527344 609.101562 648.828125 609.101562 C 650.128906 609.101562 651.425781 609.167969 652.722656 609.292969 C 654.015625 609.421875 655.300781 609.613281 656.578125 609.867188 C 657.851562 610.121094 659.113281 610.4375 660.359375 610.8125 C 661.605469 611.191406 662.828125 611.628906 664.027344 612.128906 C 665.230469 612.625 666.40625 613.179688 667.554688 613.792969 C 668.699219 614.40625 669.816406 615.074219 670.898438 615.796875 C 671.980469 616.519531 673.023438 617.296875 674.027344 618.121094 C 675.035156 618.945312 675.996094 619.820312 676.917969 620.738281 C 677.835938 621.660156 678.710938 622.621094 679.535156 623.625 C 680.359375 624.632812 681.132812 625.675781 681.855469 626.757812 C 682.578125 627.839844 683.246094 628.953125 683.859375 630.101562 C 684.472656 631.25 685.03125 632.421875 685.527344 633.625 C 686.027344 634.828125 686.464844 636.050781 686.839844 637.296875 C 687.21875 638.542969 687.535156 639.800781 687.789062 641.078125 C 688.042969 642.355469 688.234375 643.640625 688.359375 644.933594 C 688.488281 646.230469 688.550781 647.527344 688.550781 648.828125 Z M 688.550781 648.828125 " fill-opacity="1" fill-rule="nonzero"/></svg>