<svg xmlns="http://www.w3.org/2000/svg" xmlns:xlink="http://www.w3.org/1999/xlink" width="1000" zoomAndPan="magnify" viewBox="0 0 750 749.999995" height="1000" preserveAspectRatio="xMidYMid meet" version="1.0"><defs><clipPath id="bf59fbcc42"><path d="M 82.5 64 L 667.5 64 L 667.5 750 L 82.5 750 Z M 82.5 64 " clip-rule="nonzero"/></clipPath><clipPath id="51342d5da9"><path d="M 590 64 L 667.5 64 L 667.5 750 L 590 750 Z M 590 64 " clip-rule="nonzero"/></clipPath></defs><g clip-path="url(#bf59fbcc42)"><path fill="#837683" d="M 633.980469 64.054688 C 652.496094 64.054688 667.601562 79.160156 667.601562 97.675781 L 667.601562 716.359375 C 667.601562 734.878906 652.496094 749.980469 633.980469 749.980469 L 116.171875 749.980469 C 97.652344 749.980469 82.550781 734.875 82.550781 716.359375 L 82.550781 97.675781 C 82.550781 79.160156 97.65625 64.054688 116.171875 64.054688 Z M 633.980469 64.054688 " fill-opacity="1" fill-rule="evenodd"/></g><g clip-path="url(#51342d5da9)"><path fill="#685e68" d="M 590.585938 749.980469 L 633.980469 749.980469 C 652.496094 749.980469 667.601562 734.875 667.601562 716.359375 L 667.601562 97.675781 C 667.601562 79.160156 652.496094 64.054688 633.980469 64.054688 L 590.585938 64.054688 Z M 590.585938 749.980469 " fill-opacity="1" fill-rule="evenodd"/></g><path fill="#eceff1" d="M 605.707031 110.828125 L 144.441406 110.828125 C 136.113281 110.828125 129.324219 117.621094 129.324219 125.949219 L 129.324219 688.085938 C 129.324219 696.414062 136.113281 703.207031 144.441406 703.207031 L 605.707031 703.207031 C 614.035156 703.207031 620.828125 696.414062 620.828125 688.085938 L 620.828125 125.949219 C 620.828125 117.621094 614.035156 110.828125 605.707031 110.828125 Z M 605.707031 110.828125 " fill-opacity="1" fill-rule="evenodd"/><path fill="#d1d1d6" d="M 590.585938 703.207031 L 605.707031 703.207031 C 606.183594 703.207031 606.65625 703.183594 607.121094 703.140625 C 614.789062 702.425781 620.828125 695.941406 620.828125 688.085938 L 620.828125 125.949219 C 620.828125 118.097656 614.789062 111.609375 607.121094 110.894531 C 606.65625 110.851562 606.183594 110.828125 605.707031 110.828125 L 590.585938 110.828125 Z M 590.585938 703.207031 " fill-opacity="1" fill-rule="evenodd"/><path fill="#a79ba7" d="M 358.832031 554.691406 C 352.152344 554.691406 346.734375 549.273438 346.734375 542.59375 C 346.734375 535.914062 352.152344 530.5 358.832031 530.5 L 533.070312 530.5 C 539.75 530.5 545.164062 535.914062 545.164062 542.59375 C 545.164062 549.273438 539.75 554.691406 533.070312 554.691406 Z M 358.832031 236.621094 C 352.152344 236.621094 346.734375 231.203125 346.734375 224.523438 C 346.734375 217.84375 352.152344 212.429688 358.832031 212.429688 L 533.070312 212.429688 C 539.75 212.429688 545.164062 217.84375 545.164062 224.523438 C 545.164062 231.203125 539.75 236.621094 533.070312 236.621094 Z M 358.832031 303.859375 C 352.152344 303.859375 346.734375 298.445312 346.734375 291.761719 C 346.734375 285.082031 352.152344 279.667969 358.832031 279.667969 L 533.070312 279.667969 C 539.75 279.667969 545.164062 285.082031 545.164062 291.761719 C 545.164062 298.445312 539.75 303.859375 533.070312 303.859375 Z M 358.832031 395.65625 C 352.152344 395.65625 346.734375 390.238281 346.734375 383.558594 C 346.734375 376.878906 352.152344 371.464844 358.832031 371.464844 L 533.070312 371.464844 C 539.75 371.464844 545.164062 376.878906 545.164062 383.558594 C 545.164062 390.238281 539.75 395.65625 533.070312 395.65625 Z M 358.832031 462.894531 C 352.152344 462.894531 346.734375 457.480469 346.734375 450.800781 C 346.734375 444.117188 352.152344 438.703125 358.832031 438.703125 L 533.070312 438.703125 C 539.75 438.703125 545.164062 444.117188 545.164062 450.800781 C 545.164062 457.480469 539.75 462.894531 533.070312 462.894531 Z M 358.832031 621.929688 C 352.152344 621.929688 346.734375 616.515625 346.734375 609.835938 C 346.734375 603.15625 352.152344 597.738281 358.832031 597.738281 L 533.070312 597.738281 C 539.75 597.738281 545.164062 603.15625 545.164062 609.835938 C 545.164062 616.515625 539.75 621.929688 533.070312 621.929688 Z M 358.832031 621.929688 " fill-opacity="1" fill-rule="evenodd"/><path fill="#e3a76f" d="M 260.746094 43.730469 L 308.671875 43.730469 C 314.84375 43.730469 320.117188 40.257812 322.558594 34.589844 C 331.3125 14.257812 351.53125 0.0195312 375.074219 0.0195312 C 398.621094 0.0195312 418.839844 14.257812 427.59375 34.589844 C 430.035156 40.257812 435.308594 43.730469 441.480469 43.730469 L 489.40625 43.730469 C 497.734375 43.730469 504.527344 50.523438 504.527344 58.851562 L 504.527344 116.035156 C 504.527344 124.359375 497.734375 131.152344 489.40625 131.152344 L 260.746094 131.152344 C 252.417969 131.152344 245.625 124.363281 245.625 116.035156 L 245.625 58.847656 C 245.625 50.523438 252.417969 43.730469 260.746094 43.730469 Z M 260.746094 43.730469 " fill-opacity="1" fill-rule="evenodd"/><path fill="#c48958" d="M 474.285156 116.03125 L 245.625 116.035156 C 245.625 124.359375 252.417969 131.152344 260.746094 131.152344 L 489.410156 131.152344 C 497.738281 131.152344 504.527344 124.363281 504.527344 116.035156 L 504.527344 58.847656 C 504.527344 50.523438 497.738281 43.730469 489.410156 43.730469 L 489.410156 100.910156 C 489.410156 104.699219 488.003906 108.171875 485.6875 110.828125 C 482.910156 114.011719 478.824219 116.03125 474.285156 116.03125 Z M 474.285156 116.03125 " fill-opacity="1" fill-rule="evenodd"/><path fill="#8ac9fe" d="M 253.589844 259.742188 C 281.570312 259.742188 304.710938 280.472656 308.488281 307.410156 C 308.773438 309.4375 308.222656 311.292969 306.878906 312.835938 C 305.535156 314.378906 303.773438 315.183594 301.730469 315.183594 L 205.445312 315.183594 C 203.398438 315.183594 201.636719 314.378906 200.292969 312.835938 C 198.949219 311.292969 198.402344 309.4375 198.683594 307.410156 C 202.464844 280.46875 225.605469 259.742188 253.589844 259.742188 Z M 253.589844 259.742188 " fill-opacity="1" fill-rule="evenodd"/><path fill="#60b7ff" d="M 308.488281 307.410156 C 304.710938 280.472656 281.570312 259.742188 253.589844 259.742188 C 251.863281 259.742188 250.15625 259.820312 248.46875 259.976562 C 274.113281 262.320312 294.707031 282.132812 298.253906 307.410156 C 298.539062 309.4375 297.988281 311.292969 296.644531 312.835938 C 295.300781 314.378906 293.539062 315.183594 291.496094 315.183594 L 301.730469 315.183594 C 303.773438 315.183594 305.535156 314.378906 306.878906 312.835938 C 308.222656 311.292969 308.769531 309.4375 308.488281 307.410156 Z M 308.488281 307.410156 " fill-opacity="1" fill-rule="evenodd"/><path fill="#f6dccd" d="M 264.316406 202.394531 C 265.167969 202.746094 265.996094 203.136719 266.804688 203.570312 C 267.613281 204.003906 268.402344 204.472656 269.164062 204.984375 C 269.925781 205.496094 270.664062 206.039062 271.375 206.621094 C 272.082031 207.207031 272.761719 207.820312 273.410156 208.46875 C 274.0625 209.121094 274.675781 209.800781 275.257812 210.507812 C 275.839844 211.21875 276.386719 211.953125 276.898438 212.71875 C 277.40625 213.480469 277.878906 214.269531 278.3125 215.078125 C 278.746094 215.886719 279.136719 216.714844 279.488281 217.5625 C 279.839844 218.414062 280.148438 219.277344 280.414062 220.15625 C 280.679688 221.03125 280.902344 221.921875 281.082031 222.824219 C 281.261719 223.722656 281.398438 224.628906 281.488281 225.542969 C 281.578125 226.457031 281.621094 227.375 281.621094 228.292969 C 281.621094 229.210938 281.578125 230.125 281.488281 231.039062 C 281.398438 231.953125 281.261719 232.859375 281.082031 233.761719 C 280.902344 234.660156 280.679688 235.550781 280.414062 236.429688 C 280.148438 237.308594 279.839844 238.171875 279.488281 239.019531 C 279.136719 239.867188 278.746094 240.695312 278.3125 241.503906 C 277.878906 242.316406 277.40625 243.101562 276.898438 243.863281 C 276.386719 244.628906 275.839844 245.363281 275.257812 246.074219 C 274.675781 246.785156 274.0625 247.464844 273.410156 248.113281 C 272.761719 248.761719 272.082031 249.378906 271.375 249.960938 C 270.664062 250.542969 269.925781 251.089844 269.164062 251.597656 C 268.402344 252.109375 267.613281 252.582031 266.804688 253.011719 C 265.996094 253.445312 265.164062 253.835938 264.316406 254.1875 C 263.46875 254.539062 262.605469 254.847656 261.726562 255.117188 C 260.847656 255.382812 259.960938 255.605469 259.058594 255.785156 C 258.160156 255.964844 257.25 256.097656 256.339844 256.1875 C 255.425781 256.277344 254.507812 256.324219 253.589844 256.324219 C 252.671875 256.324219 251.757812 256.277344 250.84375 256.1875 C 249.929688 256.097656 249.023438 255.964844 248.121094 255.785156 C 247.222656 255.605469 246.332031 255.382812 245.453125 255.117188 C 244.574219 254.847656 243.710938 254.539062 242.863281 254.1875 C 242.015625 253.835938 241.1875 253.445312 240.375 253.011719 C 239.566406 252.582031 238.78125 252.109375 238.015625 251.597656 C 237.253906 251.089844 236.515625 250.542969 235.808594 249.960938 C 235.097656 249.378906 234.417969 248.761719 233.769531 248.113281 C 233.121094 247.464844 232.503906 246.785156 231.921875 246.074219 C 231.339844 245.363281 230.792969 244.628906 230.285156 243.863281 C 229.773438 243.101562 229.300781 242.316406 228.871094 241.503906 C 228.4375 240.695312 228.042969 239.867188 227.691406 239.019531 C 227.34375 238.171875 227.03125 237.308594 226.765625 236.429688 C 226.5 235.550781 226.277344 234.660156 226.097656 233.761719 C 225.917969 232.859375 225.785156 231.953125 225.695312 231.039062 C 225.605469 230.125 225.558594 229.210938 225.558594 228.292969 C 225.558594 227.375 225.605469 226.457031 225.695312 225.542969 C 225.785156 224.628906 225.917969 223.722656 226.097656 222.824219 C 226.277344 221.921875 226.5 221.03125 226.765625 220.15625 C 227.03125 219.277344 227.34375 218.414062 227.691406 217.5625 C 228.042969 216.714844 228.4375 215.886719 228.871094 215.078125 C 229.300781 214.269531 229.773438 213.480469 230.285156 212.71875 C 230.792969 211.953125 231.339844 211.21875 231.921875 210.507812 C 232.503906 209.800781 233.121094 209.121094 233.769531 208.46875 C 234.417969 207.820312 235.097656 207.207031 235.808594 206.625 C 236.515625 206.039062 237.253906 205.496094 238.015625 204.984375 C 238.78125 204.472656 239.566406 204.003906 240.375 203.570312 C 241.1875 203.136719 242.015625 202.746094 242.863281 202.394531 C 243.710938 202.042969 244.574219 201.734375 245.453125 201.46875 C 246.332031 201.199219 247.222656 200.976562 248.121094 200.800781 C 249.023438 200.621094 249.929688 200.484375 250.84375 200.394531 C 251.757812 200.304688 252.671875 200.261719 253.589844 200.261719 C 254.507812 200.261719 255.425781 200.304688 256.339844 200.394531 C 257.25 200.484375 258.160156 200.621094 259.058594 200.800781 C 259.960938 200.976562 260.847656 201.199219 261.726562 201.46875 C 262.605469 201.734375 263.46875 202.042969 264.316406 202.394531 Z M 264.316406 202.394531 " fill-opacity="1" fill-rule="nonzero"/><path fill="#f1cbbc" d="M 271.382812 228.300781 C 271.382812 242.03125 261.507812 253.460938 248.46875 255.863281 C 250.128906 256.171875 251.839844 256.328125 253.589844 256.328125 C 269.070312 256.328125 281.617188 243.78125 281.617188 228.296875 C 281.617188 212.816406 269.066406 200.265625 253.589844 200.265625 C 251.839844 200.265625 250.128906 200.425781 248.46875 200.730469 C 261.507812 203.140625 271.382812 214.566406 271.382812 228.300781 Z M 271.382812 228.300781 " fill-opacity="1" fill-rule="evenodd"/><path fill="#8ac9fe" d="M 253.589844 418.777344 C 281.570312 418.777344 304.710938 439.507812 308.488281 466.445312 C 308.773438 468.472656 308.222656 470.328125 306.878906 471.871094 C 305.535156 473.414062 303.773438 474.21875 301.730469 474.21875 L 205.445312 474.21875 C 203.398438 474.21875 201.636719 473.414062 200.292969 471.871094 C 198.949219 470.328125 198.402344 468.472656 198.683594 466.445312 C 202.464844 439.507812 225.605469 418.777344 253.589844 418.777344 Z M 253.589844 418.777344 " fill-opacity="1" fill-rule="evenodd"/><path fill="#60b7ff" d="M 308.488281 466.445312 C 304.710938 439.507812 281.570312 418.777344 253.589844 418.777344 C 251.863281 418.777344 250.15625 418.855469 248.46875 419.011719 C 274.113281 421.355469 294.707031 441.167969 298.253906 466.445312 C 298.539062 468.472656 297.988281 470.328125 296.644531 471.871094 C 295.300781 473.414062 293.539062 474.21875 291.496094 474.21875 L 301.730469 474.21875 C 303.773438 474.21875 305.535156 473.414062 306.878906 471.871094 C 308.222656 470.328125 308.769531 468.472656 308.488281 466.445312 Z M 308.488281 466.445312 " fill-opacity="1" fill-rule="evenodd"/><path fill="#f6dccd" d="M 280.886719 380.875 C 281.097656 381.769531 281.261719 382.671875 281.386719 383.582031 C 281.507812 384.492188 281.585938 385.402344 281.617188 386.320312 C 281.648438 387.238281 281.636719 388.15625 281.582031 389.070312 C 281.523438 389.988281 281.421875 390.898438 281.273438 391.804688 C 281.125 392.710938 280.933594 393.609375 280.699219 394.496094 C 280.464844 395.382812 280.1875 396.257812 279.867188 397.117188 C 279.546875 397.976562 279.183594 398.820312 278.777344 399.644531 C 278.375 400.46875 277.933594 401.273438 277.449219 402.054688 C 276.96875 402.832031 276.445312 403.589844 275.890625 404.320312 C 275.332031 405.050781 274.742188 405.75 274.117188 406.421875 C 273.492188 407.09375 272.832031 407.734375 272.144531 408.339844 C 271.457031 408.949219 270.738281 409.519531 269.996094 410.054688 C 269.25 410.59375 268.480469 411.09375 267.6875 411.554688 C 266.894531 412.015625 266.078125 412.4375 265.246094 412.816406 C 264.410156 413.199219 263.558594 413.539062 262.6875 413.835938 C 261.820312 414.132812 260.9375 414.386719 260.046875 414.597656 C 259.152344 414.808594 258.25 414.976562 257.339844 415.097656 C 256.429688 415.222656 255.515625 415.296875 254.601562 415.332031 C 253.683594 415.363281 252.765625 415.351562 251.847656 415.292969 C 250.933594 415.234375 250.023438 415.132812 249.117188 414.988281 C 248.210938 414.839844 247.3125 414.648438 246.425781 414.414062 C 245.539062 414.179688 244.664062 413.902344 243.804688 413.578125 C 242.941406 413.257812 242.101562 412.894531 241.277344 412.492188 C 240.453125 412.089844 239.648438 411.644531 238.867188 411.164062 C 238.085938 410.679688 237.332031 410.160156 236.601562 409.605469 C 235.871094 409.046875 235.171875 408.457031 234.5 407.832031 C 233.828125 407.203125 233.1875 406.546875 232.582031 405.859375 C 231.972656 405.171875 231.402344 404.453125 230.863281 403.707031 C 230.328125 402.964844 229.828125 402.195312 229.367188 401.402344 C 228.90625 400.605469 228.484375 399.792969 228.105469 398.957031 C 227.722656 398.121094 227.382812 397.269531 227.085938 396.402344 C 226.789062 395.535156 226.535156 394.652344 226.324219 393.757812 C 226.113281 392.867188 225.945312 391.964844 225.824219 391.054688 C 225.699219 390.144531 225.621094 389.230469 225.589844 388.3125 C 225.558594 387.394531 225.570312 386.480469 225.628906 385.5625 C 225.683594 384.644531 225.789062 383.734375 225.933594 382.828125 C 226.082031 381.921875 226.273438 381.027344 226.507812 380.136719 C 226.742188 379.25 227.019531 378.378906 227.339844 377.515625 C 227.664062 376.65625 228.023438 375.816406 228.429688 374.988281 C 228.832031 374.164062 229.277344 373.363281 229.757812 372.582031 C 230.242188 371.800781 230.761719 371.046875 231.316406 370.316406 C 231.875 369.585938 232.464844 368.882812 233.089844 368.210938 C 233.714844 367.542969 234.375 366.902344 235.0625 366.292969 C 235.75 365.6875 236.46875 365.113281 237.210938 364.578125 C 237.957031 364.042969 238.726562 363.542969 239.519531 363.082031 C 240.3125 362.621094 241.128906 362.199219 241.964844 361.816406 C 242.796875 361.4375 243.652344 361.097656 244.519531 360.800781 C 245.386719 360.5 246.269531 360.246094 247.160156 360.035156 C 248.054688 359.824219 248.957031 359.660156 249.867188 359.535156 C 250.777344 359.414062 251.691406 359.335938 252.609375 359.304688 C 253.527344 359.269531 254.441406 359.285156 255.359375 359.339844 C 256.273438 359.398438 257.1875 359.5 258.09375 359.648438 C 259 359.792969 259.894531 359.984375 260.78125 360.222656 C 261.671875 360.457031 262.542969 360.734375 263.402344 361.054688 C 264.265625 361.375 265.105469 361.738281 265.929688 362.140625 C 266.753906 362.546875 267.558594 362.988281 268.339844 363.472656 C 269.121094 363.953125 269.875 364.472656 270.605469 365.03125 C 271.335938 365.585938 272.035156 366.179688 272.707031 366.804688 C 273.378906 367.429688 274.019531 368.085938 274.625 368.777344 C 275.234375 369.464844 275.804688 370.179688 276.34375 370.925781 C 276.878906 371.671875 277.378906 372.441406 277.839844 373.234375 C 278.300781 374.027344 278.722656 374.839844 279.105469 375.675781 C 279.484375 376.511719 279.824219 377.363281 280.121094 378.234375 C 280.417969 379.101562 280.675781 379.980469 280.886719 380.875 Z M 280.886719 380.875 " fill-opacity="1" fill-rule="nonzero"/><path fill="#f1cbbc" d="M 271.382812 387.335938 C 271.382812 401.066406 261.507812 412.496094 248.46875 414.898438 C 250.128906 415.207031 251.839844 415.363281 253.589844 415.363281 C 269.070312 415.363281 281.617188 402.816406 281.617188 387.332031 C 281.617188 371.851562 269.066406 359.300781 253.589844 359.300781 C 251.839844 359.300781 250.128906 359.460938 248.46875 359.769531 C 261.507812 362.175781 271.382812 373.601562 271.382812 387.335938 Z M 271.382812 387.335938 " fill-opacity="1" fill-rule="evenodd"/><path fill="#8ac9fe" d="M 253.589844 577.8125 C 281.570312 577.8125 304.710938 598.542969 308.488281 625.484375 C 308.773438 627.507812 308.222656 629.363281 306.878906 630.90625 C 305.535156 632.453125 303.773438 633.253906 301.730469 633.253906 L 205.445312 633.253906 C 203.398438 633.253906 201.636719 632.453125 200.292969 630.90625 C 198.949219 629.363281 198.402344 627.507812 198.683594 625.484375 C 202.464844 598.542969 225.605469 577.8125 253.589844 577.8125 Z M 253.589844 577.8125 " fill-opacity="1" fill-rule="evenodd"/><path fill="#60b7ff" d="M 308.488281 625.484375 C 304.710938 598.542969 281.570312 577.8125 253.589844 577.8125 C 251.863281 577.8125 250.15625 577.890625 248.46875 578.046875 C 274.113281 580.394531 294.707031 600.203125 298.253906 625.484375 C 298.539062 627.507812 297.988281 629.363281 296.644531 630.90625 C 295.300781 632.453125 293.539062 633.253906 291.496094 633.253906 L 301.730469 633.253906 C 303.773438 633.253906 305.535156 632.453125 306.878906 630.90625 C 308.222656 629.363281 308.769531 627.507812 308.488281 625.484375 Z M 308.488281 625.484375 " fill-opacity="1" fill-rule="evenodd"/><path fill="#f6dccd" d="M 273.402344 526.546875 C 274.050781 527.195312 274.667969 527.875 275.25 528.585938 C 275.832031 529.292969 276.378906 530.03125 276.886719 530.792969 C 277.398438 531.558594 277.871094 532.34375 278.304688 533.152344 C 278.734375 533.964844 279.128906 534.792969 279.480469 535.640625 C 279.832031 536.488281 280.140625 537.351562 280.40625 538.230469 C 280.671875 539.109375 280.894531 540 281.074219 540.898438 C 281.253906 541.800781 281.386719 542.707031 281.476562 543.621094 C 281.566406 544.535156 281.613281 545.449219 281.613281 546.367188 C 281.613281 547.285156 281.566406 548.203125 281.476562 549.117188 C 281.386719 550.027344 281.253906 550.9375 281.074219 551.835938 C 280.894531 552.738281 280.671875 553.625 280.40625 554.503906 C 280.140625 555.382812 279.832031 556.246094 279.480469 557.09375 C 279.128906 557.941406 278.734375 558.773438 278.304688 559.582031 C 277.871094 560.390625 277.398438 561.179688 276.890625 561.941406 C 276.378906 562.703125 275.832031 563.441406 275.25 564.152344 C 274.667969 564.859375 274.050781 565.539062 273.402344 566.1875 C 272.753906 566.839844 272.074219 567.453125 271.363281 568.035156 C 270.65625 568.617188 269.917969 569.164062 269.15625 569.675781 C 268.390625 570.183594 267.605469 570.65625 266.796875 571.089844 C 265.988281 571.523438 265.15625 571.914062 264.308594 572.265625 C 263.460938 572.617188 262.597656 572.925781 261.71875 573.191406 C 260.839844 573.457031 259.953125 573.679688 259.050781 573.859375 C 258.152344 574.039062 257.242188 574.175781 256.328125 574.265625 C 255.417969 574.355469 254.5 574.398438 253.582031 574.398438 C 252.664062 574.398438 251.75 574.355469 250.835938 574.265625 C 249.921875 574.175781 249.015625 574.039062 248.113281 573.859375 C 247.214844 573.683594 246.324219 573.460938 245.445312 573.191406 C 244.566406 572.925781 243.703125 572.617188 242.855469 572.265625 C 242.007812 571.914062 241.179688 571.523438 240.367188 571.089844 C 239.558594 570.65625 238.773438 570.1875 238.007812 569.675781 C 237.246094 569.164062 236.507812 568.621094 235.800781 568.035156 C 235.089844 567.453125 234.410156 566.839844 233.761719 566.191406 C 233.113281 565.539062 232.496094 564.859375 231.914062 564.152344 C 231.332031 563.441406 230.785156 562.707031 230.273438 561.941406 C 229.765625 561.179688 229.292969 560.390625 228.859375 559.582031 C 228.429688 558.773438 228.035156 557.945312 227.683594 557.097656 C 227.332031 556.246094 227.023438 555.382812 226.757812 554.503906 C 226.492188 553.628906 226.269531 552.738281 226.089844 551.835938 C 225.910156 550.9375 225.777344 550.03125 225.683594 549.117188 C 225.59375 548.203125 225.550781 547.285156 225.550781 546.367188 C 225.550781 545.449219 225.59375 544.535156 225.683594 543.621094 C 225.777344 542.707031 225.910156 541.800781 226.089844 540.898438 C 226.269531 540 226.492188 539.109375 226.757812 538.230469 C 227.023438 537.351562 227.332031 536.488281 227.683594 535.640625 C 228.035156 534.792969 228.425781 533.964844 228.859375 533.15625 C 229.292969 532.34375 229.765625 531.558594 230.273438 530.796875 C 230.785156 530.03125 231.332031 529.296875 231.914062 528.585938 C 232.496094 527.875 233.109375 527.195312 233.761719 526.546875 C 234.410156 525.898438 235.089844 525.28125 235.796875 524.699219 C 236.507812 524.117188 237.246094 523.570312 238.007812 523.0625 C 238.769531 522.550781 239.558594 522.078125 240.367188 521.648438 C 241.175781 521.214844 242.007812 520.820312 242.855469 520.472656 C 243.703125 520.121094 244.566406 519.808594 245.445312 519.542969 C 246.324219 519.277344 247.210938 519.054688 248.113281 518.875 C 249.011719 518.695312 249.921875 518.5625 250.832031 518.472656 C 251.746094 518.382812 252.664062 518.335938 253.582031 518.335938 C 254.5 518.335938 255.414062 518.382812 256.328125 518.472656 C 257.242188 518.5625 258.148438 518.695312 259.050781 518.875 C 259.949219 519.054688 260.839844 519.277344 261.71875 519.542969 C 262.597656 519.808594 263.460938 520.117188 264.308594 520.46875 C 265.15625 520.820312 265.984375 521.214844 266.796875 521.648438 C 267.605469 522.078125 268.390625 522.550781 269.15625 523.0625 C 269.917969 523.570312 270.65625 524.117188 271.363281 524.699219 C 272.074219 525.28125 272.753906 525.898438 273.402344 526.546875 Z M 273.402344 526.546875 " fill-opacity="1" fill-rule="nonzero"/><path fill="#f1cbbc" d="M 271.382812 546.371094 C 271.382812 560.101562 261.507812 571.53125 248.46875 573.933594 C 250.128906 574.242188 251.839844 574.402344 253.589844 574.402344 C 269.070312 574.402344 281.617188 561.851562 281.617188 546.371094 C 281.617188 530.890625 269.066406 518.335938 253.589844 518.335938 C 251.839844 518.335938 250.128906 518.5 248.46875 518.804688 C 261.507812 521.210938 271.382812 532.636719 271.382812 546.371094 Z M 271.382812 546.371094 " fill-opacity="1" fill-rule="evenodd"/></svg>