<svg xmlns="http://www.w3.org/2000/svg" xmlns:xlink="http://www.w3.org/1999/xlink" width="1024" zoomAndPan="magnify" viewBox="0 0 768 767.999994" height="1024" preserveAspectRatio="xMidYMid meet" version="1.0"><defs><clipPath id="e54ef5e428"><path d="M 84.480469 65 L 683.636719 65 L 683.636719 768 L 84.480469 768 Z M 84.480469 65 " clip-rule="nonzero"/></clipPath><clipPath id="f6213de80c"><path d="M 604 65 L 683.636719 65 L 683.636719 768 L 604 768 Z M 604 65 " clip-rule="nonzero"/></clipPath></defs><g clip-path="url(#e54ef5e428)"><path fill="#837683" d="M 649.234375 65.574219 C 668.199219 65.574219 683.671875 81.042969 683.671875 100.007812 L 683.671875 733.570312 C 683.671875 752.53125 668.199219 768 649.234375 768 L 118.945312 768 C 99.976562 768 84.511719 752.53125 84.511719 733.570312 L 84.511719 100.007812 C 84.511719 81.042969 99.980469 65.574219 118.945312 65.574219 Z M 649.234375 65.574219 " fill-opacity="1" fill-rule="evenodd"/></g><g clip-path="url(#f6213de80c)"><path fill="#685e68" d="M 604.796875 768 L 649.234375 768 C 668.199219 768 683.671875 752.53125 683.671875 733.570312 L 683.671875 100.007812 C 683.671875 81.042969 668.199219 65.574219 649.234375 65.574219 L 604.796875 65.574219 Z M 604.796875 768 " fill-opacity="1" fill-rule="evenodd"/></g><path fill="#eceff1" d="M 620.285156 113.476562 L 147.894531 113.476562 C 139.367188 113.476562 132.410156 120.429688 132.410156 128.957031 L 132.410156 704.617188 C 132.410156 713.148438 139.367188 720.101562 147.894531 720.101562 L 620.28125 720.101562 C 628.8125 720.101562 635.765625 713.148438 635.765625 704.617188 L 635.765625 128.957031 C 635.769531 120.429688 628.8125 113.476562 620.285156 113.476562 Z M 620.285156 113.476562 " fill-opacity="1" fill-rule="evenodd"/><path fill="#d1d1d6" d="M 604.796875 720.101562 L 620.285156 720.101562 C 620.769531 720.101562 621.253906 720.078125 621.730469 720.035156 C 629.585938 719.300781 635.769531 712.660156 635.769531 704.617188 L 635.769531 128.957031 C 635.769531 120.917969 629.585938 114.273438 621.730469 113.542969 C 621.253906 113.496094 620.769531 113.476562 620.285156 113.476562 L 604.796875 113.476562 Z M 604.796875 720.101562 " fill-opacity="1" fill-rule="evenodd"/><path fill="#a79ba7" d="M 367.453125 568.011719 C 360.613281 568.011719 355.066406 562.46875 355.066406 555.625 C 355.066406 548.785156 360.613281 543.238281 367.453125 543.238281 L 545.894531 543.238281 C 552.734375 543.238281 558.28125 548.785156 558.28125 555.625 C 558.28125 562.46875 552.734375 568.011719 545.894531 568.011719 Z M 367.453125 242.292969 C 360.613281 242.292969 355.066406 236.746094 355.066406 229.90625 C 355.066406 223.0625 360.613281 217.515625 367.453125 217.515625 L 545.894531 217.515625 C 552.734375 217.515625 558.28125 223.0625 558.28125 229.90625 C 558.28125 236.746094 552.734375 242.292969 545.894531 242.292969 Z M 367.453125 311.148438 C 360.613281 311.148438 355.066406 305.601562 355.066406 298.761719 C 355.066406 291.921875 360.613281 286.375 367.453125 286.375 L 545.894531 286.375 C 552.734375 286.375 558.28125 291.921875 558.28125 298.761719 C 558.28125 305.601562 552.734375 311.148438 545.894531 311.148438 Z M 367.453125 405.152344 C 360.613281 405.152344 355.066406 399.605469 355.066406 392.765625 C 355.066406 385.925781 360.613281 380.378906 367.453125 380.378906 L 545.894531 380.378906 C 552.734375 380.378906 558.28125 385.925781 558.28125 392.765625 C 558.28125 399.605469 552.734375 405.152344 545.894531 405.152344 Z M 367.453125 474.007812 C 360.613281 474.007812 355.066406 468.464844 355.066406 461.621094 C 355.066406 454.78125 360.613281 449.234375 367.453125 449.234375 L 545.894531 449.234375 C 552.734375 449.234375 558.28125 454.78125 558.28125 461.621094 C 558.28125 468.464844 552.734375 474.007812 545.894531 474.007812 Z M 367.453125 636.871094 C 360.613281 636.871094 355.066406 631.324219 355.066406 624.484375 C 355.066406 617.640625 360.613281 612.097656 367.453125 612.097656 L 545.894531 612.097656 C 552.734375 612.097656 558.28125 617.640625 558.28125 624.484375 C 558.28125 631.324219 552.734375 636.871094 545.894531 636.871094 Z M 367.453125 636.871094 " fill-opacity="1" fill-rule="evenodd"/><path fill="#e3a76f" d="M 267 44.761719 L 316.082031 44.761719 C 322.40625 44.761719 327.804688 41.207031 330.304688 35.402344 C 339.273438 14.578125 359.976562 0 384.089844 0 C 408.203125 0 428.90625 14.578125 437.875 35.402344 C 440.375 41.207031 445.773438 44.761719 452.09375 44.761719 L 501.175781 44.761719 C 509.707031 44.761719 516.664062 51.71875 516.664062 60.246094 L 516.664062 118.804688 C 516.664062 127.332031 509.707031 134.289062 501.175781 134.289062 L 267 134.289062 C 258.472656 134.289062 251.515625 127.332031 251.515625 118.804688 L 251.515625 60.246094 C 251.515625 51.71875 258.472656 44.761719 267 44.761719 Z M 267 44.761719 " fill-opacity="1" fill-rule="evenodd"/><path fill="#c48958" d="M 485.691406 118.804688 L 251.515625 118.804688 C 251.515625 127.332031 258.472656 134.289062 267 134.289062 L 501.179688 134.289062 C 509.707031 134.289062 516.664062 127.332031 516.664062 118.804688 L 516.664062 60.246094 C 516.664062 51.71875 509.707031 44.761719 501.179688 44.761719 L 501.179688 103.320312 C 501.179688 107.199219 499.738281 110.753906 497.367188 113.476562 C 494.523438 116.734375 490.339844 118.804688 485.691406 118.804688 Z M 485.691406 118.804688 " fill-opacity="1" fill-rule="evenodd"/><path fill="#8ac9fe" d="M 259.671875 265.96875 C 288.328125 265.96875 312.027344 287.199219 315.894531 314.785156 C 316.1875 316.859375 315.625 318.761719 314.25 320.339844 C 312.875 321.921875 311.070312 322.746094 308.972656 322.746094 L 210.367188 322.746094 C 208.273438 322.746094 206.46875 321.921875 205.09375 320.339844 C 203.71875 318.761719 203.15625 316.859375 203.445312 314.785156 C 207.320312 287.195312 231.015625 265.96875 259.671875 265.96875 Z M 259.671875 265.96875 " fill-opacity="1" fill-rule="evenodd"/><path fill="#60b7ff" d="M 315.894531 314.785156 C 312.027344 287.199219 288.328125 265.96875 259.671875 265.96875 C 257.90625 265.96875 256.15625 266.050781 254.429688 266.207031 C 280.691406 268.609375 301.78125 288.898438 305.414062 314.785156 C 305.707031 316.859375 305.140625 318.761719 303.765625 320.339844 C 302.390625 321.921875 300.585938 322.746094 298.492188 322.746094 L 308.972656 322.746094 C 311.070312 322.746094 312.875 321.921875 314.25 320.339844 C 315.625 318.761719 316.1875 316.859375 315.894531 314.785156 Z M 315.894531 314.785156 " fill-opacity="1" fill-rule="evenodd"/><path fill="#f6dccd" d="M 270.660156 207.242188 C 271.53125 207.601562 272.378906 208.003906 273.207031 208.445312 C 274.035156 208.890625 274.84375 209.371094 275.625 209.894531 C 276.40625 210.417969 277.160156 210.976562 277.886719 211.574219 C 278.613281 212.167969 279.308594 212.800781 279.972656 213.464844 C 280.640625 214.128906 281.269531 214.824219 281.867188 215.550781 C 282.460938 216.277344 283.023438 217.03125 283.542969 217.816406 C 284.066406 218.597656 284.550781 219.402344 284.992188 220.230469 C 285.4375 221.058594 285.835938 221.910156 286.195312 222.777344 C 286.558594 223.644531 286.875 224.53125 287.144531 225.429688 C 287.417969 226.328125 287.648438 227.242188 287.832031 228.164062 C 288.015625 229.085938 288.152344 230.011719 288.246094 230.949219 C 288.335938 231.882812 288.382812 232.824219 288.382812 233.761719 C 288.382812 234.703125 288.335938 235.640625 288.246094 236.578125 C 288.152344 237.511719 288.015625 238.441406 287.832031 239.363281 C 287.648438 240.285156 287.417969 241.195312 287.144531 242.09375 C 286.875 242.996094 286.558594 243.878906 286.199219 244.746094 C 285.835938 245.617188 285.4375 246.464844 284.992188 247.292969 C 284.550781 248.125 284.066406 248.929688 283.542969 249.710938 C 283.023438 250.492188 282.460938 251.246094 281.867188 251.972656 C 281.269531 252.699219 280.640625 253.394531 279.972656 254.0625 C 279.308594 254.726562 278.613281 255.355469 277.886719 255.953125 C 277.160156 256.550781 276.40625 257.109375 275.625 257.628906 C 274.84375 258.152344 274.035156 258.636719 273.207031 259.078125 C 272.378906 259.523438 271.53125 259.921875 270.660156 260.285156 C 269.792969 260.644531 268.910156 260.960938 268.007812 261.230469 C 267.109375 261.503906 266.199219 261.734375 265.277344 261.917969 C 264.355469 262.101562 263.425781 262.238281 262.488281 262.332031 C 261.554688 262.421875 260.617188 262.46875 259.675781 262.46875 C 258.734375 262.46875 257.796875 262.421875 256.863281 262.332031 C 255.925781 262.238281 254.996094 262.101562 254.074219 261.917969 C 253.152344 261.734375 252.242188 261.503906 251.34375 261.230469 C 250.441406 260.960938 249.558594 260.644531 248.691406 260.285156 C 247.820312 259.921875 246.972656 259.523438 246.144531 259.078125 C 245.3125 258.636719 244.507812 258.152344 243.726562 257.628906 C 242.945312 257.109375 242.191406 256.550781 241.464844 255.953125 C 240.738281 255.355469 240.039062 254.726562 239.375 254.0625 C 238.710938 253.394531 238.082031 252.699219 237.484375 251.972656 C 236.886719 251.246094 236.328125 250.492188 235.804688 249.710938 C 235.285156 248.929688 234.800781 248.125 234.359375 247.292969 C 233.914062 246.464844 233.511719 245.617188 233.152344 244.746094 C 232.792969 243.878906 232.476562 242.996094 232.203125 242.09375 C 231.929688 241.195312 231.703125 240.285156 231.519531 239.363281 C 231.335938 238.441406 231.199219 237.511719 231.105469 236.578125 C 231.015625 235.640625 230.96875 234.703125 230.96875 233.761719 C 230.96875 232.824219 231.015625 231.886719 231.105469 230.949219 C 231.199219 230.011719 231.335938 229.085938 231.519531 228.164062 C 231.703125 227.242188 231.929688 226.328125 232.203125 225.429688 C 232.476562 224.53125 232.792969 223.644531 233.152344 222.777344 C 233.511719 221.910156 233.914062 221.058594 234.359375 220.230469 C 234.800781 219.402344 235.285156 218.597656 235.804688 217.816406 C 236.328125 217.03125 236.886719 216.277344 237.484375 215.550781 C 238.082031 214.824219 238.710938 214.128906 239.375 213.464844 C 240.039062 212.800781 240.738281 212.167969 241.464844 211.574219 C 242.191406 210.976562 242.945312 210.417969 243.726562 209.894531 C 244.507812 209.371094 245.3125 208.890625 246.144531 208.445312 C 246.972656 208.003906 247.820312 207.601562 248.691406 207.242188 C 249.558594 206.882812 250.441406 206.566406 251.34375 206.292969 C 252.242188 206.019531 253.152344 205.792969 254.074219 205.609375 C 254.996094 205.425781 255.925781 205.289062 256.863281 205.195312 C 257.796875 205.101562 258.734375 205.058594 259.675781 205.058594 C 260.617188 205.058594 261.554688 205.101562 262.488281 205.195312 C 263.425781 205.289062 264.355469 205.425781 265.277344 205.609375 C 266.199219 205.792969 267.109375 206.019531 268.007812 206.292969 C 268.910156 206.566406 269.792969 206.882812 270.660156 207.242188 Z M 270.660156 207.242188 " fill-opacity="1" fill-rule="nonzero"/><path fill="#f1cbbc" d="M 277.894531 233.769531 C 277.894531 247.835938 267.78125 259.535156 254.429688 261.996094 C 256.128906 262.3125 257.882812 262.476562 259.671875 262.476562 C 275.527344 262.476562 288.378906 249.625 288.378906 233.769531 C 288.378906 217.917969 275.527344 205.0625 259.671875 205.0625 C 257.882812 205.0625 256.132812 205.226562 254.429688 205.539062 C 267.78125 208.003906 277.894531 219.707031 277.894531 233.769531 Z M 277.894531 233.769531 " fill-opacity="1" fill-rule="evenodd"/><path fill="#8ac9fe" d="M 259.671875 428.832031 C 288.328125 428.832031 312.027344 450.058594 315.894531 477.644531 C 316.1875 479.722656 315.625 481.621094 314.25 483.203125 C 312.875 484.78125 311.070312 485.605469 308.972656 485.605469 L 210.367188 485.605469 C 208.273438 485.605469 206.46875 484.78125 205.09375 483.203125 C 203.71875 481.621094 203.15625 479.722656 203.445312 477.644531 C 207.320312 450.058594 231.015625 428.832031 259.671875 428.832031 Z M 259.671875 428.832031 " fill-opacity="1" fill-rule="evenodd"/><path fill="#60b7ff" d="M 315.894531 477.644531 C 312.027344 450.058594 288.328125 428.832031 259.671875 428.832031 C 257.90625 428.832031 256.15625 428.910156 254.429688 429.070312 C 280.691406 431.472656 301.78125 451.761719 305.414062 477.644531 C 305.707031 479.722656 305.140625 481.621094 303.765625 483.203125 C 302.390625 484.78125 300.585938 485.605469 298.492188 485.605469 L 308.972656 485.605469 C 311.070312 485.605469 312.875 484.78125 314.25 483.203125 C 315.625 481.621094 316.1875 479.722656 315.894531 477.644531 Z M 315.894531 477.644531 " fill-opacity="1" fill-rule="evenodd"/><path fill="#f6dccd" d="M 287.628906 390.015625 C 287.84375 390.933594 288.015625 391.855469 288.140625 392.785156 C 288.265625 393.71875 288.34375 394.652344 288.378906 395.59375 C 288.410156 396.535156 288.398438 397.472656 288.339844 398.410156 C 288.28125 399.347656 288.175781 400.28125 288.027344 401.210938 C 287.875 402.136719 287.679688 403.054688 287.4375 403.964844 C 287.199219 404.875 286.914062 405.769531 286.585938 406.648438 C 286.253906 407.53125 285.882812 408.394531 285.472656 409.238281 C 285.058594 410.082031 284.605469 410.902344 284.109375 411.703125 C 283.613281 412.503906 283.082031 413.277344 282.511719 414.023438 C 281.941406 414.773438 281.335938 415.488281 280.695312 416.175781 C 280.054688 416.867188 279.382812 417.519531 278.675781 418.140625 C 277.972656 418.765625 277.238281 419.351562 276.476562 419.898438 C 275.710938 420.449219 274.925781 420.960938 274.113281 421.433594 C 273.300781 421.90625 272.464844 422.335938 271.609375 422.726562 C 270.753906 423.117188 269.882812 423.464844 268.992188 423.769531 C 268.101562 424.074219 267.199219 424.335938 266.285156 424.550781 C 265.371094 424.765625 264.449219 424.9375 263.515625 425.0625 C 262.582031 425.1875 261.648438 425.269531 260.707031 425.300781 C 259.769531 425.335938 258.828125 425.320312 257.890625 425.261719 C 256.953125 425.203125 256.019531 425.097656 255.09375 424.949219 C 254.164062 424.796875 253.246094 424.601562 252.335938 424.363281 C 251.429688 424.121094 250.53125 423.835938 249.652344 423.507812 C 248.769531 423.179688 247.910156 422.808594 247.0625 422.394531 C 246.21875 421.980469 245.398438 421.527344 244.597656 421.03125 C 243.796875 420.539062 243.023438 420.007812 242.277344 419.4375 C 241.53125 418.867188 240.8125 418.261719 240.125 417.621094 C 239.433594 416.980469 238.78125 416.304688 238.160156 415.601562 C 237.535156 414.894531 236.949219 414.160156 236.402344 413.398438 C 235.851562 412.636719 235.339844 411.847656 234.867188 411.035156 C 234.394531 410.222656 233.964844 409.390625 233.574219 408.535156 C 233.183594 407.679688 232.835938 406.804688 232.53125 405.917969 C 232.226562 405.027344 231.964844 404.125 231.75 403.210938 C 231.535156 402.296875 231.363281 401.371094 231.238281 400.441406 C 231.113281 399.507812 231.03125 398.574219 231 397.632812 C 230.964844 396.695312 230.980469 395.753906 231.039062 394.816406 C 231.097656 393.878906 231.203125 392.945312 231.351562 392.015625 C 231.503906 391.089844 231.699219 390.171875 231.9375 389.261719 C 232.179688 388.351562 232.464844 387.457031 232.792969 386.578125 C 233.121094 385.695312 233.492188 384.835938 233.90625 383.988281 C 234.320312 383.144531 234.773438 382.324219 235.269531 381.523438 C 235.761719 380.722656 236.292969 379.949219 236.863281 379.203125 C 237.433594 378.457031 238.039062 377.738281 238.679688 377.050781 C 239.320312 376.363281 239.996094 375.707031 240.699219 375.085938 C 241.40625 374.464844 242.140625 373.878906 242.902344 373.328125 C 243.664062 372.777344 244.453125 372.265625 245.265625 371.792969 C 246.078125 371.320312 246.914062 370.890625 247.765625 370.5 C 248.621094 370.109375 249.496094 369.761719 250.382812 369.457031 C 251.273438 369.152344 252.175781 368.890625 253.089844 368.675781 C 254.007812 368.460938 254.929688 368.289062 255.863281 368.164062 C 256.792969 368.039062 257.730469 367.960938 258.667969 367.925781 C 259.609375 367.894531 260.546875 367.90625 261.484375 367.964844 C 262.425781 368.023438 263.355469 368.128906 264.285156 368.277344 C 265.214844 368.429688 266.132812 368.625 267.039062 368.867188 C 267.949219 369.105469 268.84375 369.390625 269.726562 369.71875 C 270.605469 370.046875 271.46875 370.417969 272.3125 370.832031 C 273.15625 371.246094 273.980469 371.699219 274.78125 372.195312 C 275.578125 372.6875 276.351562 373.222656 277.101562 373.789062 C 277.847656 374.359375 278.566406 374.964844 279.253906 375.605469 C 279.941406 376.25 280.597656 376.921875 281.21875 377.625 C 281.839844 378.332031 282.425781 379.066406 282.976562 379.828125 C 283.527344 380.589844 284.035156 381.378906 284.507812 382.191406 C 284.980469 383.003906 285.414062 383.839844 285.804688 384.691406 C 286.195312 385.546875 286.542969 386.421875 286.847656 387.308594 C 287.152344 388.199219 287.410156 389.101562 287.628906 390.015625 Z M 287.628906 390.015625 " fill-opacity="1" fill-rule="nonzero"/><path fill="#f1cbbc" d="M 277.894531 396.632812 C 277.894531 410.695312 267.78125 422.398438 254.429688 424.859375 C 256.128906 425.171875 257.882812 425.335938 259.671875 425.335938 C 275.527344 425.335938 288.378906 412.484375 288.378906 396.628906 C 288.378906 380.777344 275.527344 367.925781 259.671875 367.925781 C 257.882812 367.925781 256.132812 368.089844 254.429688 368.402344 C 267.78125 370.867188 277.894531 382.566406 277.894531 396.632812 Z M 277.894531 396.632812 " fill-opacity="1" fill-rule="evenodd"/><path fill="#8ac9fe" d="M 259.671875 591.691406 C 288.328125 591.691406 312.027344 612.917969 315.894531 640.507812 C 316.1875 642.582031 315.625 644.480469 314.25 646.0625 C 312.875 647.644531 311.070312 648.464844 308.972656 648.464844 L 210.367188 648.464844 C 208.273438 648.464844 206.46875 647.644531 205.09375 646.0625 C 203.71875 644.480469 203.15625 642.582031 203.445312 640.507812 C 207.320312 612.917969 231.015625 591.691406 259.671875 591.691406 Z M 259.671875 591.691406 " fill-opacity="1" fill-rule="evenodd"/><path fill="#60b7ff" d="M 315.894531 640.507812 C 312.027344 612.917969 288.328125 591.691406 259.671875 591.691406 C 257.90625 591.691406 256.15625 591.773438 254.429688 591.929688 C 280.691406 594.332031 301.78125 614.621094 305.414062 640.507812 C 305.707031 642.582031 305.140625 644.480469 303.765625 646.0625 C 302.390625 647.644531 300.585938 648.464844 298.492188 648.464844 L 308.972656 648.464844 C 311.070312 648.464844 312.875 647.644531 314.25 646.0625 C 315.625 644.480469 316.1875 642.582031 315.894531 640.507812 Z M 315.894531 640.507812 " fill-opacity="1" fill-rule="evenodd"/><path fill="#f6dccd" d="M 279.964844 539.191406 C 280.628906 539.855469 281.261719 540.550781 281.855469 541.277344 C 282.453125 542.003906 283.011719 542.761719 283.535156 543.542969 C 284.058594 544.324219 284.539062 545.128906 284.984375 545.957031 C 285.425781 546.785156 285.828125 547.636719 286.1875 548.503906 C 286.546875 549.371094 286.863281 550.257812 287.136719 551.15625 C 287.410156 552.054688 287.636719 552.96875 287.820312 553.890625 C 288.003906 554.8125 288.144531 555.742188 288.234375 556.675781 C 288.328125 557.613281 288.375 558.550781 288.375 559.488281 C 288.375 560.429688 288.328125 561.367188 288.234375 562.304688 C 288.144531 563.238281 288.003906 564.167969 287.820312 565.089844 C 287.636719 566.011719 287.410156 566.921875 287.136719 567.824219 C 286.863281 568.722656 286.546875 569.605469 286.1875 570.476562 C 285.828125 571.34375 285.425781 572.191406 284.984375 573.019531 C 284.539062 573.851562 284.058594 574.65625 283.535156 575.4375 C 283.011719 576.21875 282.453125 576.972656 281.859375 577.699219 C 281.261719 578.425781 280.628906 579.121094 279.964844 579.789062 C 279.300781 580.453125 278.605469 581.082031 277.878906 581.679688 C 277.152344 582.277344 276.398438 582.835938 275.617188 583.359375 C 274.832031 583.878906 274.027344 584.363281 273.199219 584.804688 C 272.371094 585.25 271.519531 585.652344 270.652344 586.011719 C 269.785156 586.371094 268.898438 586.6875 268 586.960938 C 267.101562 587.230469 266.1875 587.460938 265.265625 587.644531 C 264.34375 587.828125 263.417969 587.964844 262.480469 588.058594 C 261.542969 588.148438 260.605469 588.195312 259.667969 588.195312 C 258.726562 588.195312 257.789062 588.148438 256.851562 588.058594 C 255.917969 587.964844 254.988281 587.828125 254.066406 587.644531 C 253.144531 587.460938 252.234375 587.234375 251.332031 586.960938 C 250.433594 586.6875 249.550781 586.371094 248.679688 586.011719 C 247.8125 585.652344 246.964844 585.25 246.132812 584.804688 C 245.304688 584.363281 244.5 583.878906 243.71875 583.359375 C 242.9375 582.835938 242.183594 582.277344 241.453125 581.679688 C 240.726562 581.082031 240.03125 580.453125 239.367188 579.789062 C 238.703125 579.125 238.070312 578.429688 237.476562 577.699219 C 236.878906 576.972656 236.320312 576.21875 235.796875 575.4375 C 235.273438 574.65625 234.792969 573.851562 234.347656 573.023438 C 233.90625 572.191406 233.503906 571.34375 233.144531 570.476562 C 232.785156 569.605469 232.46875 568.722656 232.195312 567.824219 C 231.921875 566.921875 231.695312 566.011719 231.511719 565.089844 C 231.328125 564.167969 231.1875 563.238281 231.097656 562.304688 C 231.003906 561.367188 230.957031 560.429688 230.957031 559.492188 C 230.957031 558.550781 231.003906 557.613281 231.097656 556.675781 C 231.1875 555.742188 231.328125 554.8125 231.511719 553.890625 C 231.695312 552.96875 231.921875 552.058594 232.195312 551.15625 C 232.46875 550.257812 232.785156 549.375 233.144531 548.503906 C 233.503906 547.636719 233.90625 546.789062 234.347656 545.957031 C 234.792969 545.128906 235.273438 544.324219 235.796875 543.542969 C 236.320312 542.761719 236.878906 542.007812 237.476562 541.28125 C 238.070312 540.554688 238.703125 539.855469 239.367188 539.191406 C 240.03125 538.527344 240.726562 537.898438 241.453125 537.300781 C 242.179688 536.703125 242.933594 536.144531 243.71875 535.621094 C 244.5 535.101562 245.304688 534.617188 246.132812 534.175781 C 246.960938 533.730469 247.8125 533.328125 248.679688 532.96875 C 249.546875 532.609375 250.433594 532.292969 251.332031 532.019531 C 252.230469 531.746094 253.144531 531.519531 254.066406 531.335938 C 254.988281 531.152344 255.917969 531.015625 256.851562 530.921875 C 257.789062 530.832031 258.726562 530.785156 259.664062 530.785156 C 260.605469 530.785156 261.542969 530.832031 262.480469 530.921875 C 263.414062 531.015625 264.34375 531.152344 265.265625 531.335938 C 266.1875 531.519531 267.097656 531.746094 268 532.019531 C 268.898438 532.292969 269.78125 532.609375 270.652344 532.96875 C 271.519531 533.328125 272.367188 533.730469 273.199219 534.171875 C 274.027344 534.617188 274.832031 535.101562 275.613281 535.621094 C 276.394531 536.144531 277.152344 536.703125 277.878906 537.300781 C 278.605469 537.894531 279.300781 538.527344 279.964844 539.191406 Z M 279.964844 539.191406 " fill-opacity="1" fill-rule="nonzero"/><path fill="#f1cbbc" d="M 277.894531 559.492188 C 277.894531 573.554688 267.78125 585.257812 254.429688 587.71875 C 256.128906 588.035156 257.882812 588.195312 259.671875 588.195312 C 275.527344 588.195312 288.378906 575.34375 288.378906 559.492188 C 288.378906 543.640625 275.527344 530.785156 259.671875 530.785156 C 257.882812 530.785156 256.132812 530.949219 254.429688 531.261719 C 267.78125 533.730469 277.894531 545.429688 277.894531 559.492188 Z M 277.894531 559.492188 " fill-opacity="1" fill-rule="evenodd"/></svg>