<svg xmlns="http://www.w3.org/2000/svg" xmlns:xlink="http://www.w3.org/1999/xlink" width="200" zoomAndPan="magnify" viewBox="0 0 150 149.999998" height="200" preserveAspectRatio="xMidYMid meet" version="1.0"><path fill="#4dc4ff" d="M 66.921875 -0.382812 C 46.742188 -0.382812 30.382812 15.972656 30.382812 36.152344 C 30.382812 56.332031 46.742188 72.691406 66.921875 72.691406 C 87.101562 72.691406 103.460938 56.332031 103.460938 36.152344 C 103.460938 15.972656 87.101562 -0.382812 66.921875 -0.382812 Z M 66.921875 -0.382812 " fill-opacity="1" fill-rule="nonzero"/><path fill="#5e94ff" d="M 66.921875 76.539062 C 29.75 76.539062 -0.382812 106.671875 -0.382812 143.847656 C -0.382812 147.03125 2.199219 149.617188 5.382812 149.617188 L 128.460938 149.617188 C 131.648438 149.617188 134.230469 147.03125 134.230469 143.847656 C 134.230469 106.671875 104.097656 76.539062 66.921875 76.539062 Z M 66.921875 76.539062 " fill-opacity="1" fill-rule="nonzero"/><path fill="#5e94ff" d="M 99.617188 66.921875 C 99.617188 63.738281 102.199219 61.152344 105.382812 61.152344 L 143.847656 61.152344 C 147.03125 61.152344 149.617188 63.738281 149.617188 66.921875 C 149.617188 70.109375 147.03125 72.691406 143.847656 72.691406 L 105.382812 72.691406 C 102.199219 72.691406 99.617188 70.109375 99.617188 66.921875 Z M 99.617188 66.921875 " fill-opacity="1" fill-rule="evenodd"/><path fill="#5e94ff" d="M 124.617188 91.921875 C 121.429688 91.921875 118.847656 89.339844 118.847656 86.152344 L 118.847656 47.691406 C 118.847656 44.507812 121.429688 41.921875 124.617188 41.921875 C 127.800781 41.921875 130.382812 44.507812 130.382812 47.691406 L 130.382812 86.152344 C 130.382812 89.339844 127.800781 91.921875 124.617188 91.921875 Z M 124.617188 91.921875 " fill-opacity="1" fill-rule="evenodd"/></svg>